{
.appVersion = "3112";
classes = (
{

glyphs = (
{
glyphname = .notdef;
layers = (
{
layerId = "3590996D-50CB-43A2-BF30-26B998A874F2";
paths = (
{
closed = 1;
nodes = (
"864 1228 LINE",
"58 1228 LINE",
"58 40 LINE",
"864 40 LINE"
);
},
{
closed = 1;
nodes = (
"115 98 LINE",
"115 1170 LINE",
"806 1170 LINE",
"806 98 LINE"
);
}
);
vertWidth = 0;
width = 922;
},
{
layerId = "0032BCCA-E182-473F-BEC5-A72B788B9C41";
paths = (
{
closed = 1;
nodes = (
"1170 1660 LINE",
"90 1660 LINE",
"90 40 LINE",
"1170 40 LINE"
);
},
{
closed = 1;
nodes = (
"135 85 LINE",
"135 1615 LINE",
"1125 1615 LINE",
"1125 85 LINE"
);
}
);
vertWidth = 0;
width = 1260;
}
);
},
{
glyphname = exclam;
layers = (
{
layerId = "3590996D-50CB-43A2-BF30-26B998A874F2";
paths = (
{
closed = 1;
nodes = (
"342 -88 OFFCURVE",
"390 -136 OFFCURVE",
"450 -136 CURVE SMOOTH",
"509 -136 OFFCURVE",
"558 -88 OFFCURVE",
"558 -28 CURVE SMOOTH",
"558 31 OFFCURVE",
"509 80 OFFCURVE",
"450 80 CURVE SMOOTH",
"390 80 OFFCURVE",
"342 31 OFFCURVE",
"342 -28 CURVE SMOOTH"
);
},
{
closed = 1;
nodes = (
"500 214 LINE",
"580 1390 LINE",
"320 1390 LINE",
"400 272 LINE"
);
}
);
vertWidth = 0;
width = 789;
},
{
layerId = "0032BCCA-E182-473F-BEC5-A72B788B9C41";
paths = (
{
closed = 1;
nodes = (
"330 -75 OFFCURVE",
"383 -128 OFFCURVE",
"450 -128 CURVE SMOOTH",
"515 -128 OFFCURVE",
"570 -75 OFFCURVE",
"570 -8 CURVE SMOOTH",
"570 57 OFFCURVE",
"515 112 OFFCURVE",
"450 112 CURVE SMOOTH",
"383 112 OFFCURVE",
"330 57 OFFCURVE",
"330 -8 CURVE SMOOTH"
);
},
{
closed = 1;
nodes = (
"530 196 LINE",
"600 1415 LINE",
"300 1415 LINE",
"370 254 LINE"
);
}
);
vertWidth = 0;
width = 789;
}
);
unicode = 0021;
},
{
glyphname = exclam.alt;
layers = (
{
layerId = "3590996D-50CB-43A2-BF30-26B998A874F2";
paths = (
{
closed = 1;
nodes = (
"425 1266 OFFCURVE",
"387 1306 OFFCURVE",
"311 1306 CURVE SMOOTH",
"228 1306 OFFCURVE",
"195 1269 OFFCURVE",
"195 1186 CURVE",
"267 374 LINE",
"357 374 LINE",
"425 1186 LINE"
);
},
{
closed = 1;
nodes = (
"426 194 OFFCURVE",
"373 245 OFFCURVE",
"311 245 CURVE SMOOTH",
"248 245 OFFCURVE",
"199 196 OFFCURVE",
"199 133 CURVE SMOOTH",
"199 69 OFFCURVE",
"247 18 OFFCURVE",
"311 18 CURVE SMOOTH",
"374 18 OFFCURVE",
"426 71 OFFCURVE",
"426 133 CURVE SMOOTH"
);
}
);
vertWidth = 0;
width = 623;
},
{
layerId = "0032BCCA-E182-473F-BEC5-A72B788B9C41";
paths = (
{
closed = 1;
nodes = (
"464 1262 OFFCURVE",
"398 1306 OFFCURVE",
"315 1306 CURVE SMOOTH",
"232 1306 OFFCURVE",
"164 1260 OFFCURVE",
"164 1157 CURVE",
"265 423 LINE",
"365 423 LINE",
"464 1157 LINE"
);
},
{
closed = 1;
nodes = (
"463 260 OFFCURVE",
"383 314 OFFCURVE",
"315 314 CURVE SMOOTH",
"247 314 OFFCURVE",
"166 265 OFFCURVE",
"166 169 CURVE SMOOTH",
"166 61 OFFCURVE",
"255 17 OFFCURVE",
"315 17 CURVE SMOOTH",
"394 17 OFFCURVE",
"463 84 OFFCURVE",
"463 169 CURVE SMOOTH"
);
}
);
vertWidth = 0;
width = 626;
}
);
},
{
glyphname = quotedbl;
layers = (
{
layerId = "3590996D-50CB-43A2-BF30-26B998A874F2";
paths = (
{
closed = 1;
nodes = (
"535 1266 LINE",
"535 1326 OFFCURVE",
"508 1356 OFFCURVE",
"455 1356 CURVE SMOOTH",
"404 1356 OFFCURVE",
"378 1326 OFFCURVE",
"378 1266 CURVE",
"440 816 LINE",
"470 816 LINE"
);
},
{
closed = 1;
nodes = (
"236 1266 LINE",
"236 1326 OFFCURVE",
"210 1356 OFFCURVE",
"158 1356 CURVE SMOOTH",
"105 1356 OFFCURVE",
"79 1326 OFFCURVE",
"79 1266 CURVE",
"144 816 LINE",
"174 816 LINE"
);
}
);
vertWidth = 0;
width = 614;
},
{
layerId = "0032BCCA-E182-473F-BEC5-A72B788B9C41";
paths = (
{
closed = 1;
nodes = (
"649 1240 LINE",
"649 1308 OFFCURVE",
"616 1356 OFFCURVE",
"540 1356 CURVE SMOOTH",
"466 1356 OFFCURVE",
"435 1308 OFFCURVE",
"435 1240 CURVE",
"507 809 LINE",
"575 809 LINE"
);
},
{
closed = 1;
nodes = (
"285 1240 LINE",
"285 1308 OFFCURVE",
"253 1356 OFFCURVE",
"179 1356 CURVE SMOOTH",
"105 1356 OFFCURVE",
"74 1308 OFFCURVE",
"74 1240 CURVE",
"146 809 LINE",
"214 809 LINE"
);
}
);
vertWidth = 0;
width = 723;
}
);
unicode = 0022;
},
{
glyphname = numbersign;
layers = (
{
layerId = "3590996D-50CB-43A2-BF30-26B998A874F2";
paths = (
{
closed = 1;
nodes = (
"1256 910 LINE",
"998 910 LINE",
"1138 1315 LINE",
"1042 1345 LINE",
"896 910 LINE",
"627 910 LINE",
"768 1315 LINE",
"674 1345 LINE",
"526 910 LINE",
"198 910 LINE",
"198 816 LINE",
"495 816 LINE",
"405 552 LINE",
"113 552 LINE",
"113 460 LINE",
"375 460 LINE",
"228 29 LINE",
"319 -2 LINE",
"476 460 LINE",
"743 460 LINE",
"598 27 LINE",
"690 -2 LINE",
"847 460 LINE",
"1175 460 LINE",
"1175 552 LINE",
"878 552 LINE",
"967 816 LINE",
"1256 816 LINE"
);
},
{
closed = 1;
nodes = (
"775 552 LINE",
"508 552 LINE",
"597 816 LINE",
"864 816 LINE"
);
}
);
vertWidth = 0;
width = 1370;
},
{
layerId = "0032BCCA-E182-473F-BEC5-A72B788B9C41";
paths = (
{
closed = 1;
nodes = (
"1252 925 LINE",
"1010 925 LINE",
"1148 1313 LINE",
"1021 1349 LINE",
"885 925 LINE",
"645 925 LINE",
"781 1315 LINE",
"658 1349 LINE",
"516 925 LINE",
"204 925 LINE",
"204 803 LINE",
"477 803 LINE",
"398 560 LINE",
"114 560 LINE",
"114 444 LINE",
"361 444 LINE",
"223 29 LINE",
"346 -4 LINE",
"490 444 LINE",
"721 444 LINE",
"584 27 LINE",
"712 -4 LINE",
"851 444 LINE",
"1178 444 LINE",
"1178 560 LINE",
"892 560 LINE",
"971 803 LINE",
"1252 803 LINE"
);
},
{
closed = 1;
nodes = (
"758 560 LINE",
"529 560 LINE",
"610 803 LINE",
"842 803 LINE"
);
}
);
vertWidth = 0;
width = 1366;
}
);
unicode = 0023;
},
{
glyphname = dollar;
layers = (
{
layerId = "3590996D-50CB-43A2-BF30-26B998A874F2";
paths = (
{
closed = 1;
nodes = (
"931 501 OFFCURVE",
"890 586 OFFCURVE",
"808 646 CURVE SMOOTH",
"762 679 OFFCURVE",
"681 712 OFFCURVE",
"565 747 CURVE",
"565 1187 LINE",
"663 1187 OFFCURVE",
"727 1170 OFFCURVE",
"755 1139 CURVE",
"784 944 LINE",
"878 944 LINE",
"878 1234 LINE",
"768 1262 OFFCURVE",
"663 1277 OFFCURVE",
"565 1277 CURVE",
"565 1410 LINE",
"481 1410 LINE",
"481 1271 LINE",
"391 1258 OFFCURVE",
"316 1226 OFFCURVE",
"254 1177 CURVE SMOOTH",
"175 1115 OFFCURVE",
"136 1033 OFFCURVE",
"136 932 CURVE SMOOTH",
"136 761 OFFCURVE",
"250 649 OFFCURVE",
"479 596 CURVE",
"479 130 LINE",
"350 130 OFFCURVE",
"268 152 OFFCURVE",
"233 195 CURVE",
"200 401 LINE",
"106 401 LINE",
"106 88 LINE",
"160 72 OFFCURVE",
"227 60 OFFCURVE",
"305 52 CURVE SMOOTH",
"333 49 OFFCURVE",
"391 45 OFFCURVE",
"479 40 CURVE",
"479 -150 LINE",
"563 -150 LINE",
"563 40 LINE",
"642 44 OFFCURVE",
"718 76 OFFCURVE",
"793 133 CURVE SMOOTH",
"886 203 OFFCURVE",
"931 288 OFFCURVE",
"931 390 CURVE SMOOTH"
);
},
{
closed = 1;
nodes = (
"364 814 OFFCURVE",
"307 880 OFFCURVE",
"307 969 CURVE SMOOTH",
"307 1085 OFFCURVE",
"364 1155 OFFCURVE",
"481 1179 CURVE",
"481 772 LINE"
);
},
{
closed = 1;
nodes = (
"762 233 OFFCURVE",
"696 161 OFFCURVE",
"563 138 CURVE",
"563 575 LINE",
"696 532 OFFCURVE",
"762 459 OFFCURVE",
"762 355 CURVE SMOOTH"
);
}
);
vertWidth = 0;
width = 1038;
},
{
layerId = "0032BCCA-E182-473F-BEC5-A72B788B9C41";
paths = (
{
closed = 1;
nodes = (
"985 669 OFFCURVE",
"707 746 OFFCURVE",
"586 779 CURVE",
"586 1159 LINE",
"614 1159 OFFCURVE",
"754 1131 OFFCURVE",
"758 1115 CURVE",
"793 910 LINE",
"920 910 LINE",
"920 1218 LINE",
"840 1241 OFFCURVE",
"695 1271 OFFCURVE",
"586 1271 CURVE",
"586 1408 LINE",
"477 1408 LINE",
"477 1271 LINE",
"320 1265 OFFCURVE",
"111 1166 OFFCURVE",
"111 919 CURVE SMOOTH",
"111 670 OFFCURVE",
"339 601 OFFCURVE",
"477 560 CURVE",
"477 154 LINE",
"420 155 OFFCURVE",
"324 169 OFFCURVE",
"269 204 CURVE",
"230 420 LINE",
"100 420 LINE",
"100 101 LINE",
"215 63 OFFCURVE",
"383 44 OFFCURVE",
"477 40 CURVE",
"477 -148 LINE",
"586 -148 LINE",
"586 42 LINE",
"820 75 OFFCURVE",
"985 207 OFFCURVE",
"985 418 CURVE SMOOTH"
);
},
{
closed = 1;
nodes = (
"420 818 OFFCURVE",
"345 877 OFFCURVE",
"345 986 CURVE SMOOTH",
"345 1101 OFFCURVE",
"420 1149 OFFCURVE",
"477 1153 CURVE",
"477 805 LINE"
);
},
{
closed = 1;
nodes = (
"751 220 OFFCURVE",
"657 165 OFFCURVE",
"586 160 CURVE",
"586 532 LINE",
"649 515 OFFCURVE",
"751 473 OFFCURVE",
"751 351 CURVE SMOOTH"
);
}
);
vertWidth = 0;
width = 1082;
}
);
unicode = 0024;
},
{
glyphname = percent;
layers = (
{
layerId = "3590996D-50CB-43A2-BF30-26B998A874F2";
paths = (
{
closed = 1;
nodes = (
"1526 601 OFFCURVE",
"1447 784 OFFCURVE",
"1245 784 CURVE SMOOTH",
"1042 784 OFFCURVE",
"961 600 OFFCURVE",
"961 397 CURVE SMOOTH",
"961 194 OFFCURVE",
"1043 10 OFFCURVE",
"1245 10 CURVE SMOOTH",
"1446 10 OFFCURVE",
"1526 194 OFFCURVE",
"1526 397 CURVE SMOOTH"
);
},
{
closed = 1;
nodes = (
"1128 1277 LINE",
"345 40 LINE",
"461 40 LINE",
"1242 1277 LINE"
);
},
{
closed = 1;
nodes = (
"625 1121 OFFCURVE",
"545 1306 OFFCURVE",
"343 1306 CURVE SMOOTH",
"141 1306 OFFCURVE",
"59 1121 OFFCURVE",
"59 919 CURVE SMOOTH",
"59 718 OFFCURVE",
"142 532 OFFCURVE",
"343 532 CURVE SMOOTH",
"544 532 OFFCURVE",
"625 718 OFFCURVE",
"625 919 CURVE SMOOTH"
);
},
{
closed = 1;
nodes = (
"1385 186 OFFCURVE",
"1338 80 OFFCURVE",
"1245 80 CURVE SMOOTH",
"1147 80 OFFCURVE",
"1099 186 OFFCURVE",
"1099 397 CURVE SMOOTH",
"1099 609 OFFCURVE",
"1147 714 OFFCURVE",
"1245 714 CURVE SMOOTH",
"1338 714 OFFCURVE",
"1385 609 OFFCURVE",
"1385 397 CURVE SMOOTH"
);
},
{
closed = 1;
nodes = (
"483 708 OFFCURVE",
"436 602 OFFCURVE",
"343 602 CURVE SMOOTH",
"246 602 OFFCURVE",
"197 708 OFFCURVE",
"197 919 CURVE SMOOTH",
"197 1131 OFFCURVE",
"246 1236 OFFCURVE",
"343 1236 CURVE SMOOTH",
"436 1236 OFFCURVE",
"483 1131 OFFCURVE",
"483 919 CURVE SMOOTH"
);
}
);
vertWidth = 0;
width = 1586;
},
{
layerId = "0032BCCA-E182-473F-BEC5-A72B788B9C41";
paths = (
{
closed = 1;
nodes = (
"1595 636 OFFCURVE",
"1488 781 OFFCURVE",
"1277 781 CURVE SMOOTH",
"1067 781 OFFCURVE",
"964 636 OFFCURVE",
"964 395 CURVE SMOOTH",
"964 156 OFFCURVE",
"1067 10 OFFCURVE",
"1277 10 CURVE SMOOTH",
"1488 10 OFFCURVE",
"1595 156 OFFCURVE",
"1595 395 CURVE SMOOTH"
);
},
{
closed = 1;
nodes = (
"1141 1277 LINE",
"376 40 LINE",
"507 40 LINE",
"1273 1277 LINE"
);
},
{
closed = 1;
nodes = (
"686 1160 OFFCURVE",
"580 1306 OFFCURVE",
"371 1306 CURVE SMOOTH",
"160 1306 OFFCURVE",
"53 1160 OFFCURVE",
"53 921 CURVE SMOOTH",
"53 682 OFFCURVE",
"160 534 OFFCURVE",
"371 534 CURVE SMOOTH",
"580 534 OFFCURVE",
"686 682 OFFCURVE",
"686 921 CURVE SMOOTH"
);
},
{
closed = 1;
nodes = (
"1393 169 OFFCURVE",
"1345 97 OFFCURVE",
"1277 97 CURVE SMOOTH",
"1211 97 OFFCURVE",
"1152 169 OFFCURVE",
"1152 395 CURVE SMOOTH",
"1152 622 OFFCURVE",
"1211 694 OFFCURVE",
"1277 694 CURVE SMOOTH",
"1345 694 OFFCURVE",
"1393 622 OFFCURVE",
"1393 395 CURVE SMOOTH"
);
},
{
closed = 1;
nodes = (
"487 694 OFFCURVE",
"436 620 OFFCURVE",
"371 620 CURVE SMOOTH",
"302 620 OFFCURVE",
"239 694 OFFCURVE",
"239 921 CURVE SMOOTH",
"239 1148 OFFCURVE",
"302 1220 OFFCURVE",
"371 1220 CURVE SMOOTH",
"436 1220 OFFCURVE",
"487 1148 OFFCURVE",
"487 921 CURVE SMOOTH"
);
}
);
vertWidth = 0;
width = 1648;
}
);
unicode = 0025;
},
{
glyphname = ampersand;
layers = (
{
layerId = "3590996D-50CB-43A2-BF30-26B998A874F2";
paths = (
{
closed = 1;
nodes = (
"1251 119 LINE",
"1087 128 LINE",
"938 300 LINE",
"1013 404 OFFCURVE",
"1066 508 OFFCURVE",
"1094 611 CURVE",
"1228 631 LINE",
"1228 709 LINE",
"850 709 LINE",
"850 631 LINE",
"949 617 LINE SMOOTH",
"962 615 OFFCURVE",
"980 592 OFFCURVE",
"980 582 CURVE",
"971 514 OFFCURVE",
"937 442 OFFCURVE",
"877 366 CURVE",
"567 700 LINE",
"719 767 OFFCURVE",
"839 857 OFFCURVE",
"839 1023 CURVE SMOOTH",
"839 1189 OFFCURVE",
"694 1301 OFFCURVE",
"514 1301 CURVE SMOOTH",
"319 1301 OFFCURVE",
"164 1179 OFFCURVE",
"164 989 CURVE SMOOTH",
"164 904 OFFCURVE",
"215 810 OFFCURVE",
"319 707 CURVE",
"154 638 OFFCURVE",
"72 530 OFFCURVE",
"72 383 CURVE SMOOTH",
"72 167 OFFCURVE",
"249 17 OFFCURVE",
"455 17 CURVE SMOOTH",
"609 17 OFFCURVE",
"708 81 OFFCURVE",
"829 177 CURVE",
"912 84 LINE",
"912 40 LINE",
"1251 40 LINE"
);
},
{
closed = 1;
nodes = (
"669 901 OFFCURVE",
"613 818 OFFCURVE",
"501 763 CURVE",
"419 839 OFFCURVE",
"329 924 OFFCURVE",
"329 1037 CURVE SMOOTH",
"329 1129 OFFCURVE",
"391 1210 OFFCURVE",
"496 1210 CURVE SMOOTH",
"614 1210 OFFCURVE",
"669 1116 OFFCURVE",
"669 1011 CURVE SMOOTH"
);
},
{
closed = 1;
nodes = (
"690 172 OFFCURVE",
"608 138 OFFCURVE",
"525 138 CURVE SMOOTH",
"370 138 OFFCURVE",
"257 265 OFFCURVE",
"257 425 CURVE SMOOTH",
"257 515 OFFCURVE",
"301 592 OFFCURVE",
"391 654 CURVE",
"770 241 LINE"
);
}
);
vertWidth = 0;
width = 1288;
},
{
layerId = "0032BCCA-E182-473F-BEC5-A72B788B9C41";
paths = (
{
closed = 1;
nodes = (
"1325 133 LINE",
"1176 150 LINE",
"1004 336 LINE",
"1049 392 OFFCURVE",
"1130 499 OFFCURVE",
"1174 641 CURVE",
"1300 666 LINE",
"1300 754 LINE",
"913 754 LINE",
"913 666 LINE",
"1010 649 LINE",
"1018 648 OFFCURVE",
"1028 632 OFFCURVE",
"1028 618 CURVE",
"1021 561 OFFCURVE",
"961 450 OFFCURVE",
"932 414 CURVE",
"647 707 LINE",
"670 711 OFFCURVE",
"924 764 OFFCURVE",
"924 1012 CURVE SMOOTH",
"924 1239 OFFCURVE",
"702 1300 OFFCURVE",
"559 1300 CURVE SMOOTH",
"342 1300 OFFCURVE",
"158 1192 OFFCURVE",
"158 987 CURVE SMOOTH",
"158 847 OFFCURVE",
"266 734 OFFCURVE",
"330 696 CURVE",
"174 647 OFFCURVE",
"70 555 OFFCURVE",
"70 379 CURVE SMOOTH",
"70 162 OFFCURVE",
"229 16 OFFCURVE",
"469 16 CURVE SMOOTH",
"649 16 OFFCURVE",
"796 119 OFFCURVE",
"847 169 CURVE",
"924 84 LINE",
"924 41 LINE",
"1325 41 LINE"
);
},
{
closed = 1;
nodes = (
"694 904 OFFCURVE",
"657 847 OFFCURVE",
"578 772 CURVE",
"498 846 OFFCURVE",
"401 936 OFFCURVE",
"401 1047 CURVE SMOOTH",
"401 1130 OFFCURVE",
"465 1190 OFFCURVE",
"549 1190 CURVE SMOOTH",
"639 1190 OFFCURVE",
"694 1110 OFFCURVE",
"694 1008 CURVE SMOOTH"
);
},
{
closed = 1;
nodes = (
"736 214 OFFCURVE",
"670 176 OFFCURVE",
"590 176 CURVE SMOOTH",
"459 176 OFFCURVE",
"319 254 OFFCURVE",
"319 465 CURVE SMOOTH",
"319 532 OFFCURVE",
"351 586 OFFCURVE",
"406 631 CURVE",
"771 249 LINE"
);
}
);
vertWidth = 0;
width = 1354;
}
);
unicode = 0026;
},
{
glyphname = quotesingle;
layers = (
{
layerId = "3590996D-50CB-43A2-BF30-26B998A874F2";
paths = (
{
closed = 1;
nodes = (
"236 1326 OFFCURVE",
"210 1356 OFFCURVE",
"157 1356 CURVE SMOOTH",
"105 1356 OFFCURVE",
"79 1326 OFFCURVE",
"79 1266 CURVE",
"144 816 LINE",
"174 816 LINE",
"236 1266 LINE"
);
}
);
vertWidth = 0;
width = 315;
},
{
layerId = "0032BCCA-E182-473F-BEC5-A72B788B9C41";
paths = (
{
closed = 1;
nodes = (
"269 1308 OFFCURVE",
"236 1356 OFFCURVE",
"162 1356 CURVE SMOOTH",
"86 1356 OFFCURVE",
"57 1308 OFFCURVE",
"57 1240 CURVE",
"129 809 LINE",
"195 809 LINE",
"269 1240 LINE"
);
}
);
vertWidth = 0;
width = 324;
}
);
unicode = 0027;
},
{
glyphname = parenleft;
layers = (
{
layerId = "3590996D-50CB-43A2-BF30-26B998A874F2";
paths = (
{
closed = 1;
nodes = (
"365 -145 OFFCURVE",
"312 248 OFFCURVE",
"312 590 CURVE SMOOTH",
"312 925 OFFCURVE",
"361 1322 OFFCURVE",
"702 1378 CURVE",
"702 1468 LINE",
"267 1420 OFFCURVE",
"120 1028 OFFCURVE",
"120 590 CURVE SMOOTH",
"120 152 OFFCURVE",
"267 -243 OFFCURVE",
"702 -291 CURVE",
"702 -201 LINE"
);
}
);
vertWidth = 0;
width = 771;
},
{
layerId = "0032BCCA-E182-473F-BEC5-A72B788B9C41";
paths = (
{
closed = 1;
nodes = (
"444 -141 OFFCURVE",
"381 170 OFFCURVE",
"381 590 CURVE SMOOTH",
"381 1010 OFFCURVE",
"444 1319 OFFCURVE",
"733 1358 CURVE",
"733 1468 LINE",
"330 1456 OFFCURVE",
"121 1124 OFFCURVE",
"121 590 CURVE SMOOTH",
"121 55 OFFCURVE",
"330 -281 OFFCURVE",
"733 -291 CURVE",
"733 -180 LINE"
);
}
);
vertWidth = 0;
width = 803;
}
);
unicode = 0028;
},
{
glyphname = parenright;
layers = (
{
layerId = "3590996D-50CB-43A2-BF30-26B998A874F2";
paths = (
{
closed = 1;
nodes = (
"651 1028 OFFCURVE",
"504 1420 OFFCURVE",
"69 1468 CURVE",
"69 1378 LINE",
"410 1322 OFFCURVE",
"459 925 OFFCURVE",
"459 590 CURVE SMOOTH",
"459 248 OFFCURVE",
"406 -145 OFFCURVE",
"69 -201 CURVE",
"69 -291 LINE",
"504 -243 OFFCURVE",
"651 152 OFFCURVE",
"651 590 CURVE SMOOTH"
);
}
);
vertWidth = 0;
width = 771;
},
{
layerId = "0032BCCA-E182-473F-BEC5-A72B788B9C41";
paths = (
{
closed = 1;
nodes = (
"682 1124 OFFCURVE",
"471 1456 OFFCURVE",
"70 1468 CURVE",
"70 1358 LINE",
"356 1319 OFFCURVE",
"422 1010 OFFCURVE",
"422 590 CURVE SMOOTH",
"422 170 OFFCURVE",
"356 -141 OFFCURVE",
"70 -180 CURVE",
"70 -291 LINE",
"471 -281 OFFCURVE",
"682 55 OFFCURVE",
"682 590 CURVE SMOOTH"
);
}
);
vertWidth = 0;
width = 803;
}
);
unicode = 0029;
},
{
glyphname = asterisk;
layers = (
{
layerId = "3590996D-50CB-43A2-BF30-26B998A874F2";
paths = (
{
closed = 1;
nodes = (
"693 1129 LINE",
"494 998 LINE",
"503 972 LINE",
"741 986 LINE",
"823 1090 LINE"
);
},
{
closed = 1;
nodes = (
"461 1359 LINE",
"385 1247 LINE",
"448 1016 LINE",
"473 1016 LINE",
"538 1247 LINE"
);
},
{
closed = 1;
nodes = (
"680 798 LINE",
"494 947 LINE",
"472 930 LINE",
"556 709 LINE",
"684 661 LINE"
);
},
{
closed = 1;
nodes = (
"229 1129 LINE",
"98 1090 LINE",
"181 986 LINE",
"420 972 LINE",
"427 998 LINE"
);
},
{
closed = 1;
nodes = (
"427 947 LINE",
"241 798 LINE",
"238 661 LINE",
"365 709 LINE",
"450 930 LINE"
);
}
);
vertWidth = 0;
width = 922;
},
{
layerId = "0032BCCA-E182-473F-BEC5-A72B788B9C41";
paths = (
{
closed = 1;
nodes = (
"688 1146 LINE",
"492 1002 LINE",
"505 974 LINE",
"742 972 LINE",
"823 1092 LINE"
);
},
{
closed = 1;
nodes = (
"461 1363 LINE",
"369 1253 LINE",
"445 1023 LINE",
"475 1023 LINE",
"553 1253 LINE"
);
},
{
closed = 1;
nodes = (
"494 951 LINE",
"472 928 LINE",
"545 700 LINE",
"686 663 LINE",
"691 807 LINE"
);
},
{
closed = 1;
nodes = (
"230 1146 LINE",
"98 1092 LINE",
"177 972 LINE",
"417 974 LINE",
"427 1000 LINE"
);
},
{
closed = 1;
nodes = (
"427 951 LINE",
"230 807 LINE",
"236 663 LINE",
"376 700 LINE",
"450 928 LINE"
);
}
);
vertWidth = 0;
width = 922;
}
);
unicode = 002A;
},
{
glyphname = plus;
layers = (
{
layerId = "3590996D-50CB-43A2-BF30-26B998A874F2";
paths = (
{
closed = 1;
nodes = (
"1316 641 LINE",
"820 641 LINE",
"820 1135 LINE",
"715 1135 LINE",
"715 641 LINE",
"220 641 LINE",
"220 536 LINE",
"715 536 LINE",
"715 40 LINE",
"820 40 LINE",
"820 536 LINE",
"1316 536 LINE"
);
}
);
vertWidth = 0;
width = 1535;
},
{
layerId = "0032BCCA-E182-473F-BEC5-A72B788B9C41";
paths = (
{
closed = 1;
nodes = (
"1316 641 LINE",
"820 641 LINE",
"820 1135 LINE",
"715 1135 LINE",
"715 641 LINE",
"220 641 LINE",
"220 536 LINE",
"715 536 LINE",
"715 40 LINE",
"820 40 LINE",
"820 536 LINE",
"1316 536 LINE"
);
}
);
vertWidth = 0;
width = 1535;
}
);
unicode = 002B;
},
{
glyphname = comma;
layers = (
{
layerId = "3590996D-50CB-43A2-BF30-26B998A874F2";
paths = (
{
closed = 1;
nodes = (
"470 196 OFFCURVE",
"418 265 OFFCURVE",
"317 265 CURVE SMOOTH",
"249 265 OFFCURVE",
"202 201 OFFCURVE",
"202 138 CURVE SMOOTH",
"202 103 OFFCURVE",
"213 75 OFFCURVE",
"236 53 CURVE",
"352 53 LINE",
"352 -100 OFFCURVE",
"299 -173 OFFCURVE",
"149 -207 CURVE",
"149 -273 LINE",
"331 -256 OFFCURVE",
"470 -119 OFFCURVE",
"470 58 CURVE SMOOTH"
);
}
);
vertWidth = 0;
width = 606;
},
{
layerId = "0032BCCA-E182-473F-BEC5-A72B788B9C41";
paths = (
{
closed = 1;
nodes = (
"446 256 OFFCURVE",
"382 325 OFFCURVE",
"271 325 CURVE SMOOTH",
"192 325 OFFCURVE",
"116 263 OFFCURVE",
"116 170 CURVE SMOOTH",
"116 134 OFFCURVE",
"129 88 OFFCURVE",
"174 53 CURVE",
"285 53 LINE",
"285 -120 OFFCURVE",
"158 -180 OFFCURVE",
"65 -194 CURVE",
"65 -284 LINE",
"241 -271 OFFCURVE",
"446 -80 OFFCURVE",
"446 149 CURVE SMOOTH"
);
}
);
vertWidth = 0;
width = 586;
}
);
unicode = 002C;
},
{
glyphname = hyphen;
layers = (
{
layerId = "3590996D-50CB-43A2-BF30-26B998A874F2";
paths = (
{
closed = 1;
nodes = (
"81 552 LINE",
"81 414 LINE",
"508 414 LINE",
"508 552 LINE"
);
}
);
vertWidth = 0;
width = 589;
},
{
layerId = "0032BCCA-E182-473F-BEC5-A72B788B9C41";
paths = (
{
closed = 1;
nodes = (
"544 582 LINE",
"61 582 LINE",
"61 386 LINE",
"544 386 LINE"
);
}
);
vertWidth = 0;
width = 605;
}
);
unicode = 002D;
},
{
glyphname = period;
layers = (
{
layerId = "3590996D-50CB-43A2-BF30-26B998A874F2";
paths = (
{
closed = 1;
nodes = (
"361 208 OFFCURVE",
"307 265 OFFCURVE",
"236 265 CURVE SMOOTH",
"167 265 OFFCURVE",
"112 211 OFFCURVE",
"112 142 CURVE SMOOTH",
"112 72 OFFCURVE",
"167 18 OFFCURVE",
"236 18 CURVE SMOOTH",
"307 18 OFFCURVE",
"361 75 OFFCURVE",
"361 142 CURVE SMOOTH"
);
}
);
vertWidth = 0;
width = 516;
},
{
layerId = "0032BCCA-E182-473F-BEC5-A72B788B9C41";
paths = (
{
closed = 1;
nodes = (
"424 256 OFFCURVE",
"357 325 OFFCURVE",
"271 325 CURVE SMOOTH",
"186 325 OFFCURVE",
"116 256 OFFCURVE",
"116 170 CURVE SMOOTH",
"116 86 OFFCURVE",
"186 17 OFFCURVE",
"271 17 CURVE SMOOTH",
"357 17 OFFCURVE",
"424 86 OFFCURVE",
"424 170 CURVE SMOOTH"
);
}
);
vertWidth = 0;
width = 586;
}
);
unicode = 002E;
},
{
glyphname = slash;
layers = (
{
layerId = "3590996D-50CB-43A2-BF30-26B998A874F2";
paths = (
{
closed = 1;
nodes = (
"785 1277 LINE",
"0 -131 LINE",
"118 -131 LINE",
"904 1277 LINE"
);
}
);
vertWidth = 0;
width = 904;
},
{
layerId = "0032BCCA-E182-473F-BEC5-A72B788B9C41";
paths = (
{
closed = 1;
nodes = (
"778 1277 LINE",
"0 -131 LINE",
"144 -131 LINE",
"923 1277 LINE"
);
}
);
vertWidth = 0;
width = 923;
}
);
unicode = 002F;
},
{
glyphname = zero;
layers = (
{
layerId = "3590996D-50CB-43A2-BF30-26B998A874F2";
paths = (
{
closed = 1;
nodes = (
"964 980 OFFCURVE",
"838 1306 OFFCURVE",
"517 1306 CURVE SMOOTH",
"197 1306 OFFCURVE",
"74 980 OFFCURVE",
"74 657 CURVE SMOOTH",
"74 336 OFFCURVE",
"197 10 OFFCURVE",
"517 10 CURVE SMOOTH",
"837 10 OFFCURVE",
"964 335 OFFCURVE",
"964 657 CURVE SMOOTH"
);
},
{
closed = 1;
nodes = (
"769 287 OFFCURVE",
"685 103 OFFCURVE",
"517 103 CURVE SMOOTH",
"351 103 OFFCURVE",
"267 287 OFFCURVE",
"267 657 CURVE SMOOTH",
"267 1028 OFFCURVE",
"351 1214 OFFCURVE",
"517 1214 CURVE SMOOTH",
"735 1214 OFFCURVE",
"769 867 OFFCURVE",
"769 657 CURVE SMOOTH"
);
}
);
vertWidth = 0;
width = 1038;
},
{
layerId = "0032BCCA-E182-473F-BEC5-A72B788B9C41";
paths = (
{
closed = 1;
nodes = (
"1017 1002 OFFCURVE",
"876 1299 OFFCURVE",
"540 1299 CURVE SMOOTH",
"206 1299 OFFCURVE",
"67 1002 OFFCURVE",
"67 657 CURVE SMOOTH",
"67 311 OFFCURVE",
"206 17 OFFCURVE",
"540 17 CURVE SMOOTH",
"876 17 OFFCURVE",
"1017 311 OFFCURVE",
"1017 657 CURVE SMOOTH"
);
},
{
closed = 1;
nodes = (
"748 497 OFFCURVE",
"739 126 OFFCURVE",
"540 126 CURVE SMOOTH",
"343 126 OFFCURVE",
"336 497 OFFCURVE",
"336 657 CURVE SMOOTH",
"336 818 OFFCURVE",
"343 1192 OFFCURVE",
"540 1192 CURVE SMOOTH",
"739 1192 OFFCURVE",
"748 818 OFFCURVE",
"748 657 CURVE SMOOTH"
);
}
);
vertWidth = 0;
width = 1082;
}
);
unicode = 0030;
},
{
glyphname = one;
layers = (
{
layerId = "3590996D-50CB-43A2-BF30-26B998A874F2";
paths = (
{
closed = 1;
nodes = (
"822 123 LINE",
"649 130 LINE SMOOTH",
"622 131 OFFCURVE",
"608 144 OFFCURVE",
"608 170 CURVE SMOOTH",
"608 1306 LINE",
"538 1306 LINE",
"140 1183 LINE",
"140 1099 LINE",
"426 1150 LINE",
"426 170 LINE SMOOTH",
"426 144 OFFCURVE",
"412 131 OFFCURVE",
"385 130 CURVE SMOOTH",
"199 123 LINE",
"199 40 LINE",
"822 40 LINE"
);
}
);
vertWidth = 0;
width = 1038;
},
{
layerId = "0032BCCA-E182-473F-BEC5-A72B788B9C41";
paths = (
{
closed = 1;
nodes = (
"857 135 LINE",
"712 142 LINE SMOOTH",
"689 143 OFFCURVE",
"670 160 OFFCURVE",
"670 182 CURVE SMOOTH",
"670 1306 LINE",
"535 1306 LINE",
"137 1162 LINE",
"137 1065 LINE",
"411 1104 LINE",
"411 182 LINE SMOOTH",
"411 160 OFFCURVE",
"392 143 OFFCURVE",
"371 142 CURVE SMOOTH",
"212 135 LINE",
"212 40 LINE",
"857 40 LINE"
);
}
);
vertWidth = 0;
width = 1082;
}
);
unicode = 0031;
},
{
glyphname = two;
layers = (
{
layerId = "3590996D-50CB-43A2-BF30-26B998A874F2";
paths = (
{
closed = 1;
nodes = (
"951 353 LINE",
"860 353 LINE",
"828 195 LINE",
"282 195 LINE",
"639 461 OFFCURVE",
"929 720 OFFCURVE",
"929 947 CURVE SMOOTH",
"929 1166 OFFCURVE",
"753 1306 OFFCURVE",
"517 1306 CURVE SMOOTH",
"331 1306 OFFCURVE",
"112 1206 OFFCURVE",
"112 1032 CURVE SMOOTH",
"112 966 OFFCURVE",
"160 923 OFFCURVE",
"223 923 CURVE SMOOTH",
"258 923 OFFCURVE",
"289 934 OFFCURVE",
"313 954 CURVE",
"313 1159 LINE",
"365 1187 OFFCURVE",
"406 1206 OFFCURVE",
"466 1206 CURVE SMOOTH",
"617 1206 OFFCURVE",
"730 1099 OFFCURVE",
"730 928 CURVE SMOOTH",
"730 686 OFFCURVE",
"445 441 OFFCURVE",
"86 163 CURVE",
"86 40 LINE",
"951 40 LINE"
);
}
);
vertWidth = 0;
width = 1038;
},
{
layerId = "0032BCCA-E182-473F-BEC5-A72B788B9C41";
paths = (
{
closed = 1;
nodes = (
"1001 401 LINE",
"883 401 LINE",
"848 239 LINE",
"324 239 LINE",
"689 478 OFFCURVE",
"962 678 OFFCURVE",
"962 941 CURVE SMOOTH",
"962 1162 OFFCURVE",
"778 1306 OFFCURVE",
"544 1306 CURVE SMOOTH",
"383 1306 OFFCURVE",
"94 1243 OFFCURVE",
"94 1011 CURVE SMOOTH",
"94 930 OFFCURVE",
"142 875 OFFCURVE",
"232 875 CURVE SMOOTH",
"276 875 OFFCURVE",
"329 895 OFFCURVE",
"357 910 CURVE",
"357 1159 LINE",
"407 1178 OFFCURVE",
"433 1183 OFFCURVE",
"463 1183 CURVE SMOOTH",
"603 1183 OFFCURVE",
"691 1070 OFFCURVE",
"691 925 CURVE SMOOTH",
"691 701 OFFCURVE",
"486 486 OFFCURVE",
"79 193 CURVE",
"79 40 LINE",
"1001 40 LINE"
);
}
);
vertWidth = 0;
width = 1082;
}
);
unicode = 0032;
},
{
glyphname = three;
layers = (
{
layerId = "3590996D-50CB-43A2-BF30-26B998A874F2";
paths = (
{
closed = 1;
nodes = (
"951 576 OFFCURVE",
"800 681 OFFCURVE",
"619 691 CURVE",
"809 744 OFFCURVE",
"904 843 OFFCURVE",
"904 988 CURVE SMOOTH",
"904 1190 OFFCURVE",
"731 1306 OFFCURVE",
"526 1306 CURVE SMOOTH",
"349 1306 OFFCURVE",
"118 1217 OFFCURVE",
"118 1048 CURVE SMOOTH",
"118 980 OFFCURVE",
"154 945 OFFCURVE",
"225 945 CURVE SMOOTH",
"249 945 OFFCURVE",
"276 953 OFFCURVE",
"308 969 CURVE",
"308 1153 LINE",
"357 1187 OFFCURVE",
"413 1205 OFFCURVE",
"473 1205 CURVE SMOOTH",
"614 1205 OFFCURVE",
"715 1107 OFFCURVE",
"715 963 CURVE SMOOTH",
"715 799 OFFCURVE",
"576 729 OFFCURVE",
"420 729 CURVE SMOOTH",
"405 729 OFFCURVE",
"389 730 OFFCURVE",
"373 731 CURVE",
"373 617 LINE",
"408 621 OFFCURVE",
"445 624 OFFCURVE",
"485 624 CURVE SMOOTH",
"638 624 OFFCURVE",
"761 550 OFFCURVE",
"761 392 CURVE SMOOTH",
"761 239 OFFCURVE",
"641 103 OFFCURVE",
"473 103 CURVE SMOOTH",
"422 103 OFFCURVE",
"368 119 OFFCURVE",
"313 151 CURVE",
"258 314 LINE",
"247 323 OFFCURVE",
"226 327 OFFCURVE",
"195 327 CURVE SMOOTH",
"119 327 OFFCURVE",
"86 276 OFFCURVE",
"86 228 CURVE SMOOTH",
"86 83 OFFCURVE",
"323 10 OFFCURVE",
"468 10 CURVE SMOOTH",
"711 10 OFFCURVE",
"951 149 OFFCURVE",
"951 392 CURVE SMOOTH"
);
}
);
vertWidth = 0;
width = 1038;
},
{
layerId = "0032BCCA-E182-473F-BEC5-A72B788B9C41";
paths = (
{
closed = 1;
nodes = (
"1001 665 OFFCURVE",
"691 691 OFFCURVE",
"643 691 CURVE",
"693 696 OFFCURVE",
"957 747 OFFCURVE",
"957 982 CURVE SMOOTH",
"957 1203 OFFCURVE",
"739 1306 OFFCURVE",
"538 1306 CURVE SMOOTH",
"306 1306 OFFCURVE",
"111 1194 OFFCURVE",
"111 1041 CURVE SMOOTH",
"111 951 OFFCURVE",
"177 908 OFFCURVE",
"255 908 CURVE SMOOTH",
"283 908 OFFCURVE",
"320 912 OFFCURVE",
"354 934 CURVE",
"354 1160 LINE",
"381 1170 OFFCURVE",
"426 1183 OFFCURVE",
"452 1183 CURVE SMOOTH",
"586 1183 OFFCURVE",
"688 1079 OFFCURVE",
"688 962 CURVE SMOOTH",
"688 784 OFFCURVE",
"533 735 OFFCURVE",
"394 735 CURVE SMOOTH",
"378 735 OFFCURVE",
"363 735 OFFCURVE",
"343 737 CURVE",
"343 599 LINE",
"375 603 OFFCURVE",
"432 608 OFFCURVE",
"472 608 CURVE SMOOTH",
"643 608 OFFCURVE",
"730 499 OFFCURVE",
"730 383 CURVE SMOOTH",
"730 239 OFFCURVE",
"616 125 OFFCURVE",
"489 125 CURVE SMOOTH",
"438 125 OFFCURVE",
"384 144 OFFCURVE",
"354 156 CURVE",
"295 364 LINE",
"274 374 OFFCURVE",
"248 381 OFFCURVE",
"216 381 CURVE SMOOTH",
"158 381 OFFCURVE",
"79 357 OFFCURVE",
"79 254 CURVE SMOOTH",
"79 132 OFFCURVE",
"230 10 OFFCURVE",
"470 10 CURVE SMOOTH",
"744 10 OFFCURVE",
"1001 154 OFFCURVE",
"1001 394 CURVE SMOOTH"
);
}
);
vertWidth = 0;
width = 1082;
}
);
unicode = 0033;
},
{
glyphname = four;
layers = (
{
layerId = "3590996D-50CB-43A2-BF30-26B998A874F2";
paths = (
{
closed = 1;
nodes = (
"964 532 LINE",
"807 532 LINE",
"807 1306 LINE",
"679 1306 LINE",
"74 534 LINE",
"74 407 LINE",
"634 407 LINE",
"634 10 LINE",
"807 10 LINE",
"807 407 LINE",
"964 407 LINE"
);
},
{
closed = 1;
nodes = (
"220 532 LINE",
"634 1070 LINE",
"634 532 LINE"
);
}
);
vertWidth = 0;
width = 1038;
},
{
layerId = "0032BCCA-E182-473F-BEC5-A72B788B9C41";
paths = (
{
closed = 1;
nodes = (
"1017 536 LINE",
"867 536 LINE",
"867 1306 LINE",
"667 1306 LINE",
"67 543 LINE",
"67 385 LINE",
"632 385 LINE",
"632 10 LINE",
"867 10 LINE",
"867 386 LINE",
"1017 386 LINE"
);
},
{
closed = 1;
nodes = (
"245 536 LINE",
"632 1021 LINE",
"632 536 LINE"
);
}
);
vertWidth = 0;
width = 1082;
}
);
unicode = 0034;
},
{
glyphname = five;
layers = (
{
layerId = "3590996D-50CB-43A2-BF30-26B998A874F2";
paths = (
{
closed = 1;
nodes = (
"953 311 OFFCURVE",
"909 207 OFFCURVE",
"820 131 CURVE SMOOTH",
"727 51 OFFCURVE",
"598 10 OFFCURVE",
"433 10 CURVE SMOOTH",
"341 10 OFFCURVE",
"259 35 OFFCURVE",
"186 83 CURVE SMOOTH",
"117 129 OFFCURVE",
"83 178 OFFCURVE",
"83 228 CURVE SMOOTH",
"83 297 OFFCURVE",
"121 332 OFFCURVE",
"199 332 CURVE SMOOTH",
"211 332 OFFCURVE",
"227 329 OFFCURVE",
"248 323 CURVE",
"319 154 LINE",
"356 119 OFFCURVE",
"404 101 OFFCURVE",
"461 101 CURVE SMOOTH",
"552 101 OFFCURVE",
"627 134 OFFCURVE",
"686 199 CURVE SMOOTH",
"739 258 OFFCURVE",
"765 323 OFFCURVE",
"765 395 CURVE SMOOTH",
"765 494 OFFCURVE",
"734 571 OFFCURVE",
"674 625 CURVE SMOOTH",
"618 674 OFFCURVE",
"544 700 OFFCURVE",
"450 700 CURVE SMOOTH",
"375 700 OFFCURVE",
"278 679 OFFCURVE",
"157 638 CURVE",
"157 1277 LINE",
"868 1277 LINE",
"868 1120 LINE",
"287 1120 LINE",
"287 770 LINE",
"278 770 OFFCURVE",
"304 778 OFFCURVE",
"366 793 CURVE SMOOTH",
"428 809 OFFCURVE",
"485 818 OFFCURVE",
"536 818 CURVE SMOOTH",
"665 818 OFFCURVE",
"767 784 OFFCURVE",
"841 717 CURVE SMOOTH",
"916 650 OFFCURVE",
"953 557 OFFCURVE",
"953 440 CURVE SMOOTH"
);
}
);
vertWidth = 0;
width = 1038;
},
{
layerId = "0032BCCA-E182-473F-BEC5-A72B788B9C41";
paths = (
{
closed = 1;
nodes = (
"1008 672 OFFCURVE",
"820 819 OFFCURVE",
"556 819 CURVE SMOOTH",
"433 819 OFFCURVE",
"302 775 OFFCURVE",
"302 775 CURVE",
"302 1072 LINE",
"938 1072 LINE",
"938 1277 LINE",
"146 1277 LINE",
"146 631 LINE",
"146 631 OFFCURVE",
"292 661 OFFCURVE",
"417 661 CURVE SMOOTH",
"598 661 OFFCURVE",
"744 560 OFFCURVE",
"744 395 CURVE SMOOTH",
"744 309 OFFCURVE",
"661 121 OFFCURVE",
"448 121 CURVE SMOOTH",
"429 121 OFFCURVE",
"352 135 OFFCURVE",
"352 135 CURVE",
"293 355 LINE",
"260 366 OFFCURVE",
"234 372 OFFCURVE",
"210 372 CURVE SMOOTH",
"121 372 OFFCURVE",
"76 307 OFFCURVE",
"76 252 CURVE SMOOTH",
"76 93 OFFCURVE",
"269 10 OFFCURVE",
"457 10 CURVE SMOOTH",
"739 10 OFFCURVE",
"1008 180 OFFCURVE",
"1008 458 CURVE SMOOTH"
);
}
);
vertWidth = 0;
width = 1082;
}
);
unicode = 0035;
},
{
glyphname = six;
layers = (
{
layerId = "3590996D-50CB-43A2-BF30-26B998A874F2";
paths = (
{
closed = 1;
nodes = (
"964 689 OFFCURVE",
"808 845 OFFCURVE",
"580 845 CURVE SMOOTH",
"464 845 OFFCURVE",
"362 807 OFFCURVE",
"273 729 CURVE",
"308 998 OFFCURVE",
"489 1195 OFFCURVE",
"748 1195 CURVE SMOOTH",
"769 1195 OFFCURVE",
"790 1194 OFFCURVE",
"811 1192 CURVE",
"811 1306 LINE",
"344 1306 OFFCURVE",
"74 1017 OFFCURVE",
"74 569 CURVE SMOOTH",
"74 248 OFFCURVE",
"200 10 OFFCURVE",
"516 10 CURVE SMOOTH",
"772 10 OFFCURVE",
"964 197 OFFCURVE",
"964 462 CURVE SMOOTH"
);
},
{
closed = 1;
nodes = (
"776 258 OFFCURVE",
"696 107 OFFCURVE",
"516 107 CURVE SMOOTH",
"347 107 OFFCURVE",
"264 249 OFFCURVE",
"264 532 CURVE SMOOTH",
"264 575 OFFCURVE",
"265 608 OFFCURVE",
"267 633 CURVE",
"347 695 OFFCURVE",
"430 726 OFFCURVE",
"516 726 CURVE SMOOTH",
"687 726 OFFCURVE",
"776 606 OFFCURVE",
"776 438 CURVE SMOOTH"
);
}
);
vertWidth = 0;
width = 1038;
},
{
layerId = "0032BCCA-E182-473F-BEC5-A72B788B9C41";
paths = (
{
closed = 1;
nodes = (
"1017 659 OFFCURVE",
"888 858 OFFCURVE",
"630 858 CURVE SMOOTH",
"515 858 OFFCURVE",
"400 806 OFFCURVE",
"345 766 CURVE",
"382 1006 OFFCURVE",
"512 1153 OFFCURVE",
"779 1171 CURVE",
"806 1168 OFFCURVE",
"833 1165 OFFCURVE",
"860 1162 CURVE",
"860 1306 LINE",
"377 1306 OFFCURVE",
"67 1054 OFFCURVE",
"67 576 CURVE SMOOTH",
"67 211 OFFCURVE",
"248 10 OFFCURVE",
"559 10 CURVE SMOOTH",
"807 10 OFFCURVE",
"1017 198 OFFCURVE",
"1017 485 CURVE SMOOTH"
);
},
{
closed = 1;
nodes = (
"754 272 OFFCURVE",
"689 130 OFFCURVE",
"561 130 CURVE SMOOTH",
"377 130 OFFCURVE",
"329 367 OFFCURVE",
"329 556 CURVE SMOOTH",
"329 595 OFFCURVE",
"331 631 OFFCURVE",
"334 663 CURVE",
"366 679 OFFCURVE",
"436 701 OFFCURVE",
"512 701 CURVE SMOOTH",
"679 701 OFFCURVE",
"754 591 OFFCURVE",
"754 429 CURVE SMOOTH"
);
}
);
vertWidth = 0;
width = 1082;
}
);
unicode = 0036;
},
{
glyphname = seven;
layers = (
{
layerId = "3590996D-50CB-43A2-BF30-26B998A874F2";
paths = (
{
closed = 1;
nodes = (
"960 1277 LINE",
"77 1277 LINE",
"77 953 LINE",
"171 953 LINE",
"201 1120 LINE",
"769 1120 LINE",
"160 10 LINE",
"355 10 LINE",
"355 71 LINE",
"960 1174 LINE"
);
}
);
vertWidth = 0;
width = 1038;
},
{
layerId = "0032BCCA-E182-473F-BEC5-A72B788B9C41";
paths = (
{
closed = 1;
nodes = (
"1013 1277 LINE",
"68 1277 LINE",
"68 884 LINE",
"197 884 LINE",
"225 1055 LINE",
"758 1055 LINE",
"157 10 LINE",
"392 10 LINE",
"392 66 LINE",
"1013 1146 LINE"
);
}
);
vertWidth = 0;
width = 1082;
}
);
unicode = 0037;
},
{
glyphname = eight;
layers = (
{
layerId = "3590996D-50CB-43A2-BF30-26B998A874F2";
paths = (
{
closed = 1;
nodes = (
"962 520 OFFCURVE",
"870 625 OFFCURVE",
"688 691 CURVE",
"838 764 OFFCURVE",
"913 864 OFFCURVE",
"913 989 CURVE SMOOTH",
"913 1187 OFFCURVE",
"719 1306 OFFCURVE",
"517 1306 CURVE SMOOTH",
"291 1306 OFFCURVE",
"123 1182 OFFCURVE",
"123 960 CURVE SMOOTH",
"123 830 OFFCURVE",
"220 727 OFFCURVE",
"337 680 CURVE",
"162 613 OFFCURVE",
"74 511 OFFCURVE",
"74 372 CURVE SMOOTH",
"74 137 OFFCURVE",
"276 10 OFFCURVE",
"517 10 CURVE SMOOTH",
"749 10 OFFCURVE",
"962 144 OFFCURVE",
"962 376 CURVE SMOOTH"
);
},
{
closed = 1;
nodes = (
"742 873 OFFCURVE",
"697 791 OFFCURVE",
"608 726 CURVE",
"468 777 OFFCURVE",
"306 853 OFFCURVE",
"306 1002 CURVE SMOOTH",
"306 1114 OFFCURVE",
"390 1212 OFFCURVE",
"517 1212 CURVE SMOOTH",
"646 1212 OFFCURVE",
"742 1120 OFFCURVE",
"742 972 CURVE SMOOTH"
);
},
{
closed = 1;
nodes = (
"776 207 OFFCURVE",
"660 110 OFFCURVE",
"517 110 CURVE SMOOTH",
"338 110 OFFCURVE",
"245 226 OFFCURVE",
"245 386 CURVE SMOOTH",
"245 495 OFFCURVE",
"301 579 OFFCURVE",
"411 639 CURVE",
"595 567 OFFCURVE",
"776 494 OFFCURVE",
"776 346 CURVE SMOOTH"
);
}
);
vertWidth = 0;
width = 1038;
},
{
layerId = "0032BCCA-E182-473F-BEC5-A72B788B9C41";
paths = (
{
closed = 1;
nodes = (
"1015 619 OFFCURVE",
"789 680 OFFCURVE",
"739 698 CURVE",
"832 742 OFFCURVE",
"967 807 OFFCURVE",
"967 982 CURVE SMOOTH",
"967 1201 OFFCURVE",
"761 1306 OFFCURVE",
"568 1306 CURVE SMOOTH",
"352 1306 OFFCURVE",
"116 1213 OFFCURVE",
"116 934 CURVE SMOOTH",
"116 781 OFFCURVE",
"248 685 OFFCURVE",
"322 657 CURVE",
"230 629 OFFCURVE",
"67 573 OFFCURVE",
"67 374 CURVE SMOOTH",
"67 165 OFFCURVE",
"262 10 OFFCURVE",
"529 10 CURVE SMOOTH",
"778 10 OFFCURVE",
"1015 128 OFFCURVE",
"1015 379 CURVE SMOOTH"
);
},
{
closed = 1;
nodes = (
"741 858 OFFCURVE",
"688 781 OFFCURVE",
"651 742 CURVE",
"512 803 OFFCURVE",
"369 866 OFFCURVE",
"369 1013 CURVE SMOOTH",
"369 1111 OFFCURVE",
"448 1190 OFFCURVE",
"545 1190 CURVE SMOOTH",
"663 1190 OFFCURVE",
"741 1081 OFFCURVE",
"741 967 CURVE SMOOTH"
);
},
{
closed = 1;
nodes = (
"765 195 OFFCURVE",
"658 128 OFFCURVE",
"544 128 CURVE SMOOTH",
"411 128 OFFCURVE",
"302 248 OFFCURVE",
"302 392 CURVE SMOOTH",
"302 515 OFFCURVE",
"387 582 OFFCURVE",
"409 611 CURVE",
"524 557 OFFCURVE",
"765 495 OFFCURVE",
"765 314 CURVE SMOOTH"
);
}
);
vertWidth = 0;
width = 1082;
}
);
unicode = 0038;
},
{
glyphname = nine;
layers = (
{
layerId = "3590996D-50CB-43A2-BF30-26B998A874F2";
paths = (
{
closed = 1;
nodes = (
"964 1065 OFFCURVE",
"838 1306 OFFCURVE",
"520 1306 CURVE SMOOTH",
"266 1306 OFFCURVE",
"74 1120 OFFCURVE",
"74 853 CURVE SMOOTH",
"74 631 OFFCURVE",
"225 471 OFFCURVE",
"457 471 CURVE SMOOTH",
"573 471 OFFCURVE",
"676 510 OFFCURVE",
"765 587 CURVE",
"729 319 OFFCURVE",
"545 114 OFFCURVE",
"287 123 CURVE",
"225 125 LINE",
"225 10 LINE",
"679 10 OFFCURVE",
"964 293 OFFCURVE",
"964 747 CURVE SMOOTH"
);
},
{
closed = 1;
nodes = (
"772 742 OFFCURVE",
"771 709 OFFCURVE",
"769 683 CURVE",
"688 621 OFFCURVE",
"606 591 OFFCURVE",
"520 591 CURVE SMOOTH",
"348 591 OFFCURVE",
"260 707 OFFCURVE",
"260 879 CURVE SMOOTH",
"260 1058 OFFCURVE",
"339 1210 OFFCURVE",
"520 1210 CURVE SMOOTH",
"688 1210 OFFCURVE",
"772 1068 OFFCURVE",
"772 784 CURVE SMOOTH"
);
}
);
vertWidth = 0;
width = 1038;
},
{
layerId = "0032BCCA-E182-473F-BEC5-A72B788B9C41";
paths = (
{
closed = 1;
nodes = (
"1017 1104 OFFCURVE",
"833 1306 OFFCURVE",
"526 1306 CURVE SMOOTH",
"276 1306 OFFCURVE",
"67 1116 OFFCURVE",
"67 831 CURVE SMOOTH",
"67 656 OFFCURVE",
"193 457 OFFCURVE",
"454 457 CURVE SMOOTH",
"569 457 OFFCURVE",
"683 509 OFFCURVE",
"737 548 CURVE",
"700 309 OFFCURVE",
"571 163 OFFCURVE",
"304 145 CURVE",
"223 154 LINE",
"223 10 LINE",
"701 10 OFFCURVE",
"1017 256 OFFCURVE",
"1017 738 CURVE SMOOTH"
);
},
{
closed = 1;
nodes = (
"718 635 OFFCURVE",
"647 613 OFFCURVE",
"571 613 CURVE SMOOTH",
"406 613 OFFCURVE",
"330 724 OFFCURVE",
"330 886 CURVE SMOOTH",
"330 1043 OFFCURVE",
"394 1187 OFFCURVE",
"524 1187 CURVE SMOOTH",
"709 1187 OFFCURVE",
"755 944 OFFCURVE",
"755 752 CURVE SMOOTH",
"755 716 OFFCURVE",
"754 682 OFFCURVE",
"751 652 CURVE"
);
}
);
vertWidth = 0;
width = 1082;
}
);
unicode = 0039;
},
{
glyphname = colon;
layers = (
{
layerId = "3590996D-50CB-43A2-BF30-26B998A874F2";
paths = (
{
closed = 1;
nodes = (
"361 893 OFFCURVE",
"307 950 OFFCURVE",
"236 950 CURVE SMOOTH",
"167 950 OFFCURVE",
"112 896 OFFCURVE",
"112 827 CURVE SMOOTH",
"112 757 OFFCURVE",
"167 703 OFFCURVE",
"236 703 CURVE SMOOTH",
"307 703 OFFCURVE",
"361 760 OFFCURVE",
"361 827 CURVE SMOOTH"
);
},
{
closed = 1;
nodes = (
"361 208 OFFCURVE",
"307 265 OFFCURVE",
"236 265 CURVE SMOOTH",
"167 265 OFFCURVE",
"112 211 OFFCURVE",
"112 142 CURVE SMOOTH",
"112 72 OFFCURVE",
"167 18 OFFCURVE",
"236 18 CURVE SMOOTH",
"307 18 OFFCURVE",
"361 75 OFFCURVE",
"361 142 CURVE SMOOTH"
);
}
);
vertWidth = 0;
width = 516;
},
{
layerId = "0032BCCA-E182-473F-BEC5-A72B788B9C41";
paths = (
{
closed = 1;
nodes = (
"424 256 OFFCURVE",
"357 325 OFFCURVE",
"271 325 CURVE SMOOTH",
"186 325 OFFCURVE",
"116 256 OFFCURVE",
"116 170 CURVE SMOOTH",
"116 86 OFFCURVE",
"186 17 OFFCURVE",
"271 17 CURVE SMOOTH",
"357 17 OFFCURVE",
"424 86 OFFCURVE",
"424 170 CURVE SMOOTH"
);
},
{
closed = 1;
nodes = (
"424 891 OFFCURVE",
"357 962 OFFCURVE",
"271 962 CURVE SMOOTH",
"186 962 OFFCURVE",
"116 891 OFFCURVE",
"116 807 CURVE SMOOTH",
"116 720 OFFCURVE",
"186 654 OFFCURVE",
"271 654 CURVE SMOOTH",
"357 654 OFFCURVE",
"424 720 OFFCURVE",
"424 807 CURVE SMOOTH"
);
}
);
vertWidth = 0;
width = 586;
}
);
unicode = 003A;
},
{
glyphname = semicolon;
layers = (
{
layerId = "3590996D-50CB-43A2-BF30-26B998A874F2";
paths = (
{
closed = 1;
nodes = (
"359 893 OFFCURVE",
"308 950 OFFCURVE",
"238 950 CURVE SMOOTH",
"167 950 OFFCURVE",
"112 894 OFFCURVE",
"112 827 CURVE SMOOTH",
"112 757 OFFCURVE",
"167 703 OFFCURVE",
"236 703 CURVE SMOOTH",
"305 703 OFFCURVE",
"359 758 OFFCURVE",
"359 827 CURVE SMOOTH"
);
},
{
closed = 1;
nodes = (
"380 196 OFFCURVE",
"328 265 OFFCURVE",
"227 265 CURVE SMOOTH",
"159 265 OFFCURVE",
"112 201 OFFCURVE",
"112 138 CURVE SMOOTH",
"112 103 OFFCURVE",
"123 75 OFFCURVE",
"146 53 CURVE",
"262 53 LINE",
"262 -99 OFFCURVE",
"207 -173 OFFCURVE",
"59 -207 CURVE",
"59 -273 LINE",
"241 -256 OFFCURVE",
"380 -119 OFFCURVE",
"380 58 CURVE SMOOTH"
);
}
);
vertWidth = 0;
width = 516;
},
{
layerId = "0032BCCA-E182-473F-BEC5-A72B788B9C41";
paths = (
{
closed = 1;
nodes = (
"424 891 OFFCURVE",
"357 962 OFFCURVE",
"271 962 CURVE SMOOTH",
"186 962 OFFCURVE",
"116 891 OFFCURVE",
"116 807 CURVE SMOOTH",
"116 720 OFFCURVE",
"186 654 OFFCURVE",
"271 654 CURVE SMOOTH",
"357 654 OFFCURVE",
"424 720 OFFCURVE",
"424 807 CURVE SMOOTH"
);
},
{
closed = 1;
nodes = (
"446 256 OFFCURVE",
"382 325 OFFCURVE",
"271 325 CURVE SMOOTH",
"192 325 OFFCURVE",
"116 263 OFFCURVE",
"116 170 CURVE SMOOTH",
"116 134 OFFCURVE",
"129 88 OFFCURVE",
"174 53 CURVE",
"285 53 LINE",
"285 -120 OFFCURVE",
"158 -180 OFFCURVE",
"65 -194 CURVE",
"65 -284 LINE",
"241 -271 OFFCURVE",
"446 -80 OFFCURVE",
"446 149 CURVE SMOOTH"
);
}
);
vertWidth = 0;
width = 586;
}
);
unicode = 003B;
},
{
glyphname = less;
layers = (
{
layerId = "3590996D-50CB-43A2-BF30-26B998A874F2";
paths = (
{
closed = 1;
nodes = (
"1298 224 LINE",
"398 589 LINE",
"1298 956 LINE",
"1298 1070 LINE",
"238 636 LINE",
"238 541 LINE",
"1298 108 LINE"
);
}
);
vertWidth = 0;
width = 1535;
},
{
layerId = "0032BCCA-E182-473F-BEC5-A72B788B9C41";
paths = (
{
closed = 1;
nodes = (
"1298 224 LINE",
"398 589 LINE",
"1298 956 LINE",
"1298 1070 LINE",
"238 636 LINE",
"238 541 LINE",
"1298 108 LINE"
);
}
);
vertWidth = 0;
width = 1535;
}
);
unicode = 003C;
},
{
glyphname = equal;
layers = (
{
layerId = "3590996D-50CB-43A2-BF30-26B998A874F2";
paths = (
{
closed = 1;
nodes = (
"1307 814 LINE",
"229 814 LINE",
"229 709 LINE",
"1307 709 LINE"
);
},
{
closed = 1;
nodes = (
"1307 469 LINE",
"229 469 LINE",
"229 364 LINE",
"1307 364 LINE"
);
}
);
vertWidth = 0;
width = 1535;
},
{
layerId = "0032BCCA-E182-473F-BEC5-A72B788B9C41";
paths = (
{
closed = 1;
nodes = (
"1307 814 LINE",
"229 814 LINE",
"229 709 LINE",
"1307 709 LINE"
);
},
{
closed = 1;
nodes = (
"1307 469 LINE",
"229 469 LINE",
"229 364 LINE",
"1307 364 LINE"
);
}
);
vertWidth = 0;
width = 1535;
}
);
unicode = 003D;
},
{
glyphname = greater;
layers = (
{
layerId = "3590996D-50CB-43A2-BF30-26B998A874F2";
paths = (
{
closed = 1;
nodes = (
"1298 636 LINE",
"238 1070 LINE",
"238 956 LINE",
"1138 589 LINE",
"238 224 LINE",
"238 108 LINE",
"1298 541 LINE"
);
}
);
vertWidth = 0;
width = 1535;
},
{
layerId = "0032BCCA-E182-473F-BEC5-A72B788B9C41";
paths = (
{
closed = 1;
nodes = (
"1298 636 LINE",
"238 1070 LINE",
"238 956 LINE",
"1138 589 LINE",
"238 224 LINE",
"238 108 LINE",
"1298 541 LINE"
);
}
);
vertWidth = 0;
width = 1535;
}
);
unicode = 003E;
},
{
glyphname = question;
layers = (
{
layerId = "3590996D-50CB-43A2-BF30-26B998A874F2";
paths = (
{
closed = 1;
nodes = (
"413 1267 OFFCURVE",
"526 1300 OFFCURVE",
"606 1300 CURVE SMOOTH",
"724 1300 OFFCURVE",
"789 1188 OFFCURVE",
"789 1057 CURVE SMOOTH",
"789 897 OFFCURVE",
"461 736 OFFCURVE",
"461 410 CURVE SMOOTH",
"461 362 OFFCURVE",
"468 312 OFFCURVE",
"485 259 CURVE",
"626 173 LINE",
"606 243 OFFCURVE",
"597 305 OFFCURVE",
"597 362 CURVE SMOOTH",
"597 708 OFFCURVE",
"920 784 OFFCURVE",
"920 987 CURVE SMOOTH",
"920 1185 OFFCURVE",
"694 1410 OFFCURVE",
"523 1410 CURVE SMOOTH",
"417 1410 OFFCURVE",
"334 1379 OFFCURVE",
"250 1320 CURVE",
"325 1189 LINE"
);
},
{
closed = 1;
nodes = (
"449 -104 OFFCURVE",
"497 -152 OFFCURVE",
"557 -152 CURVE SMOOTH",
"616 -152 OFFCURVE",
"665 -104 OFFCURVE",
"665 -44 CURVE SMOOTH",
"665 15 OFFCURVE",
"616 64 OFFCURVE",
"557 64 CURVE SMOOTH",
"497 64 OFFCURVE",
"449 15 OFFCURVE",
"449 -44 CURVE SMOOTH"
);
}
);
vertWidth = 0;
width = 1115;
},
{
layerId = "0032BCCA-E182-473F-BEC5-A72B788B9C41";
paths = (
{
closed = 1;
nodes = (
"448 1234 OFFCURVE",
"557 1273 OFFCURVE",
"627 1273 CURVE SMOOTH",
"674 1273 OFFCURVE",
"705 1265 OFFCURVE",
"721 1249 CURVE SMOOTH",
"748 1222 OFFCURVE",
"762 1164 OFFCURVE",
"762 1088 CURVE SMOOTH",
"762 863 OFFCURVE",
"435 786 OFFCURVE",
"435 424 CURVE SMOOTH",
"435 387 OFFCURVE",
"445 331 OFFCURVE",
"472 252 CURVE",
"648 144 LINE",
"631 203 OFFCURVE",
"623 267 OFFCURVE",
"623 335 CURVE SMOOTH",
"623 662 OFFCURVE",
"946 703 OFFCURVE",
"946 966 CURVE SMOOTH",
"946 1071 OFFCURVE",
"876 1190 OFFCURVE",
"781 1285 CURVE SMOOTH",
"692 1375 OFFCURVE",
"586 1436 OFFCURVE",
"503 1436 CURVE SMOOTH",
"381 1436 OFFCURVE",
"296 1408 OFFCURVE",
"221 1355 CURVE",
"344 1143 LINE"
);
},
{
closed = 1;
nodes = (
"437 -93 OFFCURVE",
"490 -146 OFFCURVE",
"557 -146 CURVE SMOOTH",
"622 -146 OFFCURVE",
"677 -93 OFFCURVE",
"677 -26 CURVE SMOOTH",
"677 39 OFFCURVE",
"622 94 OFFCURVE",
"557 94 CURVE SMOOTH",
"490 94 OFFCURVE",
"437 39 OFFCURVE",
"437 -26 CURVE SMOOTH"
);
}
);
vertWidth = 0;
width = 1115;
}
);
unicode = 003F;
},
{
glyphname = question.alt;
layers = (
{
layerId = "3590996D-50CB-43A2-BF30-26B998A874F2";
paths = (
{
closed = 1;
nodes = (
"769 1186 OFFCURVE",
"594 1306 OFFCURVE",
"385 1306 CURVE SMOOTH",
"254 1306 OFFCURVE",
"92 1256 OFFCURVE",
"92 1125 CURVE SMOOTH",
"92 1059 OFFCURVE",
"132 1025 OFFCURVE",
"212 1025 CURVE SMOOTH",
"215 1025 OFFCURVE",
"225 1026 OFFCURVE",
"243 1028 CURVE",
"319 1215 LINE",
"494 1215 OFFCURVE",
"582 1131 OFFCURVE",
"582 962 CURVE SMOOTH",
"582 801 OFFCURVE",
"462 688 OFFCURVE",
"315 638 CURVE",
"315 371 LINE",
"418 371 LINE",
"418 576 LINE",
"604 658 OFFCURVE",
"769 765 OFFCURVE",
"769 976 CURVE SMOOTH"
);
},
{
closed = 1;
nodes = (
"483 195 OFFCURVE",
"433 245 OFFCURVE",
"369 245 CURVE SMOOTH",
"306 245 OFFCURVE",
"256 196 OFFCURVE",
"256 133 CURVE SMOOTH",
"256 70 OFFCURVE",
"306 18 OFFCURVE",
"369 18 CURVE SMOOTH",
"429 18 OFFCURVE",
"483 66 OFFCURVE",
"483 131 CURVE SMOOTH"
);
}
);
vertWidth = 0;
width = 895;
},
{
layerId = "0032BCCA-E182-473F-BEC5-A72B788B9C41";
paths = (
{
closed = 1;
nodes = (
"844 1169 OFFCURVE",
"663 1306 OFFCURVE",
"426 1306 CURVE SMOOTH",
"276 1306 OFFCURVE",
"81 1247 OFFCURVE",
"81 1087 CURVE SMOOTH",
"81 972 OFFCURVE",
"192 969 OFFCURVE",
"239 969 CURVE SMOOTH",
"253 969 OFFCURVE",
"260 971 OFFCURVE",
"262 972 CURVE",
"345 1194 LINE",
"507 1194 OFFCURVE",
"586 1098 OFFCURVE",
"586 960 CURVE SMOOTH",
"586 775 OFFCURVE",
"434 675 OFFCURVE",
"319 650 CURVE",
"319 405 LINE",
"445 405 LINE",
"445 562 LINE",
"617 597 OFFCURVE",
"844 728 OFFCURVE",
"844 956 CURVE SMOOTH"
);
},
{
closed = 1;
nodes = (
"533 242 OFFCURVE",
"472 314 OFFCURVE",
"383 314 CURVE SMOOTH",
"304 314 OFFCURVE",
"241 248 OFFCURVE",
"241 167 CURVE SMOOTH",
"241 88 OFFCURVE",
"302 17 OFFCURVE",
"382 17 CURVE SMOOTH",
"463 17 OFFCURVE",
"533 79 OFFCURVE",
"533 160 CURVE SMOOTH"
);
}
);
vertWidth = 0;
width = 962;
}
);
},
{
glyphname = at;
layers = (
{
layerId = "3590996D-50CB-43A2-BF30-26B998A874F2";
paths = (
{
closed = 1;
nodes = (
"1592 1104 OFFCURVE",
"1339 1313 OFFCURVE",
"963 1313 CURVE SMOOTH",
"515 1313 OFFCURVE",
"134 998 OFFCURVE",
"134 480 CURVE SMOOTH",
"134 57 OFFCURVE",
"445 -242 OFFCURVE",
"868 -242 CURVE SMOOTH",
"1038 -242 OFFCURVE",
"1223 -188 OFFCURVE",
"1426 -80 CURVE",
"1399 -13 LINE",
"1235 -104 OFFCURVE",
"1073 -150 OFFCURVE",
"912 -150 CURVE SMOOTH",
"512 -150 OFFCURVE",
"266 126 OFFCURVE",
"266 513 CURVE SMOOTH",
"266 929 OFFCURVE",
"569 1232 OFFCURVE",
"985 1232 CURVE SMOOTH",
"1286 1232 OFFCURVE",
"1503 1039 OFFCURVE",
"1503 726 CURVE SMOOTH",
"1503 551 OFFCURVE",
"1392 248 OFFCURVE",
"1219 248 CURVE SMOOTH",
"1169 248 OFFCURVE",
"1144 277 OFFCURVE",
"1144 333 CURVE SMOOTH",
"1144 350 OFFCURVE",
"1146 370 OFFCURVE",
"1151 392 CURVE",
"1278 939 LINE",
"1174 939 LINE",
"1140 897 LINE",
"1080 930 OFFCURVE",
"1020 947 OFFCURVE",
"959 947 CURVE SMOOTH",
"710 947 OFFCURVE",
"502 714 OFFCURVE",
"502 446 CURVE SMOOTH",
"502 289 OFFCURVE",
"577 145 OFFCURVE",
"733 145 CURVE SMOOTH",
"809 145 OFFCURVE",
"897 196 OFFCURVE",
"998 296 CURVE",
"998 195 OFFCURVE",
"1046 143 OFFCURVE",
"1142 143 CURVE SMOOTH",
"1403 143 OFFCURVE",
"1592 457 OFFCURVE",
"1592 728 CURVE SMOOTH"
);
},
{
closed = 1;
nodes = (
"1003 383 LINE",
"940 303 OFFCURVE",
"877 263 OFFCURVE",
"815 263 CURVE SMOOTH",
"719 263 OFFCURVE",
"670 330 OFFCURVE",
"670 462 CURVE SMOOTH",
"670 664 OFFCURVE",
"770 870 OFFCURVE",
"968 870 CURVE SMOOTH",
"1026 870 OFFCURVE",
"1086 806 OFFCURVE",
"1077 764 CURVE"
);
}
);
vertWidth = 0;
width = 1725;
},
{
layerId = "0032BCCA-E182-473F-BEC5-A72B788B9C41";
paths = (
{
closed = 1;
nodes = (
"1618 1090 OFFCURVE",
"1362 1306 OFFCURVE",
"962 1306 CURVE SMOOTH",
"517 1306 OFFCURVE",
"107 1011 OFFCURVE",
"107 473 CURVE SMOOTH",
"107 35 OFFCURVE",
"438 -250 OFFCURVE",
"868 -250 CURVE SMOOTH",
"1102 -250 OFFCURVE",
"1289 -170 OFFCURVE",
"1454 -83 CURVE",
"1416 8 LINE",
"1259 -78 OFFCURVE",
"1106 -146 OFFCURVE",
"913 -146 CURVE SMOOTH",
"538 -146 OFFCURVE",
"293 128 OFFCURVE",
"293 506 CURVE SMOOTH",
"293 919 OFFCURVE",
"599 1213 OFFCURVE",
"986 1213 CURVE SMOOTH",
"1213 1213 OFFCURVE",
"1476 1065 OFFCURVE",
"1476 717 CURVE SMOOTH",
"1476 420 OFFCURVE",
"1294 250 OFFCURVE",
"1220 250 CURVE SMOOTH",
"1179 250 OFFCURVE",
"1166 271 OFFCURVE",
"1166 306 CURVE SMOOTH",
"1166 328 OFFCURVE",
"1171 355 OFFCURVE",
"1178 386 CURVE",
"1307 934 LINE",
"1152 934 LINE",
"1128 888 LINE",
"1080 913 OFFCURVE",
"1017 944 OFFCURVE",
"960 944 CURVE SMOOTH",
"693 944 OFFCURVE",
"475 715 OFFCURVE",
"475 440 CURVE SMOOTH",
"475 263 OFFCURVE",
"564 134 OFFCURVE",
"732 134 CURVE SMOOTH",
"826 134 OFFCURVE",
"909 197 OFFCURVE",
"985 261 CURVE",
"995 193 OFFCURVE",
"1030 132 OFFCURVE",
"1143 132 CURVE SMOOTH",
"1360 132 OFFCURVE",
"1618 353 OFFCURVE",
"1618 719 CURVE SMOOTH"
);
},
{
closed = 1;
nodes = (
"976 377 LINE",
"940 331 OFFCURVE",
"884 265 OFFCURVE",
"814 265 CURVE SMOOTH",
"758 265 OFFCURVE",
"697 318 OFFCURVE",
"697 457 CURVE SMOOTH",
"697 685 OFFCURVE",
"820 853 OFFCURVE",
"967 853 CURVE SMOOTH",
"1030 853 OFFCURVE",
"1057 784 OFFCURVE",
"1050 755 CURVE"
);
}
);
vertWidth = 0;
width = 1725;
}
);
unicode = 0040;
},
{
glyphname = A;
layers = (
{
layerId = "3590996D-50CB-43A2-BF30-26B998A874F2";
paths = (
{
closed = 1;
nodes = (
"1233 119 LINE",
"1150 134 LINE SMOOTH",
"1137 136 OFFCURVE",
"1129 139 OFFCURVE",
"1125 143 CURVE SMOOTH",
"1121 146 OFFCURVE",
"1116 155 OFFCURVE",
"1111 169 CURVE SMOOTH",
"684 1306 LINE",
"545 1306 LINE",
"116 142 LINE",
"9 119 LINE",
"9 40 LINE",
"380 40 LINE",
"380 119 LINE",
"271 128 LINE SMOOTH",
"253 129 OFFCURVE",
"244 140 OFFCURVE",
"244 160 CURVE SMOOTH",
"244 161 OFFCURVE",
"244 163 OFFCURVE",
"245 165 CURVE SMOOTH",
"367 497 LINE",
"793 497 LINE",
"920 160 LINE SMOOTH",
"922 155 OFFCURVE",
"920 149 OFFCURVE",
"916 141 CURVE SMOOTH",
"912 133 OFFCURVE",
"906 128 OFFCURVE",
"901 128 CURVE",
"794 119 LINE",
"794 40 LINE",
"1233 40 LINE"
);
},
{
closed = 1;
nodes = (
"400 585 LINE",
"579 1068 LINE",
"760 585 LINE"
);
}
);
vertWidth = 0;
width = 1242;
},
{
layerId = "0032BCCA-E182-473F-BEC5-A72B788B9C41";
paths = (
{
closed = 1;
nodes = (
"1255 134 LINE",
"1185 147 LINE SMOOTH",
"1159 152 OFFCURVE",
"1153 160 OFFCURVE",
"1145 182 CURVE SMOOTH",
"735 1306 LINE",
"526 1306 LINE",
"112 149 LINE",
"9 134 LINE",
"9 40 LINE",
"406 40 LINE",
"406 134 LINE",
"302 147 LINE SMOOTH",
"292 148 OFFCURVE",
"275 162 OFFCURVE",
"275 178 CURVE SMOOTH",
"275 181 OFFCURVE",
"275 183 OFFCURVE",
"276 186 CURVE SMOOTH",
"378 471 LINE",
"772 471 LINE",
"872 179 LINE SMOOTH",
"877 165 OFFCURVE",
"867 148 OFFCURVE",
"855 147 CURVE",
"746 134 LINE",
"746 40 LINE",
"1255 40 LINE"
);
},
{
closed = 1;
nodes = (
"413 580 LINE",
"568 1023 LINE",
"726 580 LINE"
);
}
);
vertWidth = 0;
width = 1264;
}
);
unicode = 0041;
},
{
glyphname = B;
layers = (
{
layerId = "3590996D-50CB-43A2-BF30-26B998A874F2";
paths = (
{
closed = 1;
nodes = (
"1043 505 OFFCURVE",
"1007 581 OFFCURVE",
"934 632 CURVE SMOOTH",
"874 674 OFFCURVE",
"796 696 OFFCURVE",
"702 696 CURVE",
"879 741 OFFCURVE",
"967 836 OFFCURVE",
"967 980 CURVE SMOOTH",
"967 1178 OFFCURVE",
"829 1277 OFFCURVE",
"553 1277 CURVE SMOOTH",
"59 1277 LINE",
"59 1197 LINE",
"157 1190 LINE SMOOTH",
"183 1188 OFFCURVE",
"195 1175 OFFCURVE",
"195 1150 CURVE SMOOTH",
"195 167 LINE SMOOTH",
"195 142 OFFCURVE",
"183 128 OFFCURVE",
"157 126 CURVE SMOOTH",
"59 119 LINE",
"59 40 LINE",
"575 40 LINE SMOOTH",
"827 40 OFFCURVE",
"1043 142 OFFCURVE",
"1043 405 CURVE SMOOTH"
);
},
{
closed = 1;
nodes = (
"769 884 OFFCURVE",
"745 823 OFFCURVE",
"697 783 CURVE SMOOTH",
"646 740 OFFCURVE",
"562 719 OFFCURVE",
"446 719 CURVE SMOOTH",
"434 719 OFFCURVE",
"411 719 OFFCURVE",
"380 720 CURVE",
"380 1187 LINE",
"382 1187 OFFCURVE",
"397 1187 OFFCURVE",
"423 1189 CURVE SMOOTH",
"449 1191 OFFCURVE",
"470 1192 OFFCURVE",
"485 1192 CURVE SMOOTH",
"674 1192 OFFCURVE",
"769 1117 OFFCURVE",
"769 967 CURVE SMOOTH"
);
},
{
closed = 1;
nodes = (
"842 180 OFFCURVE",
"700 130 OFFCURVE",
"494 130 CURVE SMOOTH",
"472 130 OFFCURVE",
"435 132 OFFCURVE",
"380 135 CURVE",
"380 622 LINE",
"441 629 OFFCURVE",
"521 633 OFFCURVE",
"545 633 CURVE SMOOTH",
"743 633 OFFCURVE",
"842 552 OFFCURVE",
"842 390 CURVE SMOOTH"
);
}
);
vertWidth = 0;
width = 1115;
},
{
layerId = "0032BCCA-E182-473F-BEC5-A72B788B9C41";
paths = (
{
closed = 1;
nodes = (
"1110 643 OFFCURVE",
"913 694 OFFCURVE",
"776 698 CURVE",
"835 710 OFFCURVE",
"1038 770 OFFCURVE",
"1038 991 CURVE SMOOTH",
"1038 1249 OFFCURVE",
"778 1277 OFFCURVE",
"645 1277 CURVE SMOOTH",
"51 1277 LINE",
"51 1183 LINE",
"151 1174 LINE",
"174 1171 OFFCURVE",
"192 1157 OFFCURVE",
"192 1133 CURVE SMOOTH",
"192 184 LINE SMOOTH",
"192 160 OFFCURVE",
"174 145 OFFCURVE",
"151 143 CURVE SMOOTH",
"51 134 LINE",
"51 40 LINE",
"684 40 LINE SMOOTH",
"867 40 OFFCURVE",
"1110 54 OFFCURVE",
"1110 399 CURVE SMOOTH"
);
},
{
closed = 1;
nodes = (
"767 831 OFFCURVE",
"712 729 OFFCURVE",
"501 729 CURVE SMOOTH",
"496 729 OFFCURVE",
"472 730 OFFCURVE",
"455 731 CURVE",
"455 1169 LINE",
"490 1172 OFFCURVE",
"517 1174 OFFCURVE",
"531 1174 CURVE SMOOTH",
"728 1174 OFFCURVE",
"767 1070 OFFCURVE",
"767 962 CURVE SMOOTH"
);
},
{
closed = 1;
nodes = (
"833 209 OFFCURVE",
"730 145 OFFCURVE",
"542 145 CURVE SMOOTH",
"534 145 OFFCURVE",
"488 147 OFFCURVE",
"455 149 CURVE",
"455 619 LINE",
"497 620 OFFCURVE",
"529 620 OFFCURVE",
"547 620 CURVE SMOOTH",
"746 620 OFFCURVE",
"833 545 OFFCURVE",
"833 386 CURVE SMOOTH"
);
}
);
vertWidth = 0;
width = 1178;
}
);
unicode = 0042;
},
{
glyphname = C;
layers = (
{
layerId = "3590996D-50CB-43A2-BF30-26B998A874F2";
paths = (
{
closed = 1;
nodes = (
"977 381 LINE",
"934 180 LINE",
"923 127 OFFCURVE",
"795 112 OFFCURVE",
"751 112 CURVE SMOOTH",
"440 112 OFFCURVE",
"284 340 OFFCURVE",
"284 661 CURVE SMOOTH",
"284 966 OFFCURVE",
"435 1203 OFFCURVE",
"726 1203 CURVE SMOOTH",
"780 1203 OFFCURVE",
"936 1175 OFFCURVE",
"946 1113 CURVE SMOOTH",
"973 945 LINE",
"1084 945 LINE",
"1084 1234 LINE",
"928 1282 OFFCURVE",
"806 1306 OFFCURVE",
"717 1306 CURVE SMOOTH",
"331 1306 OFFCURVE",
"72 1047 OFFCURVE",
"72 661 CURVE SMOOTH",
"72 288 OFFCURVE",
"330 10 OFFCURVE",
"715 10 CURVE SMOOTH",
"841 10 OFFCURVE",
"964 35 OFFCURVE",
"1084 82 CURVE",
"1084 381 LINE"
);
}
);
vertWidth = 0;
width = 1156;
},
{
layerId = "0032BCCA-E182-473F-BEC5-A72B788B9C41";
paths = (
{
closed = 1;
nodes = (
"960 407 LINE",
"920 189 LINE",
"902 145 OFFCURVE",
"828 130 OFFCURVE",
"781 130 CURVE SMOOTH",
"472 130 OFFCURVE",
"357 397 OFFCURVE",
"357 656 CURVE SMOOTH",
"357 974 OFFCURVE",
"514 1181 OFFCURVE",
"767 1181 CURVE SMOOTH",
"804 1181 OFFCURVE",
"922 1159 OFFCURVE",
"922 1122 CURVE",
"962 916 LINE",
"1106 916 LINE",
"1106 1229 LINE",
"934 1284 OFFCURVE",
"857 1306 OFFCURVE",
"717 1306 CURVE SMOOTH",
"352 1306 OFFCURVE",
"68 1043 OFFCURVE",
"68 659 CURVE SMOOTH",
"68 279 OFFCURVE",
"337 10 OFFCURVE",
"715 10 CURVE SMOOTH",
"905 10 OFFCURVE",
"1060 66 OFFCURVE",
"1106 84 CURVE",
"1106 407 LINE"
);
}
);
vertWidth = 0;
width = 1173;
}
);
unicode = 0043;
},
{
glyphname = D;
layers = (
{
layerId = "3590996D-50CB-43A2-BF30-26B998A874F2";
paths = (
{
closed = 1;
nodes = (
"1211 1071 OFFCURVE",
"940 1277 OFFCURVE",
"535 1277 CURVE SMOOTH",
"59 1277 LINE",
"59 1197 LINE",
"157 1190 LINE SMOOTH",
"184 1188 OFFCURVE",
"197 1175 OFFCURVE",
"197 1150 CURVE SMOOTH",
"197 167 LINE SMOOTH",
"197 142 OFFCURVE",
"184 128 OFFCURVE",
"157 126 CURVE SMOOTH",
"59 119 LINE",
"59 40 LINE",
"571 40 LINE SMOOTH",
"984 40 OFFCURVE",
"1211 283 OFFCURVE",
"1211 661 CURVE SMOOTH"
);
},
{
closed = 1;
nodes = (
"1003 309 OFFCURVE",
"846 134 OFFCURVE",
"533 130 CURVE SMOOTH",
"383 128 LINE",
"383 1188 LINE",
"524 1188 LINE SMOOTH",
"843 1188 OFFCURVE",
"1003 1011 OFFCURVE",
"1003 657 CURVE SMOOTH"
);
}
);
vertWidth = 0;
width = 1283;
},
{
layerId = "0032BCCA-E182-473F-BEC5-A72B788B9C41";
paths = (
{
closed = 1;
nodes = (
"1266 1032 OFFCURVE",
"1032 1277 OFFCURVE",
"612 1277 CURVE SMOOTH",
"48 1277 LINE",
"48 1183 LINE",
"149 1174 LINE",
"171 1171 OFFCURVE",
"192 1157 OFFCURVE",
"192 1133 CURVE SMOOTH",
"192 184 LINE SMOOTH",
"192 160 OFFCURVE",
"171 145 OFFCURVE",
"149 143 CURVE SMOOTH",
"48 134 LINE",
"48 40 LINE",
"623 40 LINE SMOOTH",
"1013 40 OFFCURVE",
"1266 250 OFFCURVE",
"1266 672 CURVE SMOOTH"
);
},
{
closed = 1;
nodes = (
"969 258 OFFCURVE",
"767 156 OFFCURVE",
"608 152 CURVE SMOOTH",
"455 149 LINE",
"455 1169 LINE",
"571 1169 LINE SMOOTH",
"761 1169 OFFCURVE",
"969 1076 OFFCURVE",
"969 652 CURVE SMOOTH"
);
}
);
vertWidth = 0;
width = 1335;
}
);
unicode = 0044;
},
{
glyphname = E;
layers = (
{
layerId = "3590996D-50CB-43A2-BF30-26B998A874F2";
paths = (
{
closed = 1;
nodes = (
"1016 348 LINE",
"915 348 LINE",
"884 165 LINE SMOOTH",
"880 142 OFFCURVE",
"868 130 OFFCURVE",
"850 130 CURVE SMOOTH",
"382 130 LINE",
"382 638 LINE",
"661 638 LINE SMOOTH",
"679 638 OFFCURVE",
"691 627 OFFCURVE",
"694 604 CURVE SMOOTH",
"711 476 LINE",
"805 476 LINE",
"805 888 LINE",
"711 888 LINE",
"694 761 LINE SMOOTH",
"691 740 OFFCURVE",
"679 729 OFFCURVE",
"661 729 CURVE SMOOTH",
"382 729 LINE",
"382 1188 LINE",
"784 1188 LINE SMOOTH",
"802 1188 OFFCURVE",
"814 1177 OFFCURVE",
"817 1153 CURVE",
"843 1002 LINE",
"954 1002 LINE",
"954 1277 LINE",
"58 1277 LINE",
"58 1197 LINE",
"156 1190 LINE SMOOTH",
"183 1188 OFFCURVE",
"196 1175 OFFCURVE",
"196 1150 CURVE SMOOTH",
"196 167 LINE SMOOTH",
"196 142 OFFCURVE",
"183 128 OFFCURVE",
"156 126 CURVE SMOOTH",
"58 119 LINE",
"58 40 LINE",
"1016 40 LINE"
);
}
);
vertWidth = 0;
width = 1075;
},
{
layerId = "0032BCCA-E182-473F-BEC5-A72B788B9C41";
paths = (
{
closed = 1;
nodes = (
"1047 377 LINE",
"913 377 LINE",
"885 186 LINE SMOOTH",
"883 172 OFFCURVE",
"867 151 OFFCURVE",
"851 151 CURVE SMOOTH",
"450 151 LINE",
"450 620 LINE",
"669 620 LINE SMOOTH",
"686 620 OFFCURVE",
"698 601 OFFCURVE",
"700 587 CURVE SMOOTH",
"717 462 LINE",
"832 462 LINE",
"832 895 LINE",
"717 895 LINE",
"700 770 LINE SMOOTH",
"698 757 OFFCURVE",
"686 737 OFFCURVE",
"669 737 CURVE SMOOTH",
"450 737 LINE",
"450 1169 LINE",
"793 1169 LINE SMOOTH",
"809 1169 OFFCURVE",
"822 1153 OFFCURVE",
"826 1135 CURVE",
"855 982 LINE",
"988 982 LINE",
"988 1277 LINE",
"48 1277 LINE",
"48 1183 LINE",
"149 1174 LINE",
"171 1171 OFFCURVE",
"192 1157 OFFCURVE",
"192 1133 CURVE SMOOTH",
"192 184 LINE SMOOTH",
"192 160 OFFCURVE",
"171 145 OFFCURVE",
"149 143 CURVE SMOOTH",
"48 134 LINE",
"48 40 LINE",
"1047 40 LINE"
);
}
);
vertWidth = 0;
width = 1102;
}
);
unicode = 0045;
},
{
glyphname = F;
layers = (
{
layerId = "3590996D-50CB-43A2-BF30-26B998A874F2";
paths = (
{
closed = 1;
nodes = (
"942 1277 LINE",
"46 1277 LINE",
"46 1197 LINE",
"158 1190 LINE SMOOTH",
"184 1188 OFFCURVE",
"197 1175 OFFCURVE",
"197 1150 CURVE SMOOTH",
"197 167 LINE SMOOTH",
"197 142 OFFCURVE",
"184 128 OFFCURVE",
"158 126 CURVE SMOOTH",
"61 119 LINE",
"61 40 LINE",
"545 40 LINE",
"545 119 LINE",
"422 126 LINE SMOOTH",
"396 127 OFFCURVE",
"383 142 OFFCURVE",
"383 167 CURVE SMOOTH",
"383 617 LINE",
"666 617 LINE SMOOTH",
"685 617 OFFCURVE",
"695 606 OFFCURVE",
"698 584 CURVE SMOOTH",
"715 455 LINE",
"807 455 LINE",
"807 870 LINE",
"715 870 LINE",
"698 740 LINE SMOOTH",
"695 718 OFFCURVE",
"685 707 OFFCURVE",
"666 707 CURVE SMOOTH",
"383 707 LINE",
"383 1187 LINE",
"776 1187 LINE SMOOTH",
"793 1187 OFFCURVE",
"803 1176 OFFCURVE",
"807 1153 CURVE SMOOTH",
"833 984 LINE",
"942 984 LINE"
);
}
);
vertWidth = 0;
width = 996;
},
{
layerId = "0032BCCA-E182-473F-BEC5-A72B788B9C41";
paths = (
{
closed = 1;
nodes = (
"981 1277 LINE",
"44 1277 LINE",
"44 1183 LINE",
"149 1174 LINE",
"171 1171 OFFCURVE",
"192 1157 OFFCURVE",
"192 1133 CURVE SMOOTH",
"192 184 LINE SMOOTH",
"192 160 OFFCURVE",
"171 145 OFFCURVE",
"149 143 CURVE SMOOTH",
"49 134 LINE",
"49 40 LINE",
"616 40 LINE",
"616 134 LINE",
"496 143 LINE SMOOTH",
"473 145 OFFCURVE",
"455 160 OFFCURVE",
"455 184 CURVE SMOOTH",
"455 593 LINE",
"684 593 LINE SMOOTH",
"698 593 OFFCURVE",
"714 573 OFFCURVE",
"715 560 CURVE",
"733 434 LINE",
"848 434 LINE",
"848 870 LINE",
"733 870 LINE",
"715 744 LINE",
"714 731 OFFCURVE",
"700 710 OFFCURVE",
"684 710 CURVE SMOOTH",
"455 710 LINE",
"455 1164 LINE",
"789 1164 LINE SMOOTH",
"805 1164 OFFCURVE",
"818 1148 OFFCURVE",
"822 1129 CURVE",
"848 962 LINE",
"981 962 LINE"
);
}
);
vertWidth = 0;
width = 1030;
}
);
unicode = 0046;
},
{
glyphname = G;
layers = (
{
layerId = "3590996D-50CB-43A2-BF30-26B998A874F2";
paths = (
{
closed = 1;
nodes = (
"1235 638 LINE",
"754 638 LINE",
"754 557 LINE",
"877 548 LINE",
"904 546 OFFCURVE",
"916 534 OFFCURVE",
"916 510 CURVE SMOOTH",
"916 141 LINE",
"872 128 OFFCURVE",
"788 114 OFFCURVE",
"754 114 CURVE",
"437 114 OFFCURVE",
"282 351 OFFCURVE",
"282 670 CURVE SMOOTH",
"282 974 OFFCURVE",
"432 1203 OFFCURVE",
"732 1203 CURVE SMOOTH",
"785 1203 OFFCURVE",
"949 1171 OFFCURVE",
"960 1111 CURVE SMOOTH",
"990 945 LINE",
"1101 945 LINE",
"1101 1243 LINE",
"940 1286 OFFCURVE",
"820 1306 OFFCURVE",
"739 1306 CURVE SMOOTH",
"335 1306 OFFCURVE",
"72 1063 OFFCURVE",
"72 661 CURVE SMOOTH",
"72 289 OFFCURVE",
"327 10 OFFCURVE",
"715 10 CURVE SMOOTH",
"839 10 OFFCURVE",
"967 35 OFFCURVE",
"1102 84 CURVE",
"1102 510 LINE SMOOTH",
"1102 533 OFFCURVE",
"1115 546 OFFCURVE",
"1141 548 CURVE SMOOTH",
"1235 557 LINE"
);
}
);
vertWidth = 0;
width = 1282;
},
{
layerId = "0032BCCA-E182-473F-BEC5-A72B788B9C41";
paths = (
{
closed = 1;
nodes = (
"1277 652 LINE",
"721 652 LINE",
"721 557 LINE",
"844 548 LINE SMOOTH",
"867 546 OFFCURVE",
"886 532 OFFCURVE",
"886 508 CURVE SMOOTH",
"886 150 LINE",
"852 148 OFFCURVE",
"820 147 OFFCURVE",
"804 147 CURVE SMOOTH",
"514 147 OFFCURVE",
"354 351 OFFCURVE",
"354 668 CURVE SMOOTH",
"354 930 OFFCURVE",
"475 1185 OFFCURVE",
"796 1185 CURVE SMOOTH",
"843 1185 OFFCURVE",
"953 1162 OFFCURVE",
"962 1115 CURVE SMOOTH",
"999 916 LINE",
"1143 916 LINE",
"1143 1234 LINE",
"1068 1265 OFFCURVE",
"904 1306 OFFCURVE",
"728 1306 CURVE SMOOTH",
"346 1306 OFFCURVE",
"68 1060 OFFCURVE",
"68 661 CURVE SMOOTH",
"68 269 OFFCURVE",
"345 10 OFFCURVE",
"714 10 CURVE SMOOTH",
"894 10 OFFCURVE",
"1063 60 OFFCURVE",
"1141 97 CURVE",
"1141 508 LINE SMOOTH",
"1141 532 OFFCURVE",
"1161 546 OFFCURVE",
"1183 548 CURVE SMOOTH",
"1277 557 LINE"
);
}
);
vertWidth = 0;
width = 1319;
}
);
unicode = 0047;
},
{
glyphname = H;
layers = (
{
layerId = "3590996D-50CB-43A2-BF30-26B998A874F2";
paths = (
{
closed = 1;
nodes = (
"1310 119 LINE",
"1215 126 LINE SMOOTH",
"1188 128 OFFCURVE",
"1174 142 OFFCURVE",
"1174 167 CURVE SMOOTH",
"1174 1150 LINE SMOOTH",
"1174 1174 OFFCURVE",
"1188 1186 OFFCURVE",
"1215 1188 CURVE SMOOTH",
"1310 1196 LINE",
"1310 1277 LINE",
"844 1277 LINE",
"844 1196 LINE",
"949 1188 LINE SMOOTH",
"976 1186 OFFCURVE",
"988 1174 OFFCURVE",
"988 1150 CURVE SMOOTH",
"988 735 LINE",
"382 735 LINE",
"382 1150 LINE SMOOTH",
"382 1174 OFFCURVE",
"394 1186 OFFCURVE",
"420 1188 CURVE SMOOTH",
"526 1196 LINE",
"526 1277 LINE",
"59 1277 LINE",
"59 1196 LINE",
"155 1188 LINE SMOOTH",
"182 1186 OFFCURVE",
"195 1174 OFFCURVE",
"195 1150 CURVE SMOOTH",
"195 167 LINE SMOOTH",
"195 142 OFFCURVE",
"182 128 OFFCURVE",
"155 126 CURVE SMOOTH",
"59 119 LINE",
"59 40 LINE",
"526 40 LINE",
"526 119 LINE",
"420 126 LINE SMOOTH",
"394 128 OFFCURVE",
"382 142 OFFCURVE",
"382 167 CURVE SMOOTH",
"382 643 LINE",
"988 643 LINE",
"988 167 LINE SMOOTH",
"988 142 OFFCURVE",
"976 128 OFFCURVE",
"949 126 CURVE SMOOTH",
"844 119 LINE",
"844 40 LINE",
"1310 40 LINE"
);
}
);
vertWidth = 0;
width = 1370;
},
{
layerId = "0032BCCA-E182-473F-BEC5-A72B788B9C41";
paths = (
{
closed = 1;
nodes = (
"1362 134 LINE",
"1266 143 LINE SMOOTH",
"1244 145 OFFCURVE",
"1226 160 OFFCURVE",
"1226 184 CURVE SMOOTH",
"1226 1133 LINE SMOOTH",
"1226 1157 OFFCURVE",
"1246 1172 OFFCURVE",
"1266 1174 CURVE SMOOTH",
"1362 1183 LINE",
"1362 1277 LINE",
"826 1277 LINE",
"826 1183 LINE",
"922 1174 LINE SMOOTH",
"944 1172 OFFCURVE",
"962 1157 OFFCURVE",
"962 1133 CURVE SMOOTH",
"962 747 LINE",
"455 747 LINE",
"455 1133 LINE SMOOTH",
"455 1157 OFFCURVE",
"473 1172 OFFCURVE",
"496 1174 CURVE SMOOTH",
"593 1183 LINE",
"593 1277 LINE",
"55 1277 LINE",
"55 1183 LINE",
"151 1174 LINE SMOOTH",
"174 1172 OFFCURVE",
"192 1157 OFFCURVE",
"192 1133 CURVE SMOOTH",
"192 184 LINE SMOOTH",
"192 160 OFFCURVE",
"174 145 OFFCURVE",
"151 143 CURVE SMOOTH",
"55 134 LINE",
"55 40 LINE",
"593 40 LINE",
"593 134 LINE",
"496 143 LINE SMOOTH",
"473 145 OFFCURVE",
"455 160 OFFCURVE",
"455 184 CURVE SMOOTH",
"455 629 LINE",
"962 629 LINE",
"962 184 LINE SMOOTH",
"962 160 OFFCURVE",
"944 145 OFFCURVE",
"922 143 CURVE SMOOTH",
"826 134 LINE",
"826 40 LINE",
"1362 40 LINE"
);
}
);
vertWidth = 0;
width = 1417;
}
);
unicode = 0048;
},
{
glyphname = I;
layers = (
{
layerId = "3590996D-50CB-43A2-BF30-26B998A874F2";
paths = (
{
closed = 1;
nodes = (
"547 119 LINE",
"435 126 LINE SMOOTH",
"409 128 OFFCURVE",
"396 142 OFFCURVE",
"396 167 CURVE SMOOTH",
"396 1150 LINE SMOOTH",
"396 1174 OFFCURVE",
"409 1186 OFFCURVE",
"435 1188 CURVE SMOOTH",
"547 1196 LINE",
"547 1277 LINE",
"61 1277 LINE",
"61 1196 LINE",
"171 1188 LINE SMOOTH",
"197 1186 OFFCURVE",
"210 1174 OFFCURVE",
"210 1150 CURVE SMOOTH",
"210 167 LINE SMOOTH",
"210 142 OFFCURVE",
"197 128 OFFCURVE",
"171 126 CURVE SMOOTH",
"61 119 LINE",
"61 40 LINE",
"547 40 LINE"
);
}
);
vertWidth = 0;
width = 608;
},
{
layerId = "0032BCCA-E182-473F-BEC5-A72B788B9C41";
paths = (
{
closed = 1;
nodes = (
"617 134 LINE",
"503 143 LINE SMOOTH",
"483 145 OFFCURVE",
"461 160 OFFCURVE",
"461 184 CURVE SMOOTH",
"461 1133 LINE SMOOTH",
"461 1157 OFFCURVE",
"483 1172 OFFCURVE",
"503 1174 CURVE SMOOTH",
"617 1183 LINE",
"617 1277 LINE",
"42 1277 LINE",
"42 1183 LINE",
"157 1174 LINE SMOOTH",
"179 1172 OFFCURVE",
"197 1157 OFFCURVE",
"197 1133 CURVE SMOOTH",
"197 184 LINE SMOOTH",
"197 160 OFFCURVE",
"179 145 OFFCURVE",
"157 143 CURVE SMOOTH",
"42 134 LINE",
"42 40 LINE",
"617 40 LINE"
);
}
);
vertWidth = 0;
width = 661;
}
);
unicode = 0049;
},
{
glyphname = J;
layers = (
{
layerId = "3590996D-50CB-43A2-BF30-26B998A874F2";
paths = (
{
closed = 1;
nodes = (
"846 1277 LINE",
"359 1277 LINE",
"359 1197 LINE",
"475 1190 LINE SMOOTH",
"501 1188 OFFCURVE",
"514 1175 OFFCURVE",
"514 1150 CURVE SMOOTH",
"514 494 LINE SMOOTH",
"514 295 OFFCURVE",
"481 105 OFFCURVE",
"282 105 CURVE SMOOTH",
"231 105 OFFCURVE",
"202 121 OFFCURVE",
"197 152 CURVE SMOOTH",
"157 377 LINE",
"46 377 LINE",
"46 62 LINE",
"150 27 OFFCURVE",
"233 10 OFFCURVE",
"295 10 CURVE SMOOTH",
"565 10 OFFCURVE",
"700 176 OFFCURVE",
"700 506 CURVE SMOOTH",
"700 1150 LINE SMOOTH",
"700 1175 OFFCURVE",
"713 1188 OFFCURVE",
"739 1190 CURVE SMOOTH",
"846 1197 LINE"
);
}
);
vertWidth = 0;
width = 895;
},
{
layerId = "0032BCCA-E182-473F-BEC5-A72B788B9C41";
paths = (
{
closed = 1;
nodes = (
"904 1277 LINE",
"334 1277 LINE",
"334 1183 LINE",
"448 1174 LINE",
"468 1171 OFFCURVE",
"489 1157 OFFCURVE",
"489 1133 CURVE SMOOTH",
"489 492 LINE SMOOTH",
"489 214 OFFCURVE",
"415 121 OFFCURVE",
"278 121 CURVE SMOOTH",
"239 121 OFFCURVE",
"230 152 OFFCURVE",
"230 152 CURVE",
"188 399 LINE",
"44 399 LINE",
"44 62 LINE",
"102 42 OFFCURVE",
"218 10 OFFCURVE",
"319 10 CURVE SMOOTH",
"621 10 OFFCURVE",
"751 202 OFFCURVE",
"751 486 CURVE SMOOTH",
"751 1133 LINE SMOOTH",
"751 1157 OFFCURVE",
"769 1171 OFFCURVE",
"791 1174 CURVE",
"904 1183 LINE"
);
}
);
vertWidth = 0;
width = 944;
}
);
unicode = 004A;
},
{
glyphname = K;
layers = (
{
layerId = "3590996D-50CB-43A2-BF30-26B998A874F2";
paths = (
{
closed = 1;
nodes = (
"1176 119 LINE",
"1043 128 LINE",
"630 733 LINE",
"1006 1183 LINE",
"1048 1188 OFFCURVE",
"1089 1192 OFFCURVE",
"1131 1197 CURVE",
"1131 1277 LINE",
"741 1277 LINE",
"741 1197 LINE",
"835 1188 LINE SMOOTH",
"847 1187 OFFCURVE",
"853 1175 OFFCURVE",
"853 1166 CURVE SMOOTH",
"853 1163 OFFCURVE",
"852 1159 OFFCURVE",
"850 1157 CURVE SMOOTH",
"448 666 LINE",
"382 666 LINE",
"382 1150 LINE SMOOTH",
"382 1175 OFFCURVE",
"395 1188 OFFCURVE",
"422 1190 CURVE SMOOTH",
"527 1197 LINE",
"527 1277 LINE",
"59 1277 LINE",
"59 1197 LINE",
"157 1190 LINE SMOOTH",
"183 1188 OFFCURVE",
"195 1175 OFFCURVE",
"195 1150 CURVE SMOOTH",
"195 167 LINE SMOOTH",
"195 142 OFFCURVE",
"183 128 OFFCURVE",
"157 126 CURVE SMOOTH",
"59 119 LINE",
"59 40 LINE",
"527 40 LINE",
"527 119 LINE",
"422 126 LINE SMOOTH",
"395 128 OFFCURVE",
"382 142 OFFCURVE",
"382 167 CURVE SMOOTH",
"382 589 LINE",
"510 589 LINE",
"853 97 LINE",
"853 40 LINE",
"1176 40 LINE"
);
}
);
vertWidth = 0;
width = 1176;
},
{
layerId = "0032BCCA-E182-473F-BEC5-A72B788B9C41";
paths = (
{
closed = 1;
nodes = (
"1257 134 LINE",
"1126 145 LINE",
"739 763 LINE",
"1082 1171 LINE",
"1125 1176 OFFCURVE",
"1181 1181 OFFCURVE",
"1211 1183 CURVE",
"1211 1277 LINE",
"789 1277 LINE",
"789 1183 LINE",
"894 1174 LINE SMOOTH",
"903 1173 OFFCURVE",
"907 1166 OFFCURVE",
"907 1160 CURVE SMOOTH",
"907 1157 OFFCURVE",
"906 1153 OFFCURVE",
"904 1151 CURVE SMOOTH",
"507 668 LINE",
"455 668 LINE",
"455 1133 LINE SMOOTH",
"455 1157 OFFCURVE",
"473 1172 OFFCURVE",
"496 1174 CURVE SMOOTH",
"593 1183 LINE",
"593 1277 LINE",
"53 1277 LINE",
"53 1183 LINE",
"151 1174 LINE SMOOTH",
"174 1172 OFFCURVE",
"192 1157 OFFCURVE",
"192 1133 CURVE SMOOTH",
"192 184 LINE SMOOTH",
"192 160 OFFCURVE",
"174 145 OFFCURVE",
"151 143 CURVE SMOOTH",
"53 134 LINE",
"53 40 LINE",
"593 40 LINE",
"593 134 LINE",
"496 143 LINE SMOOTH",
"473 145 OFFCURVE",
"455 160 OFFCURVE",
"455 184 CURVE SMOOTH",
"455 580 LINE",
"556 580 LINE",
"857 108 LINE",
"857 40 LINE",
"1257 40 LINE"
);
}
);
vertWidth = 0;
width = 1257;
}
);
unicode = 004B;
},
{
glyphname = L;
layers = (
{
layerId = "3590996D-50CB-43A2-BF30-26B998A874F2";
paths = (
{
closed = 1;
nodes = (
"946 40 LINE",
"946 383 LINE",
"839 383 LINE",
"809 161 LINE SMOOTH",
"806 141 OFFCURVE",
"793 130 OFFCURVE",
"769 130 CURVE SMOOTH",
"382 130 LINE",
"382 1150 LINE SMOOTH",
"382 1175 OFFCURVE",
"395 1188 OFFCURVE",
"422 1190 CURVE SMOOTH",
"520 1197 LINE",
"520 1277 LINE",
"49 1277 LINE",
"49 1197 LINE",
"157 1190 LINE SMOOTH",
"183 1188 OFFCURVE",
"195 1175 OFFCURVE",
"195 1150 CURVE SMOOTH",
"195 167 LINE SMOOTH",
"195 142 OFFCURVE",
"183 128 OFFCURVE",
"157 126 CURVE SMOOTH",
"49 119 LINE",
"49 40 LINE"
);
}
);
vertWidth = 0;
width = 978;
},
{
layerId = "0032BCCA-E182-473F-BEC5-A72B788B9C41";
paths = (
{
closed = 1;
nodes = (
"992 40 LINE",
"992 407 LINE",
"844 407 LINE",
"820 195 LINE SMOOTH",
"818 180 OFFCURVE",
"802 152 OFFCURVE",
"776 152 CURVE SMOOTH",
"455 152 LINE",
"455 1133 LINE SMOOTH",
"455 1157 OFFCURVE",
"473 1172 OFFCURVE",
"496 1174 CURVE SMOOTH",
"599 1183 LINE",
"599 1277 LINE",
"49 1277 LINE",
"49 1183 LINE",
"151 1174 LINE SMOOTH",
"174 1172 OFFCURVE",
"192 1157 OFFCURVE",
"192 1133 CURVE SMOOTH",
"192 184 LINE SMOOTH",
"192 160 OFFCURVE",
"174 145 OFFCURVE",
"151 143 CURVE SMOOTH",
"49 134 LINE",
"49 40 LINE"
);
}
);
vertWidth = 0;
width = 1021;
}
);
unicode = 004C;
},
{
glyphname = M;
layers = (
{
layerId = "3590996D-50CB-43A2-BF30-26B998A874F2";
paths = (
{
closed = 1;
nodes = (
"452 40 LINE",
"452 119 LINE",
"346 126 LINE SMOOTH",
"319 128 OFFCURVE",
"306 142 OFFCURVE",
"306 167 CURVE SMOOTH",
"306 1166 LINE",
"715 40 LINE",
"807 40 LINE",
"1231 1183 LINE",
"1231 167 LINE SMOOTH",
"1231 142 OFFCURVE",
"1218 128 OFFCURVE",
"1191 126 CURVE SMOOTH",
"1093 119 LINE",
"1093 40 LINE",
"1557 40 LINE",
"1557 119 LINE",
"1458 126 LINE SMOOTH",
"1431 128 OFFCURVE",
"1417 142 OFFCURVE",
"1417 167 CURVE SMOOTH",
"1417 1150 LINE SMOOTH",
"1417 1175 OFFCURVE",
"1431 1188 OFFCURVE",
"1458 1190 CURVE SMOOTH",
"1557 1197 LINE",
"1557 1277 LINE",
"1134 1277 LINE",
"1134 1222 LINE",
"800 322 LINE",
"466 1227 LINE",
"466 1277 LINE",
"53 1277 LINE",
"53 1197 LINE",
"158 1190 LINE SMOOTH",
"184 1188 OFFCURVE",
"197 1175 OFFCURVE",
"197 1150 CURVE SMOOTH",
"197 167 LINE SMOOTH",
"197 142 OFFCURVE",
"184 128 OFFCURVE",
"158 126 CURVE SMOOTH",
"53 119 LINE",
"53 40 LINE"
);
}
);
vertWidth = 0;
width = 1615;
},
{
layerId = "0032BCCA-E182-473F-BEC5-A72B788B9C41";
paths = (
{
closed = 1;
nodes = (
"472 40 LINE",
"472 134 LINE",
"373 143 LINE SMOOTH",
"352 145 OFFCURVE",
"332 160 OFFCURVE",
"332 184 CURVE SMOOTH",
"332 1144 LINE",
"695 40 LINE",
"837 40 LINE",
"1207 1151 LINE",
"1207 184 LINE SMOOTH",
"1207 160 OFFCURVE",
"1187 145 OFFCURVE",
"1166 143 CURVE SMOOTH",
"1076 134 LINE",
"1076 40 LINE",
"1616 40 LINE",
"1616 134 LINE",
"1511 143 LINE SMOOTH",
"1489 145 OFFCURVE",
"1471 160 OFFCURVE",
"1471 184 CURVE SMOOTH",
"1471 1133 LINE SMOOTH",
"1471 1157 OFFCURVE",
"1489 1172 OFFCURVE",
"1511 1174 CURVE SMOOTH",
"1616 1183 LINE",
"1616 1277 LINE",
"1093 1277 LINE",
"1093 1225 LINE",
"835 436 LINE",
"575 1225 LINE",
"575 1277 LINE",
"46 1277 LINE",
"46 1183 LINE",
"149 1174 LINE SMOOTH",
"171 1172 OFFCURVE",
"192 1157 OFFCURVE",
"192 1133 CURVE SMOOTH",
"192 184 LINE SMOOTH",
"192 160 OFFCURVE",
"171 145 OFFCURVE",
"149 143 CURVE SMOOTH",
"46 134 LINE",
"46 40 LINE"
);
}
);
vertWidth = 0;
width = 1664;
}
);
unicode = 004D;
},
{
glyphname = N;
layers = (
{
layerId = "3590996D-50CB-43A2-BF30-26B998A874F2";
paths = (
{
closed = 1;
nodes = (
"1275 1277 LINE",
"881 1277 LINE",
"881 1197 LINE",
"986 1190 LINE SMOOTH",
"1012 1188 OFFCURVE",
"1025 1175 OFFCURVE",
"1025 1150 CURVE SMOOTH",
"1025 304 LINE",
"411 1231 LINE",
"411 1277 LINE",
"46 1277 LINE",
"46 1197 LINE",
"155 1190 LINE SMOOTH",
"182 1188 OFFCURVE",
"195 1175 OFFCURVE",
"195 1150 CURVE SMOOTH",
"195 167 LINE SMOOTH",
"195 142 OFFCURVE",
"182 128 OFFCURVE",
"155 126 CURVE SMOOTH",
"49 119 LINE",
"49 40 LINE",
"448 40 LINE",
"448 119 LINE",
"343 126 LINE SMOOTH",
"317 128 OFFCURVE",
"304 142 OFFCURVE",
"304 167 CURVE SMOOTH",
"304 1072 LINE",
"990 40 LINE",
"1134 40 LINE",
"1134 1150 LINE SMOOTH",
"1134 1175 OFFCURVE",
"1147 1188 OFFCURVE",
"1173 1190 CURVE SMOOTH",
"1275 1197 LINE"
);
}
);
vertWidth = 0;
width = 1328;
},
{
layerId = "0032BCCA-E182-473F-BEC5-A72B788B9C41";
paths = (
{
closed = 1;
nodes = (
"1318 1277 LINE",
"890 1277 LINE",
"890 1183 LINE",
"995 1174 LINE SMOOTH",
"1017 1172 OFFCURVE",
"1038 1157 OFFCURVE",
"1038 1133 CURVE SMOOTH",
"1038 395 LINE",
"507 1227 LINE",
"507 1277 LINE",
"51 1277 LINE",
"51 1183 LINE",
"151 1174 LINE SMOOTH",
"174 1172 OFFCURVE",
"192 1157 OFFCURVE",
"192 1133 CURVE SMOOTH",
"192 184 LINE SMOOTH",
"192 160 OFFCURVE",
"174 145 OFFCURVE",
"151 143 CURVE SMOOTH",
"49 134 LINE",
"49 40 LINE",
"475 40 LINE",
"475 134 LINE",
"373 143 LINE SMOOTH",
"352 145 OFFCURVE",
"332 160 OFFCURVE",
"332 184 CURVE SMOOTH",
"332 1015 LINE",
"953 40 LINE",
"1178 40 LINE",
"1178 1133 LINE SMOOTH",
"1178 1157 OFFCURVE",
"1198 1172 OFFCURVE",
"1219 1174 CURVE SMOOTH",
"1318 1183 LINE"
);
}
);
vertWidth = 0;
width = 1372;
}
);
unicode = 004E;
},
{
glyphname = O;
layers = (
{
layerId = "3590996D-50CB-43A2-BF30-26B998A874F2";
paths = (
{
closed = 1;
nodes = (
"1275 1020 OFFCURVE",
"1036 1306 OFFCURVE",
"673 1306 CURVE SMOOTH",
"309 1306 OFFCURVE",
"72 1023 OFFCURVE",
"72 659 CURVE SMOOTH",
"72 292 OFFCURVE",
"308 10 OFFCURVE",
"675 10 CURVE SMOOTH",
"1036 10 OFFCURVE",
"1275 296 OFFCURVE",
"1275 657 CURVE SMOOTH"
);
},
{
closed = 1;
nodes = (
"1062 378 OFFCURVE",
"948 112 OFFCURVE",
"671 112 CURVE SMOOTH",
"396 112 OFFCURVE",
"284 384 OFFCURVE",
"284 659 CURVE SMOOTH",
"284 936 OFFCURVE",
"398 1201 OFFCURVE",
"675 1201 CURVE SMOOTH",
"949 1201 OFFCURVE",
"1062 937 OFFCURVE",
"1062 656 CURVE SMOOTH"
);
}
);
vertWidth = 0;
width = 1347;
},
{
layerId = "0032BCCA-E182-473F-BEC5-A72B788B9C41";
paths = (
{
closed = 1;
nodes = (
"1327 1009 OFFCURVE",
"1075 1306 OFFCURVE",
"691 1306 CURVE SMOOTH",
"299 1306 OFFCURVE",
"68 1030 OFFCURVE",
"68 666 CURVE SMOOTH",
"68 248 OFFCURVE",
"339 10 OFFCURVE",
"707 10 CURVE SMOOTH",
"1078 10 OFFCURVE",
"1327 300 OFFCURVE",
"1327 652 CURVE SMOOTH"
);
},
{
closed = 1;
nodes = (
"1030 407 OFFCURVE",
"936 126 OFFCURVE",
"689 126 CURVE SMOOTH",
"463 126 OFFCURVE",
"363 399 OFFCURVE",
"363 661 CURVE SMOOTH",
"363 908 OFFCURVE",
"452 1183 OFFCURVE",
"707 1183 CURVE SMOOTH",
"922 1183 OFFCURVE",
"1030 934 OFFCURVE",
"1030 645 CURVE SMOOTH"
);
}
);
vertWidth = 0;
width = 1393;
}
);
unicode = 004F;
},
{
glyphname = P;
layers = (
{
layerId = "3590996D-50CB-43A2-BF30-26B998A874F2";
paths = (
{
closed = 1;
nodes = (
"995 1207 OFFCURVE",
"788 1277 OFFCURVE",
"487 1277 CURVE SMOOTH",
"46 1277 LINE",
"46 1197 LINE",
"157 1190 LINE SMOOTH",
"184 1188 OFFCURVE",
"197 1175 OFFCURVE",
"197 1150 CURVE SMOOTH",
"197 167 LINE SMOOTH",
"197 142 OFFCURVE",
"184 128 OFFCURVE",
"157 126 CURVE SMOOTH",
"59 119 LINE",
"59 40 LINE",
"544 40 LINE",
"544 119 LINE",
"422 126 LINE SMOOTH",
"396 127 OFFCURVE",
"383 142 OFFCURVE",
"383 167 CURVE SMOOTH",
"383 510 LINE",
"406 505 OFFCURVE",
"449 503 OFFCURVE",
"514 503 CURVE SMOOTH",
"784 503 OFFCURVE",
"995 634 OFFCURVE",
"995 905 CURVE SMOOTH"
);
},
{
closed = 1;
nodes = (
"804 695 OFFCURVE",
"698 594 OFFCURVE",
"487 594 CURVE SMOOTH",
"469 594 OFFCURVE",
"404 599 OFFCURVE",
"383 604 CURVE",
"383 1185 LINE",
"404 1186 OFFCURVE",
"455 1187 OFFCURVE",
"477 1187 CURVE SMOOTH",
"695 1187 OFFCURVE",
"804 1092 OFFCURVE",
"804 902 CURVE SMOOTH"
);
}
);
vertWidth = 0;
width = 1067;
},
{
layerId = "0032BCCA-E182-473F-BEC5-A72B788B9C41";
paths = (
{
closed = 1;
nodes = (
"1060 1227 OFFCURVE",
"807 1277 OFFCURVE",
"559 1277 CURVE SMOOTH",
"42 1277 LINE",
"42 1183 LINE",
"149 1174 LINE SMOOTH",
"171 1172 OFFCURVE",
"192 1157 OFFCURVE",
"192 1133 CURVE SMOOTH",
"192 184 LINE SMOOTH",
"192 160 OFFCURVE",
"171 145 OFFCURVE",
"149 143 CURVE SMOOTH",
"48 134 LINE",
"48 40 LINE",
"612 40 LINE",
"612 134 LINE",
"496 143 LINE SMOOTH",
"473 145 OFFCURVE",
"455 160 OFFCURVE",
"455 184 CURVE SMOOTH",
"455 497 LINE",
"495 493 OFFCURVE",
"542 493 OFFCURVE",
"577 493 CURVE SMOOTH",
"813 493 OFFCURVE",
"1060 587 OFFCURVE",
"1060 902 CURVE SMOOTH"
);
},
{
closed = 1;
nodes = (
"785 683 OFFCURVE",
"675 608 OFFCURVE",
"505 606 CURVE SMOOTH",
"489 606 OFFCURVE",
"473 606 OFFCURVE",
"455 608 CURVE",
"455 1164 LINE",
"490 1164 OFFCURVE",
"524 1164 OFFCURVE",
"559 1164 CURVE SMOOTH",
"695 1164 OFFCURVE",
"785 1065 OFFCURVE",
"785 893 CURVE SMOOTH"
);
}
);
vertWidth = 0;
width = 1128;
}
);
unicode = 0050;
},
{
glyphname = Q;
layers = (
{
layerId = "3590996D-50CB-43A2-BF30-26B998A874F2";
paths = (
{
closed = 1;
nodes = (
"1291 1028 OFFCURVE",
"1050 1306 OFFCURVE",
"679 1306 CURVE SMOOTH",
"314 1306 OFFCURVE",
"72 1027 OFFCURVE",
"72 657 CURVE SMOOTH",
"72 324 OFFCURVE",
"264 62 OFFCURVE",
"584 17 CURVE",
"584 -190 OFFCURVE",
"703 -293 OFFCURVE",
"940 -293 CURVE SMOOTH",
"1027 -293 OFFCURVE",
"1118 -283 OFFCURVE",
"1213 -262 CURVE",
"1213 -183 LINE",
"1154 -197 OFFCURVE",
"1094 -203 OFFCURVE",
"1036 -203 CURVE SMOOTH",
"868 -203 OFFCURVE",
"781 -128 OFFCURVE",
"781 20 CURVE",
"1105 73 OFFCURVE",
"1291 326 OFFCURVE",
"1291 657 CURVE SMOOTH"
);
},
{
closed = 1;
nodes = (
"1073 381 OFFCURVE",
"956 112 OFFCURVE",
"680 112 CURVE SMOOTH",
"406 112 OFFCURVE",
"288 383 OFFCURVE",
"288 661 CURVE SMOOTH",
"288 943 OFFCURVE",
"402 1203 OFFCURVE",
"680 1203 CURVE SMOOTH",
"959 1203 OFFCURVE",
"1073 936 OFFCURVE",
"1073 657 CURVE SMOOTH"
);
}
);
vertWidth = 0;
width = 1363;
},
{
layerId = "0032BCCA-E182-473F-BEC5-A72B788B9C41";
paths = (
{
closed = 1;
nodes = (
"1327 1009 OFFCURVE",
"1075 1306 OFFCURVE",
"691 1306 CURVE SMOOTH",
"299 1306 OFFCURVE",
"68 1030 OFFCURVE",
"68 666 CURVE SMOOTH",
"68 302 OFFCURVE",
"273 75 OFFCURVE",
"570 22 CURVE",
"570 -172 OFFCURVE",
"675 -299 OFFCURVE",
"940 -299 CURVE SMOOTH",
"1039 -299 OFFCURVE",
"1139 -286 OFFCURVE",
"1266 -257 CURVE",
"1266 -159 LINE",
"1185 -178 OFFCURVE",
"1131 -181 OFFCURVE",
"1095 -181 CURVE SMOOTH",
"960 -181 OFFCURVE",
"844 -108 OFFCURVE",
"844 26 CURVE",
"1138 86 OFFCURVE",
"1327 346 OFFCURVE",
"1327 652 CURVE SMOOTH"
);
},
{
closed = 1;
nodes = (
"1030 407 OFFCURVE",
"936 126 OFFCURVE",
"689 126 CURVE SMOOTH",
"463 126 OFFCURVE",
"363 399 OFFCURVE",
"363 661 CURVE SMOOTH",
"363 908 OFFCURVE",
"452 1183 OFFCURVE",
"707 1183 CURVE SMOOTH",
"922 1183 OFFCURVE",
"1030 934 OFFCURVE",
"1030 645 CURVE SMOOTH"
);
}
);
vertWidth = 0;
width = 1393;
}
);
unicode = 0051;
},
{
glyphname = R;
layers = (
{
layerId = "3590996D-50CB-43A2-BF30-26B998A874F2";
paths = (
{
closed = 1;
nodes = (
"1196 117 LINE",
"1083 117 OFFCURVE",
"1004 153 OFFCURVE",
"974 232 CURVE SMOOTH",
"946 306 OFFCURVE",
"935 387 OFFCURVE",
"909 463 CURVE SMOOTH",
"877 557 OFFCURVE",
"800 615 OFFCURVE",
"689 641 CURVE",
"891 686 OFFCURVE",
"992 789 OFFCURVE",
"992 949 CURVE SMOOTH",
"992 1168 OFFCURVE",
"841 1277 OFFCURVE",
"540 1277 CURVE SMOOTH",
"59 1277 LINE",
"59 1197 LINE",
"155 1190 LINE SMOOTH",
"182 1188 OFFCURVE",
"195 1175 OFFCURVE",
"195 1150 CURVE SMOOTH",
"195 167 LINE SMOOTH",
"195 142 OFFCURVE",
"182 128 OFFCURVE",
"155 126 CURVE SMOOTH",
"59 119 LINE",
"59 40 LINE",
"518 40 LINE",
"518 119 LINE",
"420 126 LINE SMOOTH",
"394 128 OFFCURVE",
"382 142 OFFCURVE",
"382 167 CURVE SMOOTH",
"382 587 LINE",
"399 589 OFFCURVE",
"437 591 OFFCURVE",
"464 591 CURVE SMOOTH",
"590 591 OFFCURVE",
"683 542 OFFCURVE",
"725 440 CURVE SMOOTH",
"762 349 OFFCURVE",
"784 251 OFFCURVE",
"821 161 CURVE SMOOTH",
"863 59 OFFCURVE",
"953 10 OFFCURVE",
"1075 10 CURVE SMOOTH",
"1115 10 OFFCURVE",
"1171 26 OFFCURVE",
"1196 34 CURVE"
);
},
{
closed = 1;
nodes = (
"791 741 OFFCURVE",
"673 680 OFFCURVE",
"473 680 CURVE SMOOTH",
"454 680 OFFCURVE",
"401 681 OFFCURVE",
"382 682 CURVE",
"382 1187 LINE",
"466 1187 LINE SMOOTH",
"683 1187 OFFCURVE",
"791 1105 OFFCURVE",
"791 941 CURVE SMOOTH"
);
}
);
vertWidth = 0;
width = 1196;
},
{
background = {
paths = (
{
closed = 0;
nodes = (
"1245 131 LINE SMOOTH"
);
}
);
};
layerId = "0032BCCA-E182-473F-BEC5-A72B788B9C41";
paths = (
{
closed = 1;
nodes = (
"1298 134 LINE",
"1279 132 OFFCURVE",
"1261 131 OFFCURVE",
"1245 131 CURVE SMOOTH",
"915 131 OFFCURVE",
"1129 573 OFFCURVE",
"744 648 CURVE",
"844 663 OFFCURVE",
"1066 722 OFFCURVE",
"1066 971 CURVE SMOOTH",
"1066 1232 OFFCURVE",
"800 1277 OFFCURVE",
"663 1277 CURVE SMOOTH",
"51 1277 LINE",
"51 1183 LINE",
"149 1174 LINE SMOOTH",
"171 1172 OFFCURVE",
"192 1157 OFFCURVE",
"192 1133 CURVE SMOOTH",
"192 184 LINE SMOOTH",
"192 160 OFFCURVE",
"171 145 OFFCURVE",
"149 143 CURVE SMOOTH",
"51 134 LINE",
"51 40 LINE",
"598 40 LINE",
"598 134 LINE",
"496 143 LINE SMOOTH",
"473 145 OFFCURVE",
"455 160 OFFCURVE",
"455 184 CURVE SMOOTH",
"455 582 LINE",
"492 582 LINE SMOOTH",
"853 582 OFFCURVE",
"640 10 OFFCURVE",
"1115 10 CURVE SMOOTH",
"1161 10 OFFCURVE",
"1237 31 OFFCURVE",
"1298 40 CURVE"
);
},
{
closed = 1;
nodes = (
"789 726 OFFCURVE",
"632 691 OFFCURVE",
"516 691 CURVE SMOOTH",
"507 691 OFFCURVE",
"487 692 OFFCURVE",
"455 694 CURVE",
"455 1166 LINE",
"478 1167 OFFCURVE",
"502 1167 OFFCURVE",
"514 1167 CURVE SMOOTH",
"693 1167 OFFCURVE",
"789 1090 OFFCURVE",
"789 935 CURVE SMOOTH"
);
}
);
vertWidth = 0;
width = 1298;
}
);
unicode = 0052;
},
{
glyphname = S;
layers = (
{
layerId = "3590996D-50CB-43A2-BF30-26B998A874F2";
paths = (
{
closed = 1;
nodes = (
"888 588 OFFCURVE",
"725 674 OFFCURVE",
"538 746 CURVE SMOOTH",
"368 811 OFFCURVE",
"283 891 OFFCURVE",
"283 989 CURVE SMOOTH",
"283 1120 OFFCURVE",
"376 1206 OFFCURVE",
"520 1206 CURVE SMOOTH",
"569 1206 OFFCURVE",
"703 1181 OFFCURVE",
"710 1133 CURVE SMOOTH",
"737 956 LINE",
"842 956 LINE",
"842 1243 LINE",
"710 1286 OFFCURVE",
"602 1306 OFFCURVE",
"518 1306 CURVE SMOOTH",
"285 1306 OFFCURVE",
"93 1176 OFFCURVE",
"93 945 CURVE SMOOTH",
"93 766 OFFCURVE",
"215 690 OFFCURVE",
"376 613 CURVE SMOOTH",
"548 531 OFFCURVE",
"700 448 OFFCURVE",
"700 332 CURVE SMOOTH",
"700 182 OFFCURVE",
"573 114 OFFCURVE",
"429 114 CURVE SMOOTH",
"376 114 OFFCURVE",
"315 128 OFFCURVE",
"244 156 CURVE SMOOTH",
"225 163 OFFCURVE",
"214 177 OFFCURVE",
"212 197 CURVE SMOOTH",
"188 405 LINE",
"72 405 LINE",
"72 79 LINE",
"168 33 OFFCURVE",
"277 10 OFFCURVE",
"400 10 CURVE SMOOTH",
"661 10 OFFCURVE",
"888 131 OFFCURVE",
"888 386 CURVE SMOOTH"
);
}
);
vertWidth = 0;
width = 960;
},
{
layerId = "0032BCCA-E182-473F-BEC5-A72B788B9C41";
paths = (
{
closed = 1;
nodes = (
"920 594 OFFCURVE",
"761 681 OFFCURVE",
"599 761 CURVE SMOOTH",
"470 825 OFFCURVE",
"350 886 OFFCURVE",
"350 1016 CURVE SMOOTH",
"350 1125 OFFCURVE",
"455 1183 OFFCURVE",
"577 1183 CURVE SMOOTH",
"635 1183 OFFCURVE",
"713 1134 OFFCURVE",
"714 1127 CURVE SMOOTH",
"744 930 LINE",
"886 930 LINE",
"886 1232 LINE",
"817 1264 OFFCURVE",
"675 1306 OFFCURVE",
"538 1306 CURVE SMOOTH",
"301 1306 OFFCURVE",
"94 1171 OFFCURVE",
"94 932 CURVE SMOOTH",
"94 759 OFFCURVE",
"214 674 OFFCURVE",
"345 604 CURVE SMOOTH",
"537 501 OFFCURVE",
"649 439 OFFCURVE",
"649 309 CURVE SMOOTH",
"649 186 OFFCURVE",
"520 135 OFFCURVE",
"411 135 CURVE SMOOTH",
"360 135 OFFCURVE",
"300 153 OFFCURVE",
"269 167 CURVE",
"264 167 OFFCURVE",
"247 180 OFFCURVE",
"245 195 CURVE SMOOTH",
"214 418 LINE",
"68 418 LINE",
"68 80 LINE",
"140 50 OFFCURVE",
"288 10 OFFCURVE",
"427 10 CURVE SMOOTH",
"688 10 OFFCURVE",
"920 142 OFFCURVE",
"920 401 CURVE SMOOTH"
);
}
);
vertWidth = 0;
width = 988;
}
);
unicode = 0053;
},
{
glyphname = T;
layers = (
{
layerId = "3590996D-50CB-43A2-BF30-26B998A874F2";
paths = (
{
closed = 1;
nodes = (
"1075 1277 LINE",
"30 1277 LINE",
"30 982 LINE",
"137 982 LINE",
"162 1155 LINE SMOOTH",
"165 1176 OFFCURVE",
"175 1187 OFFCURVE",
"193 1187 CURVE SMOOTH",
"459 1187 LINE",
"459 167 LINE SMOOTH",
"459 142 OFFCURVE",
"446 128 OFFCURVE",
"420 126 CURVE SMOOTH",
"302 119 LINE",
"302 40 LINE",
"802 40 LINE",
"802 119 LINE",
"684 126 LINE SMOOTH",
"658 128 OFFCURVE",
"645 142 OFFCURVE",
"645 167 CURVE SMOOTH",
"645 1187 LINE",
"909 1187 LINE SMOOTH",
"926 1187 OFFCURVE",
"937 1176 OFFCURVE",
"940 1155 CURVE SMOOTH",
"966 982 LINE",
"1075 982 LINE"
);
}
);
vertWidth = 0;
width = 1104;
},
{
layerId = "0032BCCA-E182-473F-BEC5-A72B788B9C41";
paths = (
{
closed = 1;
nodes = (
"1093 1277 LINE",
"30 1277 LINE",
"30 939 LINE",
"162 939 LINE",
"195 1144 LINE SMOOTH",
"197 1159 OFFCURVE",
"208 1166 OFFCURVE",
"223 1166 CURVE SMOOTH",
"429 1166 LINE",
"429 184 LINE SMOOTH",
"429 160 OFFCURVE",
"409 145 OFFCURVE",
"387 143 CURVE SMOOTH",
"280 134 LINE",
"280 40 LINE",
"842 40 LINE",
"842 134 LINE",
"733 143 LINE SMOOTH",
"712 145 OFFCURVE",
"693 160 OFFCURVE",
"693 184 CURVE SMOOTH",
"693 1166 LINE",
"899 1166 LINE SMOOTH",
"914 1166 OFFCURVE",
"923 1159 OFFCURVE",
"925 1144 CURVE SMOOTH",
"958 939 LINE",
"1093 939 LINE"
);
}
);
vertWidth = 0;
width = 1122;
}
);
unicode = 0054;
},
{
glyphname = U;
layers = (
{
layerId = "3590996D-50CB-43A2-BF30-26B998A874F2";
paths = (
{
closed = 1;
nodes = (
"1262 1277 LINE",
"863 1277 LINE",
"863 1197 LINE",
"968 1190 LINE SMOOTH",
"995 1188 OFFCURVE",
"1009 1175 OFFCURVE",
"1009 1150 CURVE SMOOTH",
"1009 497 LINE SMOOTH",
"1009 258 OFFCURVE",
"919 134 OFFCURVE",
"694 134 CURVE SMOOTH",
"456 134 OFFCURVE",
"381 259 OFFCURVE",
"381 497 CURVE SMOOTH",
"381 1150 LINE SMOOTH",
"381 1175 OFFCURVE",
"393 1188 OFFCURVE",
"419 1190 CURVE SMOOTH",
"525 1197 LINE",
"525 1277 LINE",
"58 1277 LINE",
"58 1197 LINE",
"156 1190 LINE SMOOTH",
"182 1188 OFFCURVE",
"194 1175 OFFCURVE",
"194 1150 CURVE SMOOTH",
"194 449 LINE SMOOTH",
"194 157 OFFCURVE",
"344 10 OFFCURVE",
"643 10 CURVE SMOOTH",
"959 10 OFFCURVE",
"1118 157 OFFCURVE",
"1118 449 CURVE SMOOTH",
"1118 1150 LINE SMOOTH",
"1118 1175 OFFCURVE",
"1130 1188 OFFCURVE",
"1156 1190 CURVE SMOOTH",
"1262 1197 LINE"
);
}
);
vertWidth = 0;
width = 1313;
},
{
layerId = "0032BCCA-E182-473F-BEC5-A72B788B9C41";
paths = (
{
closed = 1;
nodes = (
"1296 1277 LINE",
"872 1277 LINE",
"872 1183 LINE",
"976 1174 LINE",
"999 1171 OFFCURVE",
"1017 1157 OFFCURVE",
"1017 1133 CURVE SMOOTH",
"1017 494 LINE SMOOTH",
"1017 295 OFFCURVE",
"938 163 OFFCURVE",
"744 163 CURVE SMOOTH",
"542 163 OFFCURVE",
"446 263 OFFCURVE",
"446 494 CURVE SMOOTH",
"446 1133 LINE SMOOTH",
"446 1157 OFFCURVE",
"466 1171 OFFCURVE",
"487 1174 CURVE",
"586 1183 LINE",
"586 1277 LINE",
"40 1277 LINE",
"40 1183 LINE",
"140 1174 LINE",
"162 1171 OFFCURVE",
"183 1157 OFFCURVE",
"183 1133 CURVE SMOOTH",
"183 508 LINE SMOOTH",
"183 184 OFFCURVE",
"336 10 OFFCURVE",
"652 10 CURVE SMOOTH",
"997 10 OFFCURVE",
"1157 145 OFFCURVE",
"1157 508 CURVE SMOOTH",
"1157 1133 LINE SMOOTH",
"1157 1157 OFFCURVE",
"1178 1171 OFFCURVE",
"1198 1174 CURVE",
"1296 1183 LINE"
);
}
);
vertWidth = 0;
width = 1344;
}
);
unicode = 0055;
},
{
glyphname = V;
layers = (
{
layerId = "3590996D-50CB-43A2-BF30-26B998A874F2";
paths = (
{
closed = 1;
nodes = (
"1209 1277 LINE",
"842 1277 LINE",
"842 1197 LINE",
"944 1188 LINE SMOOTH",
"958 1187 OFFCURVE",
"970 1173 OFFCURVE",
"970 1159 CURVE SMOOTH",
"970 1156 OFFCURVE",
"969 1150 OFFCURVE",
"966 1142 CURVE SMOOTH",
"658 244 LINE",
"337 1146 LINE SMOOTH",
"334 1155 OFFCURVE",
"333 1160 OFFCURVE",
"333 1163 CURVE SMOOTH",
"333 1174 OFFCURVE",
"340 1187 OFFCURVE",
"350 1188 CURVE SMOOTH",
"459 1197 LINE",
"459 1277 LINE",
"18 1277 LINE",
"18 1197 LINE",
"127 1179 LINE",
"549 10 LINE",
"689 10 LINE",
"1102 1178 LINE",
"1209 1197 LINE"
);
}
);
vertWidth = 0;
width = 1227;
},
{
layerId = "0032BCCA-E182-473F-BEC5-A72B788B9C41";
paths = (
{
closed = 1;
nodes = (
"1282 1277 LINE",
"870 1277 LINE",
"870 1183 LINE",
"969 1169 LINE SMOOTH",
"990 1166 OFFCURVE",
"997 1155 OFFCURVE",
"997 1143 CURVE SMOOTH",
"997 1139 OFFCURVE",
"996 1135 OFFCURVE",
"992 1122 CURVE SMOOTH",
"714 327 LINE",
"422 1129 LINE SMOOTH",
"420 1134 OFFCURVE",
"419 1139 OFFCURVE",
"419 1144 CURVE SMOOTH",
"419 1156 OFFCURVE",
"425 1167 OFFCURVE",
"440 1169 CURVE SMOOTH",
"544 1183 LINE",
"544 1277 LINE",
"18 1277 LINE",
"18 1183 LINE",
"137 1166 LINE",
"568 10 LINE",
"742 10 LINE",
"1166 1168 LINE",
"1282 1183 LINE"
);
}
);
vertWidth = 0;
width = 1301;
}
);
unicode = 0056;
},
{
glyphname = W;
layers = (
{
layerId = "3590996D-50CB-43A2-BF30-26B998A874F2";
paths = (
{
closed = 1;
nodes = (
"1697 1277 LINE",
"1321 1277 LINE",
"1321 1197 LINE",
"1437 1187 LINE SMOOTH",
"1460 1185 OFFCURVE",
"1469 1172 OFFCURVE",
"1463 1150 CURVE",
"1259 288 LINE",
"962 1277 LINE",
"820 1277 LINE",
"531 318 LINE",
"311 1150 LINE SMOOTH",
"305 1172 OFFCURVE",
"311 1185 OFFCURVE",
"330 1187 CURVE SMOOTH",
"440 1197 LINE",
"440 1277 LINE",
"18 1277 LINE",
"18 1197 LINE",
"125 1176 LINE",
"426 10 LINE",
"559 10 LINE",
"860 1032 LINE",
"1168 10 LINE",
"1303 10 LINE",
"1585 1176 LINE",
"1697 1197 LINE"
);
}
);
vertWidth = 0;
width = 1715;
},
{
layerId = "0032BCCA-E182-473F-BEC5-A72B788B9C41";
paths = (
{
closed = 1;
nodes = (
"1762 1277 LINE",
"1354 1277 LINE",
"1354 1183 LINE",
"1472 1171 LINE",
"1498 1168 OFFCURVE",
"1502 1148 OFFCURVE",
"1498 1133 CURVE SMOOTH",
"1314 383 LINE",
"1047 1277 LINE",
"848 1277 LINE",
"589 403 LINE",
"394 1133 LINE",
"391 1148 OFFCURVE",
"389 1169 OFFCURVE",
"411 1171 CURVE SMOOTH",
"520 1183 LINE",
"520 1277 LINE",
"18 1277 LINE",
"18 1183 LINE",
"130 1168 LINE",
"438 10 LINE",
"616 10 LINE",
"897 969 LINE",
"1185 10 LINE",
"1360 10 LINE",
"1650 1168 LINE",
"1762 1183 LINE"
);
}
);
vertWidth = 0;
width = 1780;
}
);
unicode = 0057;
},
{
glyphname = X;
layers = (
{
layerId = "3590996D-50CB-43A2-BF30-26B998A874F2";
paths = (
{
closed = 1;
nodes = (
"1150 119 LINE",
"1036 142 LINE",
"673 709 LINE",
"1015 1179 LINE",
"1134 1197 LINE",
"1134 1277 LINE",
"748 1277 LINE",
"748 1197 LINE",
"842 1185 LINE SMOOTH",
"859 1183 OFFCURVE",
"868 1174 OFFCURVE",
"868 1160 CURVE SMOOTH",
"868 1156 OFFCURVE",
"866 1151 OFFCURVE",
"862 1146 CURVE SMOOTH",
"614 805 LINE",
"389 1151 LINE SMOOTH",
"384 1158 OFFCURVE",
"382 1164 OFFCURVE",
"382 1170 CURVE SMOOTH",
"382 1180 OFFCURVE",
"392 1186 OFFCURVE",
"411 1188 CURVE SMOOTH",
"505 1197 LINE",
"505 1277 LINE",
"42 1277 LINE",
"42 1197 LINE",
"164 1176 LINE",
"499 650 LINE",
"129 142 LINE",
"18 119 LINE",
"18 40 LINE",
"409 40 LINE",
"409 119 LINE",
"299 128 LINE SMOOTH",
"279 130 OFFCURVE",
"269 136 OFFCURVE",
"269 146 CURVE SMOOTH",
"269 151 OFFCURVE",
"271 156 OFFCURVE",
"276 163 CURVE SMOOTH",
"561 554 LINE",
"805 169 LINE SMOOTH",
"808 164 OFFCURVE",
"809 161 OFFCURVE",
"809 156 CURVE SMOOTH",
"809 141 OFFCURVE",
"800 132 OFFCURVE",
"783 130 CURVE SMOOTH",
"677 119 LINE",
"677 40 LINE",
"1150 40 LINE"
);
}
);
vertWidth = 0;
width = 1168;
},
{
layerId = "0032BCCA-E182-473F-BEC5-A72B788B9C41";
paths = (
{
closed = 1;
nodes = (
"1219 134 LINE",
"1102 149 LINE",
"737 719 LINE",
"1082 1166 LINE",
"1198 1183 LINE",
"1198 1277 LINE",
"778 1277 LINE",
"778 1183 LINE",
"876 1176 LINE SMOOTH",
"886 1175 OFFCURVE",
"895 1166 OFFCURVE",
"895 1153 CURVE SMOOTH",
"895 1146 OFFCURVE",
"892 1138 OFFCURVE",
"886 1131 CURVE SMOOTH",
"660 838 LINE",
"475 1129 LINE SMOOTH",
"470 1137 OFFCURVE",
"468 1145 OFFCURVE",
"468 1151 CURVE SMOOTH",
"468 1165 OFFCURVE",
"476 1173 OFFCURVE",
"485 1174 CURVE SMOOTH",
"582 1183 LINE",
"582 1277 LINE",
"42 1277 LINE",
"42 1183 LINE",
"158 1166 LINE",
"503 629 LINE",
"137 149 LINE",
"18 134 LINE",
"18 40 LINE",
"454 40 LINE",
"454 134 LINE",
"343 143 LINE",
"334 144 OFFCURVE",
"324 154 OFFCURVE",
"324 167 CURVE SMOOTH",
"324 174 OFFCURVE",
"326 181 OFFCURVE",
"332 188 CURVE SMOOTH",
"580 510 LINE",
"787 186 LINE SMOOTH",
"793 177 OFFCURVE",
"795 169 OFFCURVE",
"795 162 CURVE SMOOTH",
"795 151 OFFCURVE",
"789 143 OFFCURVE",
"778 142 CURVE SMOOTH",
"665 134 LINE",
"665 40 LINE",
"1219 40 LINE"
);
}
);
vertWidth = 0;
width = 1237;
}
);
unicode = 0058;
},
{
glyphname = Y;
layers = (
{
layerId = "3590996D-50CB-43A2-BF30-26B998A874F2";
paths = (
{
closed = 1;
nodes = (
"1136 1277 LINE",
"761 1277 LINE",
"761 1197 LINE",
"864 1185 LINE SMOOTH",
"881 1183 OFFCURVE",
"890 1174 OFFCURVE",
"890 1159 CURVE SMOOTH",
"890 1154 OFFCURVE",
"889 1151 OFFCURVE",
"886 1146 CURVE SMOOTH",
"601 670 LINE",
"341 1151 LINE SMOOTH",
"337 1158 OFFCURVE",
"336 1164 OFFCURVE",
"336 1169 CURVE SMOOTH",
"336 1180 OFFCURVE",
"345 1186 OFFCURVE",
"363 1188 CURVE SMOOTH",
"455 1197 LINE",
"455 1277 LINE",
"18 1277 LINE",
"18 1197 LINE",
"125 1176 LINE",
"479 538 LINE",
"479 167 LINE SMOOTH",
"479 142 OFFCURVE",
"465 128 OFFCURVE",
"438 126 CURVE SMOOTH",
"324 119 LINE",
"324 40 LINE",
"822 40 LINE",
"822 119 LINE",
"704 126 LINE SMOOTH",
"678 128 OFFCURVE",
"665 142 OFFCURVE",
"665 167 CURVE SMOOTH",
"665 566 LINE",
"1036 1179 LINE",
"1136 1197 LINE"
);
}
);
vertWidth = 0;
width = 1154;
},
{
layerId = "0032BCCA-E182-473F-BEC5-A72B788B9C41";
paths = (
{
closed = 1;
nodes = (
"1203 1277 LINE",
"796 1277 LINE",
"796 1183 LINE",
"909 1176 LINE SMOOTH",
"919 1175 OFFCURVE",
"925 1167 OFFCURVE",
"925 1155 CURVE SMOOTH",
"925 1148 OFFCURVE",
"923 1139 OFFCURVE",
"918 1131 CURVE SMOOTH",
"667 692 LINE",
"435 1129 LINE SMOOTH",
"431 1137 OFFCURVE",
"429 1145 OFFCURVE",
"429 1152 CURVE SMOOTH",
"429 1165 OFFCURVE",
"436 1173 OFFCURVE",
"445 1174 CURVE SMOOTH",
"542 1183 LINE",
"542 1277 LINE",
"18 1277 LINE",
"18 1183 LINE",
"137 1166 LINE",
"492 523 LINE",
"492 184 LINE SMOOTH",
"492 160 OFFCURVE",
"470 145 OFFCURVE",
"450 143 CURVE SMOOTH",
"337 134 LINE",
"337 40 LINE",
"909 40 LINE",
"909 134 LINE",
"796 143 LINE SMOOTH",
"774 145 OFFCURVE",
"756 160 OFFCURVE",
"756 184 CURVE SMOOTH",
"756 575 LINE",
"1097 1166 LINE",
"1203 1183 LINE"
);
}
);
vertWidth = 0;
width = 1222;
}
);
unicode = 0059;
},
{
glyphname = Z;
layers = (
{
layerId = "3590996D-50CB-43A2-BF30-26B998A874F2";
paths = (
{
closed = 1;
nodes = (
"988 381 LINE",
"879 381 LINE",
"848 167 LINE SMOOTH",
"845 144 OFFCURVE",
"834 134 OFFCURVE",
"817 134 CURVE SMOOTH",
"292 134 LINE",
"979 1192 LINE",
"979 1277 LINE",
"111 1277 LINE",
"111 982 LINE",
"220 982 LINE",
"247 1153 LINE SMOOTH",
"250 1174 OFFCURVE",
"262 1185 OFFCURVE",
"279 1185 CURVE SMOOTH",
"758 1185 LINE",
"72 121 LINE",
"72 40 LINE",
"988 40 LINE"
);
}
);
vertWidth = 0;
width = 1060;
},
{
layerId = "0032BCCA-E182-473F-BEC5-A72B788B9C41";
paths = (
{
closed = 1;
nodes = (
"1003 403 LINE",
"868 403 LINE",
"832 175 LINE SMOOTH",
"830 161 OFFCURVE",
"818 154 OFFCURVE",
"804 154 CURVE SMOOTH",
"363 154 LINE",
"994 1168 LINE",
"994 1277 LINE",
"100 1277 LINE",
"100 941 LINE",
"234 941 LINE",
"267 1142 LINE SMOOTH",
"269 1157 OFFCURVE",
"278 1164 OFFCURVE",
"293 1164 CURVE SMOOTH",
"700 1164 LINE",
"68 149 LINE",
"68 40 LINE",
"1003 40 LINE"
);
}
);
vertWidth = 0;
width = 1071;
}
);
unicode = 005A;
},
{
glyphname = bracketleft;
layers = (
{
layerId = "3590996D-50CB-43A2-BF30-26B998A874F2";
paths = (
{
closed = 1;
nodes = (
"777 -176 LINE",
"456 -176 LINE",
"456 1358 LINE",
"777 1358 LINE",
"777 1450 LINE",
"278 1450 LINE",
"278 -270 LINE",
"777 -270 LINE"
);
}
);
vertWidth = 0;
width = 867;
},
{
layerId = "0032BCCA-E182-473F-BEC5-A72B788B9C41";
paths = (
{
closed = 1;
nodes = (
"844 -152 LINE",
"530 -152 LINE",
"530 1327 LINE",
"844 1327 LINE",
"844 1450 LINE",
"276 1450 LINE",
"276 -270 LINE",
"844 -270 LINE"
);
}
);
vertWidth = 0;
width = 918;
}
);
unicode = 005B;
},
{
glyphname = backslash;
layers = (
{
layerId = "3590996D-50CB-43A2-BF30-26B998A874F2";
paths = (
{
closed = 1;
nodes = (
"118 1277 LINE",
"0 1277 LINE",
"783 -131 LINE",
"901 -131 LINE"
);
}
);
vertWidth = 0;
width = 901;
},
{
layerId = "0032BCCA-E182-473F-BEC5-A72B788B9C41";
paths = (
{
closed = 1;
nodes = (
"144 1277 LINE",
"0 1277 LINE",
"767 -131 LINE",
"911 -131 LINE"
);
}
);
vertWidth = 0;
width = 911;
}
);
unicode = 005C;
},
{
glyphname = bracketright;
layers = (
{
layerId = "3590996D-50CB-43A2-BF30-26B998A874F2";
paths = (
{
closed = 1;
nodes = (
"589 1450 LINE",
"90 1450 LINE",
"90 1358 LINE",
"411 1358 LINE",
"411 -176 LINE",
"90 -176 LINE",
"90 -270 LINE",
"589 -270 LINE"
);
}
);
vertWidth = 0;
width = 867;
},
{
layerId = "0032BCCA-E182-473F-BEC5-A72B788B9C41";
paths = (
{
closed = 1;
nodes = (
"641 1450 LINE",
"74 1450 LINE",
"74 1327 LINE",
"387 1327 LINE",
"387 -152 LINE",
"74 -152 LINE",
"74 -270 LINE",
"641 -270 LINE"
);
}
);
vertWidth = 0;
width = 918;
}
);
unicode = 005D;
},
{
glyphname = asciicircum;
layers = (
{
layerId = "3590996D-50CB-43A2-BF30-26B998A874F2";
paths = (
{
closed = 1;
nodes = (
"931 1120 LINE",
"837 1120 LINE",
"401 61 LINE",
"516 61 LINE",
"883 960 LINE",
"1247 61 LINE",
"1364 61 LINE"
);
}
);
vertWidth = 0;
width = 1766;
},
{
layerId = "0032BCCA-E182-473F-BEC5-A72B788B9C41";
paths = (
{
closed = 1;
nodes = (
"931 1120 LINE",
"837 1120 LINE",
"401 61 LINE",
"516 61 LINE",
"883 960 LINE",
"1247 61 LINE",
"1364 61 LINE"
);
}
);
vertWidth = 0;
width = 1766;
}
);
unicode = 005E;
},
{
glyphname = underscore;
layers = (
{
layerId = "3590996D-50CB-43A2-BF30-26B998A874F2";
paths = (
{
closed = 1;
nodes = (
"0 -275 LINE",
"0 -395 LINE",
"922 -395 LINE",
"922 -275 LINE"
);
}
);
vertWidth = 0;
width = 922;
},
{
layerId = "0032BCCA-E182-473F-BEC5-A72B788B9C41";
paths = (
{
closed = 1;
nodes = (
"922 -227 LINE",
"0 -227 LINE",
"0 -395 LINE",
"922 -395 LINE"
);
}
);
vertWidth = 0;
width = 922;
}
);
unicode = 005F;
},
{
glyphname = grave;
layers = (
{
layerId = "3590996D-50CB-43A2-BF30-26B998A874F2";
paths = (
{
closed = 1;
nodes = (
"181 1341 LINE SMOOTH",
"153 1375 OFFCURVE",
"121 1391 OFFCURVE",
"85 1391 CURVE SMOOTH",
"28 1391 OFFCURVE",
"0 1363 OFFCURVE",
"0 1308 CURVE SMOOTH",
"0 1277 OFFCURVE",
"14 1252 OFFCURVE",
"42 1234 CURVE SMOOTH",
"322 1055 LINE",
"427 1055 LINE"
);
}
);
vertWidth = 0;
width = 644;
},
{
layerId = "0032BCCA-E182-473F-BEC5-A72B788B9C41";
paths = (
{
closed = 1;
nodes = (
"221 1334 LINE SMOOTH",
"179 1380 OFFCURVE",
"155 1393 OFFCURVE",
"105 1393 CURVE SMOOTH",
"26 1393 OFFCURVE",
"0 1340 OFFCURVE",
"0 1295 CURVE SMOOTH",
"0 1271 OFFCURVE",
"21 1232 OFFCURVE",
"46 1218 CURVE SMOOTH",
"345 1055 LINE",
"473 1055 LINE"
);
}
);
vertWidth = 0;
width = 689;
}
);
unicode = 0060;
},
{
glyphname = a;
layers = (
{
layerId = "3590996D-50CB-43A2-BF30-26B998A874F2";
paths = (
{
closed = 1;
nodes = (
"907 112 LINE",
"819 117 LINE SMOOTH",
"793 118 OFFCURVE",
"780 133 OFFCURVE",
"780 158 CURVE SMOOTH",
"780 674 LINE SMOOTH",
"780 858 OFFCURVE",
"683 950 OFFCURVE",
"489 950 CURVE SMOOTH",
"326 950 OFFCURVE",
"105 893 OFFCURVE",
"105 733 CURVE SMOOTH",
"105 698 OFFCURVE",
"128 680 OFFCURVE",
"174 680 CURVE SMOOTH",
"308 680 LINE",
"308 840 LINE",
"348 856 OFFCURVE",
"392 864 OFFCURVE",
"439 864 CURVE SMOOTH",
"553 864 OFFCURVE",
"609 803 OFFCURVE",
"609 682 CURVE SMOOTH",
"609 602 LINE",
"395 560 OFFCURVE",
"63 494 OFFCURVE",
"63 267 CURVE SMOOTH",
"63 111 OFFCURVE",
"168 18 OFFCURVE",
"302 18 CURVE SMOOTH",
"391 18 OFFCURVE",
"493 62 OFFCURVE",
"609 149 CURVE",
"634 40 LINE",
"907 40 LINE"
);
},
{
closed = 1;
nodes = (
"519 155 OFFCURVE",
"444 126 OFFCURVE",
"383 126 CURVE SMOOTH",
"341 126 OFFCURVE",
"308 143 OFFCURVE",
"282 175 CURVE SMOOTH",
"258 204 OFFCURVE",
"246 239 OFFCURVE",
"246 279 CURVE SMOOTH",
"246 333 OFFCURVE",
"265 377 OFFCURVE",
"303 409 CURVE SMOOTH",
"356 453 OFFCURVE",
"458 494 OFFCURVE",
"609 532 CURVE",
"609 214 LINE"
);
}
);
vertWidth = 0;
width = 939;
},
{
layerId = "0032BCCA-E182-473F-BEC5-A72B788B9C41";
paths = (
{
closed = 1;
nodes = (
"988 126 LINE",
"907 132 LINE SMOOTH",
"885 134 OFFCURVE",
"867 152 OFFCURVE",
"867 175 CURVE SMOOTH",
"867 648 LINE SMOOTH",
"867 914 OFFCURVE",
"723 962 OFFCURVE",
"510 962 CURVE SMOOTH",
"315 962 OFFCURVE",
"100 879 OFFCURVE",
"100 742 CURVE SMOOTH",
"100 687 OFFCURVE",
"147 676 OFFCURVE",
"183 676 CURVE SMOOTH",
"373 676 LINE",
"373 851 LINE",
"385 854 OFFCURVE",
"415 858 OFFCURVE",
"452 858 CURVE SMOOTH",
"599 858 OFFCURVE",
"624 757 OFFCURVE",
"624 687 CURVE",
"624 615 LINE",
"117 503 OFFCURVE",
"59 422 OFFCURVE",
"59 256 CURVE SMOOTH",
"59 110 OFFCURVE",
"167 17 OFFCURVE",
"301 17 CURVE SMOOTH",
"419 17 OFFCURVE",
"553 83 OFFCURVE",
"621 132 CURVE",
"645 40 LINE",
"988 40 LINE"
);
},
{
closed = 1;
nodes = (
"582 193 OFFCURVE",
"510 170 OFFCURVE",
"452 170 CURVE SMOOTH",
"374 170 OFFCURVE",
"320 232 OFFCURVE",
"320 307 CURVE SMOOTH",
"320 418 OFFCURVE",
"383 467 OFFCURVE",
"621 515 CURVE",
"621 211 LINE"
);
}
);
vertWidth = 0;
width = 1020;
}
);
unicode = 0061;
},
{
glyphname = b;
layers = (
{
layerId = "3590996D-50CB-43A2-BF30-26B998A874F2";
paths = (
{
closed = 1;
nodes = (
"959 765 OFFCURVE",
"827 950 OFFCURVE",
"592 950 CURVE SMOOTH",
"517 950 OFFCURVE",
"433 927 OFFCURVE",
"337 881 CURVE",
"337 1398 LINE",
"263 1398 LINE",
"26 1327 LINE",
"26 1266 LINE",
"166 1266 LINE",
"166 40 LINE",
"432 40 LINE SMOOTH",
"755 40 OFFCURVE",
"959 204 OFFCURVE",
"959 527 CURVE SMOOTH"
);
},
{
closed = 1;
nodes = (
"773 247 OFFCURVE",
"671 126 OFFCURVE",
"428 126 CURVE SMOOTH",
"407 126 OFFCURVE",
"376 126 OFFCURVE",
"337 128 CURVE",
"337 813 LINE",
"391 832 OFFCURVE",
"442 841 OFFCURVE",
"490 841 CURVE SMOOTH",
"679 841 OFFCURVE",
"773 724 OFFCURVE",
"773 490 CURVE SMOOTH"
);
}
);
vertWidth = 0;
width = 1022;
},
{
layerId = "0032BCCA-E182-473F-BEC5-A72B788B9C41";
paths = (
{
closed = 1;
nodes = (
"1043 809 OFFCURVE",
"877 962 OFFCURVE",
"680 962 CURVE SMOOTH",
"542 962 OFFCURVE",
"413 877 OFFCURVE",
"413 877 CURVE",
"413 1404 LINE",
"319 1404 LINE",
"37 1312 LINE",
"37 1236 LINE",
"166 1236 LINE",
"166 40 LINE",
"503 40 LINE SMOOTH",
"848 40 OFFCURVE",
"1043 261 OFFCURVE",
"1043 545 CURVE SMOOTH"
);
},
{
closed = 1;
nodes = (
"776 228 OFFCURVE",
"656 142 OFFCURVE",
"452 142 CURVE SMOOTH",
"440 142 OFFCURVE",
"435 143 OFFCURVE",
"413 143 CURVE",
"413 798 LINE",
"413 798 OFFCURVE",
"466 809 OFFCURVE",
"510 809 CURVE SMOOTH",
"684 809 OFFCURVE",
"776 689 OFFCURVE",
"776 490 CURVE SMOOTH"
);
}
);
vertWidth = 0;
width = 1102;
}
);
unicode = 0062;
},
{
glyphname = c;
layers = (
{
layerId = "3590996D-50CB-43A2-BF30-26B998A874F2";
paths = (
{
closed = 1;
nodes = (
"796 214 LINE",
"715 161 OFFCURVE",
"635 134 OFFCURVE",
"557 134 CURVE SMOOTH",
"353 134 OFFCURVE",
"251 299 OFFCURVE",
"251 503 CURVE SMOOTH",
"251 688 OFFCURVE",
"330 872 OFFCURVE",
"515 872 CURVE SMOOTH",
"540 872 OFFCURVE",
"566 865 OFFCURVE",
"592 850 CURVE",
"592 688 LINE",
"622 668 OFFCURVE",
"652 658 OFFCURVE",
"684 658 CURVE SMOOTH",
"744 658 OFFCURVE",
"793 698 OFFCURVE",
"793 765 CURVE SMOOTH",
"793 900 OFFCURVE",
"642 950 OFFCURVE",
"507 950 CURVE SMOOTH",
"239 950 OFFCURVE",
"63 758 OFFCURVE",
"63 478 CURVE SMOOTH",
"63 215 OFFCURVE",
"224 18 OFFCURVE",
"485 18 CURVE SMOOTH",
"580 18 OFFCURVE",
"684 48 OFFCURVE",
"796 108 CURVE"
);
}
);
vertWidth = 0;
width = 859;
},
{
layerId = "0032BCCA-E182-473F-BEC5-A72B788B9C41";
paths = (
{
closed = 1;
nodes = (
"868 263 LINE",
"844 244 OFFCURVE",
"723 172 OFFCURVE",
"610 172 CURVE SMOOTH",
"436 172 OFFCURVE",
"330 309 OFFCURVE",
"330 525 CURVE SMOOTH",
"330 754 OFFCURVE",
"452 868 OFFCURVE",
"564 868 CURVE SMOOTH",
"577 868 OFFCURVE",
"584 868 OFFCURVE",
"599 866 CURVE",
"599 659 LINE",
"615 643 OFFCURVE",
"655 620 OFFCURVE",
"723 620 CURVE SMOOTH",
"789 620 OFFCURVE",
"853 676 OFFCURVE",
"853 759 CURVE SMOOTH",
"853 877 OFFCURVE",
"728 962 OFFCURVE",
"535 962 CURVE SMOOTH",
"271 962 OFFCURVE",
"59 763 OFFCURVE",
"59 471 CURVE SMOOTH",
"59 230 OFFCURVE",
"218 17 OFFCURVE",
"505 17 CURVE SMOOTH",
"681 17 OFFCURVE",
"815 91 OFFCURVE",
"868 121 CURVE"
);
}
);
vertWidth = 0;
width = 925;
}
);
unicode = 0063;
},
{
glyphname = d;
layers = (
{
layerId = "3590996D-50CB-43A2-BF30-26B998A874F2";
paths = (
{
closed = 1;
nodes = (
"991 112 LINE",
"912 117 LINE SMOOTH",
"886 119 OFFCURVE",
"873 133 OFFCURVE",
"873 158 CURVE SMOOTH",
"873 1398 LINE",
"800 1398 LINE",
"562 1327 LINE",
"562 1266 LINE",
"702 1266 LINE",
"702 928 LINE",
"644 943 OFFCURVE",
"588 950 OFFCURVE",
"533 950 CURVE SMOOTH",
"241 950 OFFCURVE",
"63 742 OFFCURVE",
"63 460 CURVE SMOOTH",
"63 230 OFFCURVE",
"184 18 OFFCURVE",
"417 18 CURVE SMOOTH",
"502 18 OFFCURVE",
"597 58 OFFCURVE",
"702 138 CURVE",
"702 40 LINE",
"991 40 LINE"
);
},
{
closed = 1;
nodes = (
"633 165 OFFCURVE",
"570 143 OFFCURVE",
"512 143 CURVE SMOOTH",
"333 143 OFFCURVE",
"246 303 OFFCURVE",
"246 492 CURVE SMOOTH",
"246 694 OFFCURVE",
"347 863 OFFCURVE",
"545 863 CURVE SMOOTH",
"597 863 OFFCURVE",
"649 854 OFFCURVE",
"702 835 CURVE",
"702 207 LINE"
);
}
);
vertWidth = 0;
width = 1039;
},
{
layerId = "0032BCCA-E182-473F-BEC5-A72B788B9C41";
paths = (
{
closed = 1;
nodes = (
"1075 126 LINE",
"997 132 LINE SMOOTH",
"975 134 OFFCURVE",
"957 152 OFFCURVE",
"957 175 CURVE SMOOTH",
"957 1404 LINE",
"862 1404 LINE",
"575 1312 LINE",
"575 1236 LINE",
"712 1236 LINE",
"712 939 LINE",
"668 949 OFFCURVE",
"591 962 OFFCURVE",
"540 962 CURVE SMOOTH",
"262 962 OFFCURVE",
"59 786 OFFCURVE",
"59 469 CURVE SMOOTH",
"59 209 OFFCURVE",
"195 17 OFFCURVE",
"420 17 CURVE SMOOTH",
"534 17 OFFCURVE",
"669 109 OFFCURVE",
"712 147 CURVE",
"712 40 LINE",
"1075 40 LINE"
);
},
{
closed = 1;
nodes = (
"678 208 OFFCURVE",
"616 188 OFFCURVE",
"568 188 CURVE SMOOTH",
"408 188 OFFCURVE",
"328 318 OFFCURVE",
"328 512 CURVE SMOOTH",
"328 701 OFFCURVE",
"409 851 OFFCURVE",
"580 851 CURVE SMOOTH",
"621 851 OFFCURVE",
"679 832 OFFCURVE",
"712 818 CURVE",
"712 223 LINE"
);
}
);
vertWidth = 0;
width = 1122;
}
);
unicode = 0064;
},
{
glyphname = e;
layers = (
{
layerId = "3590996D-50CB-43A2-BF30-26B998A874F2";
paths = (
{
closed = 1;
nodes = (
"841 244 LINE",
"727 169 OFFCURVE",
"630 131 OFFCURVE",
"549 131 CURVE SMOOTH",
"328 131 OFFCURVE",
"241 307 OFFCURVE",
"241 521 CURVE",
"839 521 LINE",
"840 532 OFFCURVE",
"841 549 OFFCURVE",
"841 573 CURVE SMOOTH",
"841 795 OFFCURVE",
"724 950 OFFCURVE",
"496 950 CURVE SMOOTH",
"227 950 OFFCURVE",
"63 746 OFFCURVE",
"63 475 CURVE SMOOTH",
"63 206 OFFCURVE",
"227 18 OFFCURVE",
"490 18 CURVE SMOOTH",
"603 18 OFFCURVE",
"719 56 OFFCURVE",
"841 132 CURVE"
);
},
{
closed = 1;
nodes = (
"251 604 LINE",
"260 752 OFFCURVE",
"345 861 OFFCURVE",
"478 861 CURVE SMOOTH",
"599 861 OFFCURVE",
"656 769 OFFCURVE",
"656 645 CURVE SMOOTH",
"656 604 LINE"
);
}
);
vertWidth = 0;
width = 904;
},
{
layerId = "0032BCCA-E182-473F-BEC5-A72B788B9C41";
paths = (
{
closed = 1;
nodes = (
"918 274 LINE",
"860 229 OFFCURVE",
"733 170 OFFCURVE",
"598 170 CURVE SMOOTH",
"417 170 OFFCURVE",
"313 296 OFFCURVE",
"313 497 CURVE",
"918 497 LINE",
"918 512 OFFCURVE",
"918 526 OFFCURVE",
"918 541 CURVE SMOOTH",
"918 755 OFFCURVE",
"813 962 OFFCURVE",
"524 962 CURVE SMOOTH",
"243 962 OFFCURVE",
"59 757 OFFCURVE",
"59 478 CURVE SMOOTH",
"59 223 OFFCURVE",
"216 17 OFFCURVE",
"529 17 CURVE SMOOTH",
"700 17 OFFCURVE",
"851 79 OFFCURVE",
"918 126 CURVE"
);
},
{
closed = 1;
nodes = (
"322 601 LINE",
"322 717 OFFCURVE",
"367 853 OFFCURVE",
"503 853 CURVE SMOOTH",
"612 853 OFFCURVE",
"654 759 OFFCURVE",
"654 641 CURVE SMOOTH",
"654 601 LINE"
);
}
);
vertWidth = 0;
width = 975;
}
);
unicode = 0065;
},
{
glyphname = f;
layers = (
{
layerId = "3590996D-50CB-43A2-BF30-26B998A874F2";
paths = (
{
closed = 1;
nodes = (
"717 1365 OFFCURVE",
"639 1398 OFFCURVE",
"559 1398 CURVE SMOOTH",
"310 1398 OFFCURVE",
"183 1166 OFFCURVE",
"183 917 CURVE",
"65 883 LINE",
"65 820 LINE",
"183 820 LINE",
"183 158 LINE SMOOTH",
"183 133 OFFCURVE",
"170 118 OFFCURVE",
"144 117 CURVE SMOOTH",
"53 112 LINE",
"53 40 LINE",
"501 40 LINE",
"501 112 LINE",
"392 117 LINE SMOOTH",
"366 118 OFFCURVE",
"354 132 OFFCURVE",
"354 158 CURVE SMOOTH",
"354 820 LINE",
"582 820 LINE",
"582 913 LINE",
"354 913 LINE",
"354 1031 LINE SMOOTH",
"354 1178 OFFCURVE",
"390 1271 OFFCURVE",
"463 1309 CURVE",
"632 1187 LINE",
"688 1204 OFFCURVE",
"717 1237 OFFCURVE",
"717 1287 CURVE SMOOTH"
);
}
);
vertWidth = 0;
width = 601;
},
{
layerId = "0032BCCA-E182-473F-BEC5-A72B788B9C41";
paths = (
{
closed = 1;
nodes = (
"774 1361 OFFCURVE",
"670 1404 OFFCURVE",
"598 1404 CURVE SMOOTH",
"355 1404 OFFCURVE",
"171 1167 OFFCURVE",
"171 934 CURVE",
"53 873 LINE",
"53 800 LINE",
"174 800 LINE",
"174 175 LINE SMOOTH",
"174 152 OFFCURVE",
"155 133 OFFCURVE",
"132 132 CURVE SMOOTH",
"39 126 LINE",
"39 40 LINE",
"573 40 LINE",
"573 126 LINE",
"461 132 LINE",
"436 133 OFFCURVE",
"420 152 OFFCURVE",
"420 175 CURVE SMOOTH",
"420 800 LINE",
"619 800 LINE",
"619 917 LINE",
"418 917 LINE",
"418 1025 LINE SMOOTH",
"418 1192 OFFCURVE",
"440 1251 OFFCURVE",
"477 1306 CURVE",
"660 1135 LINE",
"719 1155 OFFCURVE",
"774 1199 OFFCURVE",
"774 1257 CURVE SMOOTH"
);
}
);
vertWidth = 0;
width = 640;
}
);
unicode = 0066;
},
{
glyphname = g;
layers = (
{
layerId = "3590996D-50CB-43A2-BF30-26B998A874F2";
paths = (
{
closed = 1;
nodes = (
"937 895 LINE",
"688 895 LINE",
"608 932 OFFCURVE",
"537 950 OFFCURVE",
"474 950 CURVE SMOOTH",
"267 950 OFFCURVE",
"103 842 OFFCURVE",
"103 638 CURVE SMOOTH",
"103 495 OFFCURVE",
"200 390 OFFCURVE",
"332 360 CURVE",
"270 296 OFFCURVE",
"239 239 OFFCURVE",
"239 188 CURVE SMOOTH",
"239 169 OFFCURVE",
"246 141 OFFCURVE",
"258 103 CURVE",
"137 80 OFFCURVE",
"63 1 OFFCURVE",
"63 -120 CURVE SMOOTH",
"63 -298 OFFCURVE",
"229 -383 OFFCURVE",
"409 -383 CURVE SMOOTH",
"624 -383 OFFCURVE",
"888 -246 OFFCURVE",
"888 -34 CURVE SMOOTH",
"888 173 OFFCURVE",
"595 204 OFFCURVE",
"389 224 CURVE",
"383 240 OFFCURVE",
"381 255 OFFCURVE",
"381 271 CURVE SMOOTH",
"381 297 OFFCURVE",
"389 323 OFFCURVE",
"404 348 CURVE",
"416 347 OFFCURVE",
"428 347 OFFCURVE",
"441 347 CURVE SMOOTH",
"628 347 OFFCURVE",
"802 452 OFFCURVE",
"802 639 CURVE SMOOTH",
"802 697 OFFCURVE",
"786 752 OFFCURVE",
"752 805 CURVE",
"937 805 LINE"
);
},
{
closed = 1;
nodes = (
"627 533 OFFCURVE",
"572 423 OFFCURVE",
"455 423 CURVE SMOOTH",
"337 423 OFFCURVE",
"281 530 OFFCURVE",
"281 648 CURVE SMOOTH",
"281 771 OFFCURVE",
"336 874 OFFCURVE",
"455 874 CURVE SMOOTH",
"570 874 OFFCURVE",
"627 765 OFFCURVE",
"627 650 CURVE SMOOTH"
);
},
{
closed = 1;
nodes = (
"730 -204 OFFCURVE",
"609 -297 OFFCURVE",
"470 -297 CURVE SMOOTH",
"341 -297 OFFCURVE",
"229 -208 OFFCURVE",
"229 -83 CURVE SMOOTH",
"229 -1 OFFCURVE",
"275 56 OFFCURVE",
"369 89 CURVE",
"515 75 OFFCURVE",
"730 52 OFFCURVE",
"730 -83 CURVE SMOOTH"
);
}
);
vertWidth = 0;
width = 967;
},
{
background = {
paths = (
{
closed = 0;
nodes = (
"475 349 LINE SMOOTH"
);
}
);
};
layerId = "0032BCCA-E182-473F-BEC5-A72B788B9C41";
paths = (
{
closed = 1;
nodes = (
"1006 905 LINE",
"767 905 LINE",
"716 925 OFFCURVE",
"619 962 OFFCURVE",
"503 962 CURVE SMOOTH",
"278 962 OFFCURVE",
"95 860 OFFCURVE",
"95 639 CURVE SMOOTH",
"95 448 OFFCURVE",
"258 377 OFFCURVE",
"322 362 CURVE",
"253 300 OFFCURVE",
"220 254 OFFCURVE",
"220 191 CURVE SMOOTH",
"220 167 OFFCURVE",
"227 126 OFFCURVE",
"243 93 CURVE",
"240 94 OFFCURVE",
"236 94 OFFCURVE",
"232 94 CURVE SMOOTH",
"176 94 OFFCURVE",
"59 43 OFFCURVE",
"59 -100 CURVE SMOOTH",
"59 -298 OFFCURVE",
"260 -386 OFFCURVE",
"454 -386 CURVE SMOOTH",
"695 -386 OFFCURVE",
"951 -247 OFFCURVE",
"951 -34 CURVE SMOOTH",
"951 121 OFFCURVE",
"795 206 OFFCURVE",
"391 239 CURVE",
"386 252 OFFCURVE",
"383 263 OFFCURVE",
"383 273 CURVE SMOOTH",
"383 305 OFFCURVE",
"407 327 OFFCURVE",
"440 350 CURVE",
"451 349 OFFCURVE",
"463 349 OFFCURVE",
"475 349 CURVE SMOOTH",
"648 349 OFFCURVE",
"881 425 OFFCURVE",
"881 656 CURVE SMOOTH",
"881 711 OFFCURVE",
"864 755 OFFCURVE",
"844 796 CURVE",
"1006 796 LINE"
);
},
{
closed = 1;
nodes = (
"638 550 OFFCURVE",
"596 436 OFFCURVE",
"496 436 CURVE SMOOTH",
"394 436 OFFCURVE",
"350 548 OFFCURVE",
"350 657 CURVE SMOOTH",
"350 763 OFFCURVE",
"389 872 OFFCURVE",
"499 872 CURVE SMOOTH",
"591 872 OFFCURVE",
"638 761 OFFCURVE",
"638 659 CURVE SMOOTH"
);
},
{
closed = 1;
nodes = (
"714 -207 OFFCURVE",
"603 -284 OFFCURVE",
"505 -284 CURVE SMOOTH",
"408 -284 OFFCURVE",
"302 -192 OFFCURVE",
"302 -74 CURVE SMOOTH",
"302 -26 OFFCURVE",
"327 21 OFFCURVE",
"359 70 CURVE",
"482 58 OFFCURVE",
"714 32 OFFCURVE",
"714 -87 CURVE SMOOTH"
);
}
);
vertWidth = 0;
width = 1023;
}
);
unicode = 0067;
},
{
glyphname = h;
layers = (
{
layerId = "3590996D-50CB-43A2-BF30-26B998A874F2";
paths = (
{
closed = 1;
nodes = (
"1016 112 LINE",
"932 117 LINE SMOOTH",
"905 119 OFFCURVE",
"892 133 OFFCURVE",
"892 158 CURVE SMOOTH",
"892 672 LINE SMOOTH",
"892 837 OFFCURVE",
"805 950 OFFCURVE",
"642 950 CURVE SMOOTH",
"562 950 OFFCURVE",
"461 912 OFFCURVE",
"337 836 CURVE",
"337 1398 LINE",
"264 1398 LINE",
"28 1327 LINE",
"28 1266 LINE",
"166 1266 LINE",
"166 158 LINE SMOOTH",
"166 133 OFFCURVE",
"154 118 OFFCURVE",
"128 117 CURVE SMOOTH",
"39 112 LINE",
"39 40 LINE",
"454 40 LINE",
"454 112 LINE",
"374 117 LINE SMOOTH",
"350 119 OFFCURVE",
"337 133 OFFCURVE",
"337 158 CURVE SMOOTH",
"337 763 LINE",
"403 799 OFFCURVE",
"470 817 OFFCURVE",
"538 817 CURVE SMOOTH",
"660 817 OFFCURVE",
"721 755 OFFCURVE",
"721 633 CURVE SMOOTH",
"721 158 LINE SMOOTH",
"721 133 OFFCURVE",
"707 119 OFFCURVE",
"680 117 CURVE SMOOTH",
"605 112 LINE",
"605 40 LINE",
"1016 40 LINE"
);
}
);
vertWidth = 0;
width = 1058;
},
{
layerId = "0032BCCA-E182-473F-BEC5-A72B788B9C41";
paths = (
{
closed = 1;
nodes = (
"1106 126 LINE",
"1029 132 LINE SMOOTH",
"1006 134 OFFCURVE",
"988 152 OFFCURVE",
"988 175 CURVE SMOOTH",
"988 672 LINE SMOOTH",
"988 781 OFFCURVE",
"953 962 OFFCURVE",
"735 962 CURVE SMOOTH",
"630 962 OFFCURVE",
"490 896 OFFCURVE",
"413 847 CURVE",
"413 1404 LINE",
"317 1404 LINE",
"35 1312 LINE",
"35 1236 LINE",
"166 1236 LINE",
"166 175 LINE SMOOTH",
"166 152 OFFCURVE",
"148 134 OFFCURVE",
"125 132 CURVE SMOOTH",
"49 126 LINE",
"49 40 LINE",
"517 40 LINE",
"517 126 LINE",
"454 132 LINE SMOOTH",
"431 134 OFFCURVE",
"413 152 OFFCURVE",
"413 175 CURVE SMOOTH",
"413 768 LINE",
"456 778 OFFCURVE",
"532 792 OFFCURVE",
"586 792 CURVE SMOOTH",
"723 792 OFFCURVE",
"741 670 OFFCURVE",
"741 610 CURVE SMOOTH",
"741 175 LINE SMOOTH",
"741 152 OFFCURVE",
"723 134 OFFCURVE",
"700 132 CURVE SMOOTH",
"642 126 LINE",
"642 40 LINE",
"1106 40 LINE"
);
}
);
vertWidth = 0;
width = 1154;
}
);
unicode = 0068;
},
{
glyphname = i;
layers = (
{
layerId = "3590996D-50CB-43A2-BF30-26B998A874F2";
paths = (
{
closed = 1;
nodes = (
"401 1300 OFFCURVE",
"348 1345 OFFCURVE",
"290 1345 CURVE SMOOTH",
"227 1345 OFFCURVE",
"175 1295 OFFCURVE",
"175 1232 CURVE SMOOTH",
"175 1170 OFFCURVE",
"224 1118 OFFCURVE",
"290 1118 CURVE SMOOTH",
"354 1118 OFFCURVE",
"401 1168 OFFCURVE",
"401 1232 CURVE SMOOTH"
);
},
{
closed = 1;
nodes = (
"496 112 LINE",
"401 117 LINE SMOOTH",
"375 118 OFFCURVE",
"363 132 OFFCURVE",
"363 158 CURVE SMOOTH",
"363 950 LINE",
"290 950 LINE",
"65 880 LINE",
"65 817 LINE",
"192 817 LINE",
"192 158 LINE SMOOTH",
"192 133 OFFCURVE",
"179 118 OFFCURVE",
"153 117 CURVE SMOOTH",
"63 112 LINE",
"63 40 LINE",
"496 40 LINE"
);
}
);
vertWidth = 0;
width = 559;
},
{
layerId = "0032BCCA-E182-473F-BEC5-A72B788B9C41";
paths = (
{
closed = 1;
nodes = (
"455 1341 OFFCURVE",
"391 1404 OFFCURVE",
"311 1404 CURVE SMOOTH",
"232 1404 OFFCURVE",
"169 1341 OFFCURVE",
"169 1262 CURVE SMOOTH",
"169 1183 OFFCURVE",
"232 1118 OFFCURVE",
"311 1118 CURVE SMOOTH",
"391 1118 OFFCURVE",
"455 1183 OFFCURVE",
"455 1262 CURVE SMOOTH"
);
},
{
closed = 1;
nodes = (
"561 126 LINE",
"472 132 LINE SMOOTH",
"450 134 OFFCURVE",
"429 152 OFFCURVE",
"429 175 CURVE SMOOTH",
"429 962 LINE",
"336 962 LINE",
"67 870 LINE",
"67 794 LINE",
"184 794 LINE",
"184 175 LINE SMOOTH",
"184 152 OFFCURVE",
"166 134 OFFCURVE",
"144 132 CURVE SMOOTH",
"59 126 LINE",
"59 40 LINE",
"561 40 LINE"
);
}
);
vertWidth = 0;
width = 614;
}
);
unicode = 0069;
},
{
glyphname = j;
layers = (
{
layerId = "3590996D-50CB-43A2-BF30-26B998A874F2";
paths = (
{
closed = 1;
nodes = (
"392 1298 OFFCURVE",
"340 1345 OFFCURVE",
"280 1345 CURVE SMOOTH",
"217 1345 OFFCURVE",
"166 1297 OFFCURVE",
"166 1232 CURVE SMOOTH",
"166 1168 OFFCURVE",
"216 1118 OFFCURVE",
"280 1118 CURVE SMOOTH",
"341 1118 OFFCURVE",
"392 1167 OFFCURVE",
"392 1232 CURVE SMOOTH"
);
},
{
closed = 1;
nodes = (
"372 950 LINE",
"297 950 LINE",
"70 881 LINE",
"70 819 LINE",
"201 819 LINE",
"201 2 LINE SMOOTH",
"201 -163 OFFCURVE",
"171 -263 OFFCURVE",
"112 -297 CURVE",
"-67 -173 LINE",
"-120 -192 OFFCURVE",
"-146 -227 OFFCURVE",
"-146 -280 CURVE SMOOTH",
"-146 -349 OFFCURVE",
"-99 -383 OFFCURVE",
"-5 -383 CURVE SMOOTH",
"124 -383 OFFCURVE",
"226 -325 OFFCURVE",
"301 -210 CURVE SMOOTH",
"348 -137 OFFCURVE",
"372 -14 OFFCURVE",
"372 159 CURVE"
);
}
);
vertWidth = 0;
width = 538;
},
{
layerId = "0032BCCA-E182-473F-BEC5-A72B788B9C41";
paths = (
{
closed = 1;
nodes = (
"448 1341 OFFCURVE",
"385 1404 OFFCURVE",
"306 1404 CURVE SMOOTH",
"227 1404 OFFCURVE",
"162 1341 OFFCURVE",
"162 1262 CURVE SMOOTH",
"162 1183 OFFCURVE",
"227 1118 OFFCURVE",
"306 1118 CURVE SMOOTH",
"385 1118 OFFCURVE",
"448 1183 OFFCURVE",
"448 1262 CURVE SMOOTH"
);
},
{
closed = 1;
nodes = (
"429 962 LINE",
"336 962 LINE",
"53 870 LINE",
"53 794 LINE",
"184 794 LINE",
"184 31 LINE",
"184 31 OFFCURVE",
"190 -211 OFFCURVE",
"132 -305 CURVE",
"-48 -122 LINE",
"-111 -127 OFFCURVE",
"-166 -180 OFFCURVE",
"-166 -245 CURVE SMOOTH",
"-166 -336 OFFCURVE",
"-81 -386 OFFCURVE",
"18 -386 CURVE SMOOTH",
"160 -386 OFFCURVE",
"262 -327 OFFCURVE",
"328 -236 CURVE SMOOTH",
"398 -139 OFFCURVE",
"429 -8 OFFCURVE",
"429 126 CURVE"
);
}
);
vertWidth = 0;
width = 598;
}
);
unicode = 006A;
},
{
glyphname = k;
layers = (
{
layerId = "3590996D-50CB-43A2-BF30-26B998A874F2";
paths = (
{
closed = 1;
nodes = (
"966 112 LINE",
"868 123 LINE",
"552 584 LINE",
"795 844 LINE",
"913 856 LINE",
"913 928 LINE",
"555 928 LINE",
"555 856 LINE",
"631 849 LINE SMOOTH",
"639 848 OFFCURVE",
"645 845 OFFCURVE",
"648 836 CURVE SMOOTH",
"651 829 OFFCURVE",
"650 823 OFFCURVE",
"645 818 CURVE SMOOTH",
"374 512 LINE",
"337 512 LINE",
"337 1398 LINE",
"262 1398 LINE",
"26 1327 LINE",
"26 1266 LINE",
"166 1266 LINE",
"166 158 LINE SMOOTH",
"166 133 OFFCURVE",
"154 119 OFFCURVE",
"128 117 CURVE SMOOTH",
"37 112 LINE",
"37 40 LINE",
"455 40 LINE",
"455 112 LINE",
"376 117 LINE SMOOTH",
"350 119 OFFCURVE",
"337 133 OFFCURVE",
"337 158 CURVE SMOOTH",
"337 458 LINE",
"441 458 LINE",
"671 112 LINE",
"671 40 LINE",
"966 40 LINE"
);
}
);
vertWidth = 0;
width = 984;
},
{
layerId = "0032BCCA-E182-473F-BEC5-A72B788B9C41";
paths = (
{
closed = 1;
nodes = (
"1075 126 LINE",
"966 135 LINE",
"682 613 LINE",
"879 838 LINE",
"1001 853 LINE",
"1001 939 LINE",
"617 939 LINE",
"617 853 LINE",
"688 845 LINE",
"706 844 OFFCURVE",
"712 827 OFFCURVE",
"700 814 CURVE",
"454 519 LINE",
"413 519 LINE",
"413 1404 LINE",
"319 1404 LINE",
"37 1312 LINE",
"37 1236 LINE",
"166 1236 LINE",
"166 175 LINE SMOOTH",
"166 152 OFFCURVE",
"148 134 OFFCURVE",
"125 132 CURVE SMOOTH",
"48 126 LINE",
"48 40 LINE",
"527 40 LINE",
"527 126 LINE",
"454 132 LINE SMOOTH",
"429 134 OFFCURVE",
"413 152 OFFCURVE",
"413 175 CURVE SMOOTH",
"413 457 LINE",
"499 457 LINE",
"702 116 LINE",
"702 40 LINE",
"1075 40 LINE"
);
}
);
vertWidth = 0;
width = 1091;
}
);
unicode = 006B;
},
{
glyphname = l;
layers = (
{
layerId = "3590996D-50CB-43A2-BF30-26B998A874F2";
paths = (
{
closed = 1;
nodes = (
"498 112 LINE",
"398 117 LINE SMOOTH",
"382 118 OFFCURVE",
"359 138 OFFCURVE",
"359 156 CURVE SMOOTH",
"359 1398 LINE",
"283 1398 LINE",
"48 1327 LINE",
"48 1266 LINE",
"188 1266 LINE",
"188 156 LINE SMOOTH",
"188 138 OFFCURVE",
"163 118 OFFCURVE",
"148 117 CURVE SMOOTH",
"49 112 LINE",
"49 40 LINE",
"498 40 LINE"
);
}
);
vertWidth = 0;
width = 547;
},
{
layerId = "0032BCCA-E182-473F-BEC5-A72B788B9C41";
paths = (
{
closed = 1;
nodes = (
"562 126 LINE",
"470 132 LINE SMOOTH",
"446 134 OFFCURVE",
"429 151 OFFCURVE",
"429 175 CURVE SMOOTH",
"429 1404 LINE",
"336 1404 LINE",
"53 1312 LINE",
"53 1236 LINE",
"184 1236 LINE",
"184 175 LINE SMOOTH",
"184 151 OFFCURVE",
"167 134 OFFCURVE",
"144 132 CURVE SMOOTH",
"53 126 LINE",
"53 40 LINE",
"562 40 LINE"
);
}
);
vertWidth = 0;
width = 614;
}
);
unicode = 006C;
},
{
glyphname = m;
layers = (
{
layerId = "3590996D-50CB-43A2-BF30-26B998A874F2";
paths = (
{
closed = 1;
nodes = (
"1526 112 LINE",
"1438 117 LINE SMOOTH",
"1412 118 OFFCURVE",
"1399 133 OFFCURVE",
"1399 158 CURVE SMOOTH",
"1399 669 LINE SMOOTH",
"1399 856 OFFCURVE",
"1320 950 OFFCURVE",
"1161 950 CURVE SMOOTH",
"1082 950 OFFCURVE",
"975 908 OFFCURVE",
"841 824 CURVE",
"797 908 OFFCURVE",
"730 950 OFFCURVE",
"638 950 CURVE SMOOTH",
"563 950 OFFCURVE",
"463 912 OFFCURVE",
"337 836 CURVE",
"337 928 LINE",
"262 928 LINE",
"39 859 LINE",
"39 798 LINE",
"166 798 LINE",
"166 158 LINE SMOOTH",
"166 133 OFFCURVE",
"154 118 OFFCURVE",
"128 117 CURVE SMOOTH",
"37 112 LINE",
"37 40 LINE",
"454 40 LINE",
"454 112 LINE",
"376 117 LINE SMOOTH",
"350 119 OFFCURVE",
"337 133 OFFCURVE",
"337 158 CURVE SMOOTH",
"337 763 LINE",
"401 799 OFFCURVE",
"467 817 OFFCURVE",
"535 817 CURVE SMOOTH",
"643 817 OFFCURVE",
"697 757 OFFCURVE",
"697 638 CURVE SMOOTH",
"697 158 LINE SMOOTH",
"697 133 OFFCURVE",
"685 119 OFFCURVE",
"659 117 CURVE SMOOTH",
"581 112 LINE",
"581 40 LINE",
"985 40 LINE",
"985 112 LINE",
"907 117 LINE SMOOTH",
"881 119 OFFCURVE",
"868 133 OFFCURVE",
"868 158 CURVE SMOOTH",
"868 764 LINE",
"937 799 OFFCURVE",
"1003 817 OFFCURVE",
"1065 817 CURVE SMOOTH",
"1174 817 OFFCURVE",
"1228 754 OFFCURVE",
"1228 629 CURVE SMOOTH",
"1228 158 LINE SMOOTH",
"1228 133 OFFCURVE",
"1216 119 OFFCURVE",
"1190 117 CURVE SMOOTH",
"1114 112 LINE",
"1114 40 LINE",
"1526 40 LINE"
);
}
);
vertWidth = 0;
width = 1566;
},
{
layerId = "0032BCCA-E182-473F-BEC5-A72B788B9C41";
paths = (
{
closed = 1;
nodes = (
"1618 126 LINE",
"1552 132 LINE SMOOTH",
"1530 134 OFFCURVE",
"1511 152 OFFCURVE",
"1511 175 CURVE SMOOTH",
"1511 680 LINE SMOOTH",
"1511 766 OFFCURVE",
"1480 962 OFFCURVE",
"1257 962 CURVE SMOOTH",
"1113 962 OFFCURVE",
"929 836 OFFCURVE",
"929 836 CURVE",
"895 877 OFFCURVE",
"846 962 OFFCURVE",
"706 962 CURVE SMOOTH",
"562 962 OFFCURVE",
"404 849 OFFCURVE",
"404 849 CURVE",
"404 962 LINE",
"311 962 LINE",
"40 868 LINE",
"40 792 LINE",
"158 792 LINE",
"158 175 LINE SMOOTH",
"158 152 OFFCURVE",
"140 134 OFFCURVE",
"118 132 CURVE SMOOTH",
"49 126 LINE",
"49 40 LINE",
"503 40 LINE",
"503 126 LINE",
"446 132 LINE SMOOTH",
"424 134 OFFCURVE",
"404 152 OFFCURVE",
"404 175 CURVE SMOOTH",
"404 763 LINE",
"404 763 OFFCURVE",
"452 792 OFFCURVE",
"553 792 CURVE SMOOTH",
"667 792 OFFCURVE",
"712 709 OFFCURVE",
"712 619 CURVE SMOOTH",
"712 175 LINE SMOOTH",
"712 152 OFFCURVE",
"693 134 OFFCURVE",
"670 132 CURVE SMOOTH",
"614 126 LINE",
"614 40 LINE",
"1057 40 LINE",
"1057 126 LINE",
"999 132 LINE SMOOTH",
"976 134 OFFCURVE",
"958 152 OFFCURVE",
"958 175 CURVE SMOOTH",
"958 763 LINE",
"958 763 OFFCURVE",
"1027 792 OFFCURVE",
"1106 792 CURVE SMOOTH",
"1228 792 OFFCURVE",
"1266 709 OFFCURVE",
"1266 619 CURVE SMOOTH",
"1266 175 LINE SMOOTH",
"1266 152 OFFCURVE",
"1246 134 OFFCURVE",
"1224 132 CURVE SMOOTH",
"1166 126 LINE",
"1166 40 LINE",
"1618 40 LINE"
);
}
);
vertWidth = 0;
width = 1669;
}
);
unicode = 006D;
},
{
glyphname = n;
layers = (
{
layerId = "3590996D-50CB-43A2-BF30-26B998A874F2";
paths = (
{
closed = 1;
nodes = (
"1008 112 LINE",
"927 117 LINE SMOOTH",
"901 119 OFFCURVE",
"888 133 OFFCURVE",
"888 158 CURVE SMOOTH",
"888 667 LINE SMOOTH",
"888 855 OFFCURVE",
"806 950 OFFCURVE",
"642 950 CURVE SMOOTH",
"571 950 OFFCURVE",
"470 912 OFFCURVE",
"337 836 CURVE",
"337 928 LINE",
"262 928 LINE",
"37 859 LINE",
"37 798 LINE",
"166 798 LINE",
"166 158 LINE SMOOTH",
"166 133 OFFCURVE",
"154 118 OFFCURVE",
"128 117 CURVE SMOOTH",
"37 112 LINE",
"37 40 LINE",
"454 40 LINE",
"454 112 LINE",
"376 117 LINE SMOOTH",
"350 119 OFFCURVE",
"337 133 OFFCURVE",
"337 158 CURVE SMOOTH",
"337 763 LINE",
"409 799 OFFCURVE",
"477 817 OFFCURVE",
"540 817 CURVE SMOOTH",
"658 817 OFFCURVE",
"717 756 OFFCURVE",
"717 637 CURVE SMOOTH",
"717 158 LINE SMOOTH",
"717 133 OFFCURVE",
"705 119 OFFCURVE",
"679 117 CURVE SMOOTH",
"601 112 LINE",
"601 40 LINE",
"1008 40 LINE"
);
}
);
vertWidth = 0;
width = 1045;
},
{
layerId = "0032BCCA-E182-473F-BEC5-A72B788B9C41";
paths = (
{
closed = 1;
nodes = (
"1085 126 LINE",
"1029 132 LINE SMOOTH",
"1006 134 OFFCURVE",
"986 152 OFFCURVE",
"986 175 CURVE SMOOTH",
"986 641 LINE SMOOTH",
"986 801 OFFCURVE",
"948 962 OFFCURVE",
"735 962 CURVE SMOOTH",
"577 962 OFFCURVE",
"413 849 OFFCURVE",
"413 849 CURVE",
"413 962 LINE",
"317 962 LINE",
"39 868 LINE",
"39 792 LINE",
"166 792 LINE",
"166 175 LINE SMOOTH",
"166 152 OFFCURVE",
"148 134 OFFCURVE",
"125 132 CURVE SMOOTH",
"59 126 LINE",
"59 40 LINE",
"510 40 LINE",
"510 126 LINE",
"455 132 LINE SMOOTH",
"433 134 OFFCURVE",
"413 152 OFFCURVE",
"413 175 CURVE SMOOTH",
"413 768 LINE",
"413 768 OFFCURVE",
"489 792 OFFCURVE",
"589 792 CURVE SMOOTH",
"700 792 OFFCURVE",
"741 701 OFFCURVE",
"741 608 CURVE SMOOTH",
"741 175 LINE SMOOTH",
"741 152 OFFCURVE",
"723 134 OFFCURVE",
"700 132 CURVE SMOOTH",
"632 126 LINE",
"632 40 LINE",
"1085 40 LINE"
);
}
);
vertWidth = 0;
width = 1152;
}
);
unicode = 006E;
},
{
glyphname = o;
layers = (
{
layerId = "3590996D-50CB-43A2-BF30-26B998A874F2";
paths = (
{
closed = 1;
nodes = (
"940 753 OFFCURVE",
"775 950 OFFCURVE",
"506 950 CURVE SMOOTH",
"235 950 OFFCURVE",
"63 751 OFFCURVE",
"63 483 CURVE SMOOTH",
"63 214 OFFCURVE",
"230 18 OFFCURVE",
"499 18 CURVE SMOOTH",
"767 18 OFFCURVE",
"940 215 OFFCURVE",
"940 483 CURVE SMOOTH"
);
},
{
closed = 1;
nodes = (
"749 304 OFFCURVE",
"682 101 OFFCURVE",
"501 101 CURVE SMOOTH",
"324 101 OFFCURVE",
"256 305 OFFCURVE",
"256 485 CURVE SMOOTH",
"256 667 OFFCURVE",
"322 867 OFFCURVE",
"504 867 CURVE SMOOTH",
"681 867 OFFCURVE",
"749 665 OFFCURVE",
"749 485 CURVE SMOOTH"
);
}
);
vertWidth = 0;
width = 1003;
},
{
layerId = "0032BCCA-E182-473F-BEC5-A72B788B9C41";
paths = (
{
closed = 1;
nodes = (
"1020 764 OFFCURVE",
"850 962 OFFCURVE",
"545 962 CURVE SMOOTH",
"260 962 OFFCURVE",
"59 788 OFFCURVE",
"59 486 CURVE SMOOTH",
"59 195 OFFCURVE",
"253 17 OFFCURVE",
"533 17 CURVE SMOOTH",
"839 17 OFFCURVE",
"1020 209 OFFCURVE",
"1020 485 CURVE SMOOTH"
);
},
{
closed = 1;
nodes = (
"744 322 OFFCURVE",
"707 121 OFFCURVE",
"540 121 CURVE SMOOTH",
"369 121 OFFCURVE",
"336 335 OFFCURVE",
"336 494 CURVE SMOOTH",
"336 652 OFFCURVE",
"373 856 OFFCURVE",
"538 856 CURVE SMOOTH",
"707 856 OFFCURVE",
"744 643 OFFCURVE",
"744 486 CURVE SMOOTH"
);
}
);
vertWidth = 0;
width = 1076;
}
);
unicode = 006F;
},
{
glyphname = p;
layers = (
{
layerId = "3590996D-50CB-43A2-BF30-26B998A874F2";
paths = (
{
closed = 1;
nodes = (
"967 746 OFFCURVE",
"830 950 OFFCURVE",
"616 950 CURVE SMOOTH",
"526 950 OFFCURVE",
"434 912 OFFCURVE",
"337 836 CURVE",
"337 928 LINE",
"265 928 LINE",
"40 859 LINE",
"40 798 LINE",
"166 798 LINE",
"166 -241 LINE SMOOTH",
"166 -263 OFFCURVE",
"154 -277 OFFCURVE",
"128 -280 CURVE SMOOTH",
"40 -289 LINE",
"40 -361 LINE",
"487 -361 LINE",
"487 -289 LINE",
"378 -280 LINE SMOOTH",
"351 -278 OFFCURVE",
"337 -264 OFFCURVE",
"337 -241 CURVE SMOOTH",
"337 35 LINE",
"406 24 OFFCURVE",
"461 18 OFFCURVE",
"501 18 CURVE SMOOTH",
"794 18 OFFCURVE",
"967 208 OFFCURVE",
"967 497 CURVE SMOOTH"
);
},
{
closed = 1;
nodes = (
"783 273 OFFCURVE",
"686 103 OFFCURVE",
"487 103 CURVE SMOOTH",
"440 103 OFFCURVE",
"391 113 OFFCURVE",
"337 133 CURVE",
"337 766 LINE",
"406 803 OFFCURVE",
"469 822 OFFCURVE",
"526 822 CURVE SMOOTH",
"705 822 OFFCURVE",
"783 651 OFFCURVE",
"783 472 CURVE SMOOTH"
);
}
);
vertWidth = 0;
width = 1030;
},
{
layerId = "0032BCCA-E182-473F-BEC5-A72B788B9C41";
paths = (
{
closed = 1;
nodes = (
"1054 735 OFFCURVE",
"934 962 OFFCURVE",
"709 962 CURVE SMOOTH",
"561 962 OFFCURVE",
"413 845 OFFCURVE",
"413 845 CURVE",
"413 962 LINE",
"317 962 LINE",
"44 868 LINE",
"44 792 LINE",
"166 792 LINE",
"166 -229 LINE SMOOTH",
"166 -253 OFFCURVE",
"148 -271 OFFCURVE",
"125 -271 CURVE",
"44 -277 LINE",
"44 -364 LINE",
"551 -364 LINE",
"551 -277 LINE",
"454 -271 LINE",
"429 -271 OFFCURVE",
"413 -253 OFFCURVE",
"413 -229 CURVE SMOOTH",
"413 36 LINE",
"413 36 OFFCURVE",
"483 17 OFFCURVE",
"556 17 CURVE SMOOTH",
"860 17 OFFCURVE",
"1054 217 OFFCURVE",
"1054 515 CURVE SMOOTH"
);
},
{
closed = 1;
nodes = (
"781 281 OFFCURVE",
"691 117 OFFCURVE",
"514 117 CURVE SMOOTH",
"475 117 OFFCURVE",
"413 140 OFFCURVE",
"413 140 CURVE",
"413 766 LINE",
"413 766 OFFCURVE",
"485 794 OFFCURVE",
"549 794 CURVE SMOOTH",
"709 794 OFFCURVE",
"781 650 OFFCURVE",
"781 488 CURVE SMOOTH"
);
}
);
vertWidth = 0;
width = 1113;
}
);
unicode = 0070;
},
{
glyphname = q;
layers = (
{
layerId = "3590996D-50CB-43A2-BF30-26B998A874F2";
paths = (
{
closed = 1;
nodes = (
"985 -292 LINE",
"895 -282 LINE SMOOTH",
"869 -279 OFFCURVE",
"857 -266 OFFCURVE",
"857 -244 CURVE SMOOTH",
"857 920 LINE",
"773 940 OFFCURVE",
"687 950 OFFCURVE",
"596 950 CURVE SMOOTH",
"277 950 OFFCURVE",
"63 779 OFFCURVE",
"63 462 CURVE SMOOTH",
"63 221 OFFCURVE",
"195 18 OFFCURVE",
"427 18 CURVE SMOOTH",
"501 18 OFFCURVE",
"588 43 OFFCURVE",
"686 90 CURVE",
"686 -244 LINE SMOOTH",
"686 -267 OFFCURVE",
"673 -280 OFFCURVE",
"647 -282 CURVE SMOOTH",
"538 -292 LINE",
"538 -361 LINE",
"985 -361 LINE"
);
},
{
closed = 1;
nodes = (
"633 135 OFFCURVE",
"580 127 OFFCURVE",
"527 127 CURVE SMOOTH",
"332 127 OFFCURVE",
"249 297 OFFCURVE",
"249 492 CURVE SMOOTH",
"249 706 OFFCURVE",
"347 865 OFFCURVE",
"559 865 CURVE SMOOTH",
"587 865 OFFCURVE",
"629 859 OFFCURVE",
"686 846 CURVE",
"686 152 LINE"
);
}
);
vertWidth = 0;
width = 1012;
},
{
layerId = "0032BCCA-E182-473F-BEC5-A72B788B9C41";
paths = (
{
closed = 1;
nodes = (
"1062 -277 LINE",
"986 -271 LINE",
"964 -271 OFFCURVE",
"946 -253 OFFCURVE",
"946 -229 CURVE SMOOTH",
"946 939 LINE",
"946 939 OFFCURVE",
"779 962 OFFCURVE",
"654 962 CURVE SMOOTH",
"306 962 OFFCURVE",
"59 810 OFFCURVE",
"59 462 CURVE SMOOTH",
"59 224 OFFCURVE",
"199 17 OFFCURVE",
"420 17 CURVE SMOOTH",
"570 17 OFFCURVE",
"698 112 OFFCURVE",
"698 112 CURVE",
"698 -229 LINE SMOOTH",
"698 -253 OFFCURVE",
"682 -271 OFFCURVE",
"658 -271 CURVE",
"556 -277 LINE",
"556 -364 LINE",
"1062 -364 LINE"
);
},
{
closed = 1;
nodes = (
"698 186 OFFCURVE",
"634 179 OFFCURVE",
"580 179 CURVE SMOOTH",
"422 179 OFFCURVE",
"328 304 OFFCURVE",
"328 504 CURVE SMOOTH",
"328 701 OFFCURVE",
"406 853 OFFCURVE",
"625 853 CURVE SMOOTH",
"667 853 OFFCURVE",
"698 845 OFFCURVE",
"698 845 CURVE",
"698 186 LINE"
);
}
);
vertWidth = 0;
width = 1111;
}
);
unicode = 0071;
},
{
glyphname = r;
layers = (
{
layerId = "3590996D-50CB-43A2-BF30-26B998A874F2";
paths = (
{
closed = 1;
nodes = (
"703 923 LINE",
"670 941 OFFCURVE",
"632 950 OFFCURVE",
"590 950 CURVE SMOOTH",
"505 950 OFFCURVE",
"400 830 OFFCURVE",
"346 764 CURVE",
"346 928 LINE",
"271 928 LINE",
"42 859 LINE",
"42 798 LINE",
"175 798 LINE",
"175 158 LINE SMOOTH",
"175 133 OFFCURVE",
"163 119 OFFCURVE",
"137 117 CURVE SMOOTH",
"46 110 LINE",
"46 40 LINE",
"507 40 LINE",
"507 112 LINE",
"385 117 LINE SMOOTH",
"359 118 OFFCURVE",
"346 132 OFFCURVE",
"346 158 CURVE SMOOTH",
"346 676 LINE",
"413 753 OFFCURVE",
"474 791 OFFCURVE",
"531 791 CURVE SMOOTH",
"568 791 OFFCURVE",
"601 773 OFFCURVE",
"631 740 CURVE",
"703 740 LINE"
);
}
);
vertWidth = 0;
width = 721;
},
{
layerId = "0032BCCA-E182-473F-BEC5-A72B788B9C41";
paths = (
{
closed = 1;
nodes = (
"778 928 LINE",
"756 945 OFFCURVE",
"704 962 OFFCURVE",
"661 962 CURVE SMOOTH",
"577 962 OFFCURVE",
"459 825 OFFCURVE",
"413 766 CURVE",
"413 962 LINE",
"317 962 LINE",
"31 868 LINE",
"31 792 LINE",
"166 792 LINE",
"166 172 LINE SMOOTH",
"166 151 OFFCURVE",
"148 131 OFFCURVE",
"125 130 CURVE SMOOTH",
"44 125 LINE",
"44 38 LINE",
"571 38 LINE",
"571 125 LINE",
"454 130 LINE SMOOTH",
"429 131 OFFCURVE",
"413 151 OFFCURVE",
"413 172 CURVE SMOOTH",
"413 689 LINE",
"435 703 OFFCURVE",
"482 722 OFFCURVE",
"533 722 CURVE SMOOTH",
"595 722 OFFCURVE",
"631 679 OFFCURVE",
"652 648 CURVE",
"778 648 LINE"
);
}
);
vertWidth = 0;
width = 796;
}
);
unicode = 0072;
},
{
glyphname = s;
layers = (
{
layerId = "3590996D-50CB-43A2-BF30-26B998A874F2";
paths = (
{
closed = 1;
nodes = (
"671 361 OFFCURVE",
"649 408 OFFCURVE",
"608 450 CURVE SMOOTH",
"575 484 OFFCURVE",
"520 515 OFFCURVE",
"448 549 CURVE SMOOTH",
"368 587 OFFCURVE",
"314 616 OFFCURVE",
"288 639 CURVE SMOOTH",
"258 665 OFFCURVE",
"244 699 OFFCURVE",
"244 739 CURVE SMOOTH",
"244 821 OFFCURVE",
"293 863 OFFCURVE",
"393 863 CURVE SMOOTH",
"450 863 OFFCURVE",
"497 848 OFFCURVE",
"533 820 CURVE",
"548 690 LINE",
"643 690 LINE",
"643 908 LINE",
"581 935 OFFCURVE",
"502 950 OFFCURVE",
"408 950 CURVE SMOOTH",
"223 950 OFFCURVE",
"76 868 OFFCURVE",
"76 683 CURVE SMOOTH",
"76 630 OFFCURVE",
"94 585 OFFCURVE",
"130 548 CURVE SMOOTH",
"160 517 OFFCURVE",
"211 485 OFFCURVE",
"284 449 CURVE SMOOTH",
"373 405 OFFCURVE",
"429 376 OFFCURVE",
"450 360 CURVE SMOOTH",
"490 329 OFFCURVE",
"509 291 OFFCURVE",
"509 245 CURVE SMOOTH",
"509 158 OFFCURVE",
"433 101 OFFCURVE",
"343 101 CURVE SMOOTH",
"285 101 OFFCURVE",
"230 118 OFFCURVE",
"179 152 CURVE",
"157 310 LINE",
"63 310 LINE",
"63 63 LINE",
"138 34 OFFCURVE",
"223 18 OFFCURVE",
"319 18 CURVE SMOOTH",
"517 18 OFFCURVE",
"671 108 OFFCURVE",
"671 306 CURVE SMOOTH"
);
}
);
vertWidth = 0;
width = 734;
},
{
layerId = "0032BCCA-E182-473F-BEC5-A72B788B9C41";
paths = (
{
closed = 1;
nodes = (
"763 441 OFFCURVE",
"649 503 OFFCURVE",
"503 578 CURVE SMOOTH",
"406 628 OFFCURVE",
"317 676 OFFCURVE",
"317 749 CURVE SMOOTH",
"317 814 OFFCURVE",
"369 851 OFFCURVE",
"455 851 CURVE SMOOTH",
"522 851 OFFCURVE",
"575 833 OFFCURVE",
"599 805 CURVE",
"619 657 LINE",
"733 657 LINE",
"733 912 LINE",
"641 948 OFFCURVE",
"532 962 OFFCURVE",
"440 962 CURVE",
"225 962 OFFCURVE",
"70 853 OFFCURVE",
"70 682 CURVE SMOOTH",
"70 560 OFFCURVE",
"160 493 OFFCURVE",
"328 416 CURVE SMOOTH",
"470 351 OFFCURVE",
"527 312 OFFCURVE",
"527 244 CURVE SMOOTH",
"527 202 OFFCURVE",
"494 126 OFFCURVE",
"369 126 CURVE SMOOTH",
"310 126 OFFCURVE",
"202 167 OFFCURVE",
"197 179 CURVE",
"190 230 OFFCURVE",
"179 312 OFFCURVE",
"175 348 CURVE",
"59 348 LINE",
"59 68 LINE",
"122 46 OFFCURVE",
"255 17 OFFCURVE",
"387 17 CURVE SMOOTH",
"570 17 OFFCURVE",
"763 95 OFFCURVE",
"763 327 CURVE SMOOTH"
);
}
);
vertWidth = 0;
width = 820;
}
);
unicode = 0073;
},
{
glyphname = t;
layers = (
{
layerId = "3590996D-50CB-43A2-BF30-26B998A874F2";
paths = (
{
closed = 1;
nodes = (
"615 152 LINE",
"573 132 OFFCURVE",
"530 122 OFFCURVE",
"486 122 CURVE SMOOTH",
"388 122 OFFCURVE",
"338 188 OFFCURVE",
"338 322 CURVE SMOOTH",
"338 836 LINE",
"598 836 LINE",
"598 928 LINE",
"338 928 LINE",
"338 1151 LINE",
"258 1151 LINE",
"175 955 LINE",
"49 897 LINE",
"49 836 LINE",
"167 836 LINE",
"167 224 LINE SMOOTH",
"167 84 OFFCURVE",
"224 18 OFFCURVE",
"364 18 CURVE SMOOTH",
"446 18 OFFCURVE",
"530 38 OFFCURVE",
"615 79 CURVE"
);
}
);
vertWidth = 0;
width = 626;
},
{
layerId = "0032BCCA-E182-473F-BEC5-A72B788B9C41";
paths = (
{
closed = 1;
nodes = (
"684 172 LINE",
"658 167 OFFCURVE",
"607 160 OFFCURVE",
"564 160 CURVE SMOOTH",
"466 160 OFFCURVE",
"413 202 OFFCURVE",
"413 320 CURVE SMOOTH",
"413 821 LINE",
"669 821 LINE",
"669 939 LINE",
"413 939 LINE",
"413 1176 LINE",
"285 1176 LINE",
"186 980 LINE",
"44 895 LINE",
"44 821 LINE",
"166 821 LINE",
"166 244 LINE SMOOTH",
"166 89 OFFCURVE",
"225 17 OFFCURVE",
"389 17 CURVE SMOOTH",
"498 17 OFFCURVE",
"621 53 OFFCURVE",
"684 80 CURVE"
);
}
);
vertWidth = 0;
width = 691;
}
);
unicode = 0074;
},
{
glyphname = u;
layers = (
{
layerId = "3590996D-50CB-43A2-BF30-26B998A874F2";
paths = (
{
closed = 1;
nodes = (
"1010 112 LINE",
"929 117 LINE SMOOTH",
"902 119 OFFCURVE",
"888 133 OFFCURVE",
"888 158 CURVE SMOOTH",
"888 950 LINE",
"813 950 LINE",
"588 879 LINE",
"588 816 LINE",
"717 816 LINE",
"717 198 LINE",
"644 161 OFFCURVE",
"578 143 OFFCURVE",
"517 143 CURVE SMOOTH",
"398 143 OFFCURVE",
"338 213 OFFCURVE",
"338 351 CURVE SMOOTH",
"338 950 LINE",
"265 950 LINE",
"39 879 LINE",
"39 816 LINE",
"167 816 LINE",
"167 316 LINE SMOOTH",
"167 117 OFFCURVE",
"252 18 OFFCURVE",
"422 18 CURVE SMOOTH",
"508 18 OFFCURVE",
"607 61 OFFCURVE",
"717 145 CURVE",
"717 40 LINE",
"1010 40 LINE"
);
}
);
vertWidth = 0;
width = 1048;
},
{
layerId = "0032BCCA-E182-473F-BEC5-A72B788B9C41";
paths = (
{
closed = 1;
nodes = (
"1101 126 LINE",
"1020 132 LINE SMOOTH",
"997 134 OFFCURVE",
"976 152 OFFCURVE",
"976 175 CURVE SMOOTH",
"976 962 LINE",
"883 962 LINE",
"614 870 LINE",
"614 794 LINE",
"730 794 LINE",
"730 217 LINE",
"700 204 OFFCURVE",
"639 186 OFFCURVE",
"582 186 CURVE SMOOTH",
"426 186 OFFCURVE",
"413 300 OFFCURVE",
"413 390 CURVE SMOOTH",
"413 962 LINE",
"317 962 LINE",
"46 870 LINE",
"46 794 LINE",
"166 794 LINE",
"166 318 LINE SMOOTH",
"166 130 OFFCURVE",
"229 17 OFFCURVE",
"438 17 CURVE SMOOTH",
"537 17 OFFCURVE",
"662 88 OFFCURVE",
"730 142 CURVE",
"730 40 LINE",
"1101 40 LINE"
);
}
);
vertWidth = 0;
width = 1143;
}
);
unicode = 0075;
},
{
glyphname = v;
layers = (
{
layerId = "3590996D-50CB-43A2-BF30-26B998A874F2";
paths = (
{
closed = 1;
nodes = (
"957 928 LINE",
"634 928 LINE",
"634 856 LINE",
"717 851 LINE SMOOTH",
"735 850 OFFCURVE",
"745 838 OFFCURVE",
"745 823 CURVE SMOOTH",
"745 819 OFFCURVE",
"744 814 OFFCURVE",
"742 810 CURVE SMOOTH",
"516 233 LINE",
"310 810 LINE SMOOTH",
"309 814 OFFCURVE",
"308 818 OFFCURVE",
"308 821 CURVE SMOOTH",
"308 838 OFFCURVE",
"322 850 OFFCURVE",
"337 851 CURVE SMOOTH",
"426 856 LINE",
"426 928 LINE",
"18 928 LINE",
"18 856 LINE",
"120 845 LINE",
"417 40 LINE",
"536 40 LINE",
"859 845 LINE",
"957 856 LINE"
);
}
);
vertWidth = 0;
width = 975;
},
{
layerId = "0032BCCA-E182-473F-BEC5-A72B788B9C41";
paths = (
{
closed = 1;
nodes = (
"1027 939 LINE",
"669 939 LINE",
"669 853 LINE",
"746 847 LINE SMOOTH",
"763 846 OFFCURVE",
"776 832 OFFCURVE",
"776 817 CURVE SMOOTH",
"776 813 OFFCURVE",
"775 810 OFFCURVE",
"774 807 CURVE SMOOTH",
"573 296 LINE",
"392 807 LINE SMOOTH",
"391 811 OFFCURVE",
"390 815 OFFCURVE",
"390 819 CURVE SMOOTH",
"390 834 OFFCURVE",
"401 846 OFFCURVE",
"418 847 CURVE SMOOTH",
"503 853 LINE",
"503 939 LINE",
"18 939 LINE",
"18 853 LINE",
"127 842 LINE",
"422 40 LINE",
"605 40 LINE",
"922 840 LINE",
"1027 853 LINE"
);
}
);
vertWidth = 0;
width = 1043;
}
);
unicode = 0076;
},
{
glyphname = w;
layers = (
{
layerId = "3590996D-50CB-43A2-BF30-26B998A874F2";
paths = (
{
closed = 1;
nodes = (
"1425 928 LINE",
"1102 928 LINE",
"1102 856 LINE",
"1187 851 LINE SMOOTH",
"1212 849 OFFCURVE",
"1220 836 OFFCURVE",
"1213 810 CURVE SMOOTH",
"1043 237 LINE",
"830 928 LINE",
"698 928 LINE",
"461 237 LINE",
"308 810 LINE SMOOTH",
"301 836 OFFCURVE",
"310 849 OFFCURVE",
"336 851 CURVE SMOOTH",
"422 856 LINE",
"422 928 LINE",
"18 928 LINE",
"18 856 LINE",
"120 845 LINE",
"355 40 LINE",
"487 40 LINE",
"730 729 LINE",
"948 40 LINE",
"1078 40 LINE",
"1331 845 LINE",
"1425 856 LINE"
);
}
);
vertWidth = 0;
width = 1443;
},
{
layerId = "0032BCCA-E182-473F-BEC5-A72B788B9C41";
paths = (
{
closed = 1;
nodes = (
"1534 939 LINE",
"1180 939 LINE",
"1180 853 LINE",
"1261 847 LINE SMOOTH",
"1281 845 OFFCURVE",
"1292 825 OFFCURVE",
"1287 807 CURVE SMOOTH",
"1134 296 LINE",
"936 939 LINE",
"733 939 LINE",
"527 300 LINE",
"383 807 LINE",
"378 827 OFFCURVE",
"391 845 OFFCURVE",
"411 847 CURVE SMOOTH",
"490 853 LINE",
"490 939 LINE",
"18 939 LINE",
"18 853 LINE",
"127 842 LINE",
"365 40 LINE",
"566 40 LINE",
"778 694 LINE",
"978 40 LINE",
"1183 40 LINE",
"1430 840 LINE",
"1534 853 LINE"
);
}
);
vertWidth = 0;
width = 1550;
}
);
unicode = 0077;
},
{
glyphname = x;
layers = (
{
layerId = "3590996D-50CB-43A2-BF30-26B998A874F2";
paths = (
{
closed = 1;
nodes = (
"922 112 LINE",
"822 126 LINE",
"550 525 LINE",
"796 840 LINE",
"896 856 LINE",
"896 928 LINE",
"563 928 LINE",
"563 856 LINE",
"643 847 LINE SMOOTH",
"651 846 OFFCURVE",
"656 842 OFFCURVE",
"660 834 CURVE",
"662 827 OFFCURVE",
"661 820 OFFCURVE",
"657 814 CURVE SMOOTH",
"495 608 LINE",
"351 814 LINE",
"346 820 OFFCURVE",
"346 827 OFFCURVE",
"350 835 CURVE SMOOTH",
"354 842 OFFCURVE",
"360 846 OFFCURVE",
"368 847 CURVE SMOOTH",
"434 856 LINE",
"434 928 LINE",
"27 928 LINE",
"27 856 LINE",
"136 840 LINE",
"388 469 LINE",
"124 126 LINE",
"18 112 LINE",
"18 40 LINE",
"368 40 LINE",
"368 112 LINE",
"277 119 LINE SMOOTH",
"269 120 OFFCURVE",
"264 124 OFFCURVE",
"261 132 CURVE SMOOTH",
"258 140 OFFCURVE",
"260 146 OFFCURVE",
"265 152 CURVE SMOOTH",
"445 388 LINE",
"604 152 LINE SMOOTH",
"608 146 OFFCURVE",
"609 139 OFFCURVE",
"606 132 CURVE SMOOTH",
"602 125 OFFCURVE",
"597 120 OFFCURVE",
"589 119 CURVE SMOOTH",
"525 112 LINE",
"525 40 LINE",
"922 40 LINE"
);
}
);
vertWidth = 0;
width = 940;
},
{
layerId = "0032BCCA-E182-473F-BEC5-A72B788B9C41";
paths = (
{
closed = 1;
nodes = (
"990 126 LINE",
"892 142 LINE",
"608 538 LINE",
"853 840 LINE",
"957 853 LINE",
"957 939 LINE",
"614 939 LINE",
"614 853 LINE",
"673 847 LINE SMOOTH",
"691 845 OFFCURVE",
"695 827 OFFCURVE",
"686 814 CURVE",
"538 636 LINE",
"409 814 LINE",
"398 827 OFFCURVE",
"401 845 OFFCURVE",
"422 847 CURVE SMOOTH",
"475 853 LINE",
"475 939 LINE",
"22 939 LINE",
"22 853 LINE",
"120 840 LINE",
"392 460 LINE",
"129 142 LINE",
"18 126 LINE",
"18 40 LINE",
"378 40 LINE",
"378 126 LINE",
"313 134 LINE",
"295 135 OFFCURVE",
"290 152 OFFCURVE",
"301 165 CURVE SMOOTH",
"463 364 LINE",
"608 165 LINE",
"617 151 OFFCURVE",
"612 135 OFFCURVE",
"593 134 CURVE",
"522 126 LINE",
"522 40 LINE",
"990 40 LINE"
);
}
);
vertWidth = 0;
width = 1006;
}
);
unicode = 0078;
},
{
glyphname = y;
layers = (
{
layerId = "3590996D-50CB-43A2-BF30-26B998A874F2";
paths = (
{
closed = 1;
nodes = (
"958 928 LINE",
"630 928 LINE",
"630 856 LINE",
"717 851 LINE SMOOTH",
"727 850 OFFCURVE",
"735 845 OFFCURVE",
"740 836 CURVE SMOOTH",
"745 828 OFFCURVE",
"746 819 OFFCURVE",
"742 810 CURVE SMOOTH",
"524 267 LINE",
"310 810 LINE SMOOTH",
"308 814 OFFCURVE",
"308 818 OFFCURVE",
"308 821 CURVE SMOOTH",
"308 840 OFFCURVE",
"318 850 OFFCURVE",
"337 851 CURVE SMOOTH",
"426 856 LINE",
"426 928 LINE",
"18 928 LINE",
"18 856 LINE",
"120 845 LINE",
"433 42 LINE",
"387 -92 OFFCURVE",
"336 -188 OFFCURVE",
"278 -245 CURVE",
"105 -166 LINE",
"66 -199 OFFCURVE",
"46 -236 OFFCURVE",
"46 -277 CURVE SMOOTH",
"46 -307 OFFCURVE",
"58 -331 OFFCURVE",
"81 -351 CURVE SMOOTH",
"106 -372 OFFCURVE",
"139 -383 OFFCURVE",
"181 -383 CURVE SMOOTH",
"240 -383 OFFCURVE",
"293 -360 OFFCURVE",
"341 -312 CURVE SMOOTH",
"393 -260 OFFCURVE",
"449 -162 OFFCURVE",
"508 -17 CURVE SMOOTH",
"862 845 LINE",
"958 856 LINE"
);
}
);
vertWidth = 0;
width = 976;
},
{
layerId = "0032BCCA-E182-473F-BEC5-A72B788B9C41";
paths = (
{
closed = 1;
nodes = (
"1027 939 LINE",
"667 939 LINE",
"667 853 LINE",
"748 847 LINE SMOOTH",
"769 845 OFFCURVE",
"783 825 OFFCURVE",
"776 807 CURVE SMOOTH",
"580 333 LINE",
"391 807 LINE SMOOTH",
"383 827 OFFCURVE",
"396 845 OFFCURVE",
"418 847 CURVE SMOOTH",
"503 853 LINE",
"503 939 LINE",
"18 939 LINE",
"18 853 LINE",
"127 842 LINE",
"455 24 LINE",
"438 -39 OFFCURVE",
"385 -159 OFFCURVE",
"319 -222 CURVE",
"162 -102 LINE",
"109 -126 OFFCURVE",
"55 -170 OFFCURVE",
"55 -238 CURVE SMOOTH",
"55 -327 OFFCURVE",
"146 -386 OFFCURVE",
"218 -386 CURVE SMOOTH",
"290 -386 OFFCURVE",
"350 -354 OFFCURVE",
"401 -305 CURVE SMOOTH",
"499 -210 OFFCURVE",
"565 -52 OFFCURVE",
"610 58 CURVE SMOOTH",
"929 840 LINE",
"1027 853 LINE"
);
}
);
vertWidth = 0;
width = 1043;
}
);
unicode = 0079;
},
{
glyphname = z;
layers = (
{
layerId = "3590996D-50CB-43A2-BF30-26B998A874F2";
paths = (
{
closed = 1;
nodes = (
"789 318 LINE",
"689 318 LINE",
"671 172 LINE SMOOTH",
"670 162 OFFCURVE",
"665 152 OFFCURVE",
"656 143 CURVE SMOOTH",
"647 133 OFFCURVE",
"639 128 OFFCURVE",
"631 128 CURVE SMOOTH",
"258 128 LINE",
"763 853 LINE",
"763 928 LINE",
"82 928 LINE",
"82 666 LINE",
"175 666 LINE",
"194 803 LINE SMOOTH",
"198 829 OFFCURVE",
"211 842 OFFCURVE",
"231 842 CURVE SMOOTH",
"552 842 LINE",
"63 138 LINE",
"63 40 LINE",
"789 40 LINE"
);
}
);
vertWidth = 0;
width = 852;
},
{
layerId = "0032BCCA-E182-473F-BEC5-A72B788B9C41";
paths = (
{
closed = 1;
nodes = (
"846 350 LINE",
"719 350 LINE",
"695 193 LINE",
"691 175 OFFCURVE",
"670 149 OFFCURVE",
"654 149 CURVE SMOOTH",
"337 149 LINE",
"820 836 LINE",
"820 939 LINE",
"74 939 LINE",
"74 654 LINE",
"204 654 LINE",
"218 796 LINE",
"218 812 OFFCURVE",
"234 835 OFFCURVE",
"253 835 CURVE SMOOTH",
"531 835 LINE",
"59 160 LINE",
"59 40 LINE",
"846 40 LINE"
);
}
);
vertWidth = 0;
width = 905;
}
);
unicode = 007A;
},
{
glyphname = braceleft;
layers = (
{
layerId = "3590996D-50CB-43A2-BF30-26B998A874F2";
paths = (
{
closed = 1;
nodes = (
"858 -168 LINE",
"757 -168 OFFCURVE",
"688 -147 OFFCURVE",
"649 -106 CURVE SMOOTH",
"624 -79 OFFCURVE",
"609 -35 OFFCURVE",
"603 26 CURVE SMOOTH",
"601 47 OFFCURVE",
"600 104 OFFCURVE",
"600 197 CURVE SMOOTH",
"600 333 OFFCURVE",
"580 426 OFFCURVE",
"541 477 CURVE SMOOTH",
"497 534 OFFCURVE",
"424 574 OFFCURVE",
"324 596 CURVE",
"425 618 OFFCURVE",
"498 657 OFFCURVE",
"541 713 CURVE SMOOTH",
"580 764 OFFCURVE",
"600 857 OFFCURVE",
"600 993 CURVE SMOOTH",
"600 1086 OFFCURVE",
"601 1143 OFFCURVE",
"603 1164 CURVE SMOOTH",
"609 1225 OFFCURVE",
"624 1269 OFFCURVE",
"649 1296 CURVE SMOOTH",
"688 1337 OFFCURVE",
"757 1358 OFFCURVE",
"858 1358 CURVE",
"858 1442 LINE",
"678 1442 OFFCURVE",
"559 1412 OFFCURVE",
"502 1352 CURVE SMOOTH",
"462 1310 OFFCURVE",
"437 1253 OFFCURVE",
"426 1184 CURVE SMOOTH",
"421 1151 OFFCURVE",
"418 1086 OFFCURVE",
"418 987 CURVE SMOOTH",
"418 830 OFFCURVE",
"399 733 OFFCURVE",
"360 696 CURVE SMOOTH",
"322 659 OFFCURVE",
"243 641 OFFCURVE",
"123 641 CURVE",
"123 549 LINE",
"243 549 OFFCURVE",
"322 530 OFFCURVE",
"360 493 CURVE SMOOTH",
"399 456 OFFCURVE",
"418 360 OFFCURVE",
"418 203 CURVE SMOOTH",
"418 104 OFFCURVE",
"421 39 OFFCURVE",
"426 6 CURVE SMOOTH",
"437 -63 OFFCURVE",
"462 -120 OFFCURVE",
"502 -162 CURVE SMOOTH",
"559 -222 OFFCURVE",
"678 -252 OFFCURVE",
"858 -252 CURVE"
);
}
);
vertWidth = 0;
width = 999;
},
{
background = {
paths = (
{
closed = 1;
nodes = (
"864 -137 OFFCURVE",
"733 -143 OFFCURVE",
"670 -82 CURVE SMOOTH",
"547 39 OFFCURVE",
"692 346 OFFCURVE",
"524 506 CURVE SMOOTH",
"428 598 OFFCURVE",
"303 598 OFFCURVE",
"303 598 CURVE",
"303 598 OFFCURVE",
"428 596 OFFCURVE",
"524 688 CURVE SMOOTH",
"692 846 OFFCURVE",
"547 1157 OFFCURVE",
"670 1278 CURVE SMOOTH",
"733 1339 OFFCURVE",
"864 1333 OFFCURVE",
"864 1333 CURVE",
"864 1446 LINE",
"817 1446 OFFCURVE",
"561 1454 OFFCURVE",
"459 1362 CURVE SMOOTH",
"272 1196 OFFCURVE",
"428 836 OFFCURVE",
"309 715 CURVE SMOOTH",
"229 635 OFFCURVE",
"84 659 OFFCURVE",
"84 659 CURVE",
"84 537 LINE",
"84 537 OFFCURVE",
"229 559 OFFCURVE",
"309 479 CURVE SMOOTH",
"428 358 OFFCURVE",
"272 0 OFFCURVE",
"459 -166 CURVE SMOOTH",
"561 -258 OFFCURVE",
"817 -250 OFFCURVE",
"864 -250 CURVE",
"864 -137 LINE"
);
}
);
};
layerId = "0032BCCA-E182-473F-BEC5-A72B788B9C41";
paths = (
{
closed = 1;
nodes = (
"808 -140 OFFCURVE",
"716 -127 OFFCURVE",
"670 -82 CURVE SMOOTH",
"547 39 OFFCURVE",
"692 346 OFFCURVE",
"524 506 CURVE SMOOTH",
"454 573 OFFCURVE",
"357 597 OFFCURVE",
"303 598 CURVE",
"357 598 OFFCURVE",
"454 621 OFFCURVE",
"524 688 CURVE SMOOTH",
"691 846 OFFCURVE",
"547 1157 OFFCURVE",
"670 1278 CURVE SMOOTH",
"716 1323 OFFCURVE",
"798 1333 OFFCURVE",
"864 1333 CURVE",
"864 1446 LINE",
"757 1446 OFFCURVE",
"552 1444 OFFCURVE",
"459 1362 CURVE SMOOTH",
"272 1196 OFFCURVE",
"428 836 OFFCURVE",
"309 715 CURVE SMOOTH",
"251 657 OFFCURVE",
"146 649 OFFCURVE",
"84 659 CURVE",
"84 537 LINE",
"146 546 OFFCURVE",
"251 537 OFFCURVE",
"309 479 CURVE SMOOTH",
"428 358 OFFCURVE",
"272 0 OFFCURVE",
"459 -166 CURVE SMOOTH",
"547 -244 OFFCURVE",
"747 -250 OFFCURVE",
"864 -250 CURVE",
"864 -137 LINE"
);
}
);
vertWidth = 0;
width = 1014;
}
);
unicode = 007B;
},
{
glyphname = bar;
layers = (
{
layerId = "3590996D-50CB-43A2-BF30-26B998A874F2";
paths = (
{
closed = 1;
nodes = (
"525 1448 LINE",
"397 1448 LINE",
"397 -395 LINE",
"525 -395 LINE"
);
}
);
vertWidth = 0;
width = 922;
},
{
layerId = "0032BCCA-E182-473F-BEC5-A72B788B9C41";
paths = (
{
closed = 1;
nodes = (
"545 1448 LINE",
"376 1448 LINE",
"376 -395 LINE",
"545 -395 LINE"
);
}
);
vertWidth = 0;
width = 922;
}
);
unicode = 007C;
},
{
glyphname = braceright;
layers = (
{
layerId = "3590996D-50CB-43A2-BF30-26B998A874F2";
paths = (
{
closed = 1;
nodes = (
"876 641 LINE",
"756 641 OFFCURVE",
"677 659 OFFCURVE",
"638 696 CURVE SMOOTH",
"600 733 OFFCURVE",
"581 830 OFFCURVE",
"581 987 CURVE SMOOTH",
"581 1086 OFFCURVE",
"578 1151 OFFCURVE",
"573 1184 CURVE SMOOTH",
"562 1253 OFFCURVE",
"537 1310 OFFCURVE",
"497 1352 CURVE SMOOTH",
"440 1412 OFFCURVE",
"321 1442 OFFCURVE",
"141 1442 CURVE",
"141 1358 LINE",
"242 1358 OFFCURVE",
"311 1337 OFFCURVE",
"350 1296 CURVE SMOOTH",
"375 1269 OFFCURVE",
"390 1225 OFFCURVE",
"396 1164 CURVE SMOOTH",
"398 1143 OFFCURVE",
"399 1086 OFFCURVE",
"399 993 CURVE SMOOTH",
"399 857 OFFCURVE",
"419 764 OFFCURVE",
"458 713 CURVE SMOOTH",
"501 657 OFFCURVE",
"574 618 OFFCURVE",
"675 596 CURVE",
"575 574 OFFCURVE",
"503 534 OFFCURVE",
"458 477 CURVE SMOOTH",
"418 426 OFFCURVE",
"399 333 OFFCURVE",
"399 197 CURVE SMOOTH",
"399 104 OFFCURVE",
"398 47 OFFCURVE",
"396 26 CURVE SMOOTH",
"390 -35 OFFCURVE",
"375 -79 OFFCURVE",
"350 -106 CURVE SMOOTH",
"311 -147 OFFCURVE",
"242 -168 OFFCURVE",
"141 -168 CURVE",
"141 -252 LINE",
"321 -252 OFFCURVE",
"440 -222 OFFCURVE",
"497 -162 CURVE SMOOTH",
"537 -120 OFFCURVE",
"562 -63 OFFCURVE",
"573 6 CURVE SMOOTH",
"578 39 OFFCURVE",
"581 104 OFFCURVE",
"581 203 CURVE SMOOTH",
"581 360 OFFCURVE",
"600 456 OFFCURVE",
"638 493 CURVE SMOOTH",
"677 530 OFFCURVE",
"756 549 OFFCURVE",
"876 549 CURVE"
);
}
);
vertWidth = 0;
width = 999;
},
{
layerId = "0032BCCA-E182-473F-BEC5-A72B788B9C41";
paths = (
{
closed = 1;
nodes = (
"867 649 OFFCURVE",
"763 657 OFFCURVE",
"705 715 CURVE SMOOTH",
"584 836 OFFCURVE",
"739 1196 OFFCURVE",
"555 1362 CURVE SMOOTH",
"464 1444 OFFCURVE",
"247 1446 OFFCURVE",
"150 1446 CURVE",
"150 1333 LINE",
"206 1336 OFFCURVE",
"298 1323 OFFCURVE",
"344 1278 CURVE SMOOTH",
"467 1159 OFFCURVE",
"322 849 OFFCURVE",
"489 688 CURVE SMOOTH",
"559 620 OFFCURVE",
"657 598 OFFCURVE",
"711 598 CURVE",
"657 597 OFFCURVE",
"560 573 OFFCURVE",
"489 506 CURVE SMOOTH",
"321 346 OFFCURVE",
"467 37 OFFCURVE",
"344 -82 CURVE SMOOTH",
"298 -127 OFFCURVE",
"206 -140 OFFCURVE",
"150 -137 CURVE",
"150 -250 LINE",
"247 -250 OFFCURVE",
"464 -248 OFFCURVE",
"555 -166 CURVE SMOOTH",
"739 0 OFFCURVE",
"584 356 OFFCURVE",
"705 479 CURVE SMOOTH",
"763 537 OFFCURVE",
"867 546 OFFCURVE",
"930 537 CURVE",
"930 659 LINE"
);
}
);
vertWidth = 0;
width = 1014;
}
);
unicode = 007D;
},
{
glyphname = asciitilde;
layers = (
{
layerId = "3590996D-50CB-43A2-BF30-26B998A874F2";
paths = (
{
closed = 1;
nodes = (
"1376 724 LINE",
"1246 629 OFFCURVE",
"1130 582 OFFCURVE",
"1031 582 CURVE SMOOTH",
"887 582 OFFCURVE",
"668 705 OFFCURVE",
"509 705 CURVE SMOOTH",
"397 705 OFFCURVE",
"281 662 OFFCURVE",
"159 575 CURVE",
"159 455 LINE",
"291 551 OFFCURVE",
"403 599 OFFCURVE",
"497 599 CURVE SMOOTH",
"667 599 OFFCURVE",
"872 475 OFFCURVE",
"1030 475 CURVE SMOOTH",
"1135 475 OFFCURVE",
"1251 518 OFFCURVE",
"1376 604 CURVE"
);
}
);
vertWidth = 0;
width = 1535;
},
{
layerId = "0032BCCA-E182-473F-BEC5-A72B788B9C41";
paths = (
{
closed = 1;
nodes = (
"1377 768 LINE",
"1201 638 OFFCURVE",
"1102 604 OFFCURVE",
"1023 604 CURVE SMOOTH",
"869 604 OFFCURVE",
"700 728 OFFCURVE",
"517 728 CURVE SMOOTH",
"418 728 OFFCURVE",
"297 691 OFFCURVE",
"158 585 CURVE",
"158 411 LINE",
"311 527 OFFCURVE",
"422 576 OFFCURVE",
"507 576 CURVE SMOOTH",
"688 576 OFFCURVE",
"842 453 OFFCURVE",
"1021 453 CURVE SMOOTH",
"1126 453 OFFCURVE",
"1228 486 OFFCURVE",
"1377 593 CURVE"
);
}
);
vertWidth = 0;
width = 1535;
}
);
unicode = 007E;
},
{
glyphname = exclamdown;
layers = (
{
layerId = "3590996D-50CB-43A2-BF30-26B998A874F2";
paths = (
{
closed = 1;
nodes = (
"424 898 OFFCURVE",
"373 950 OFFCURVE",
"311 950 CURVE SMOOTH",
"250 950 OFFCURVE",
"197 901 OFFCURVE",
"197 836 CURVE SMOOTH",
"197 770 OFFCURVE",
"248 723 OFFCURVE",
"311 723 CURVE SMOOTH",
"375 723 OFFCURVE",
"424 772 OFFCURVE",
"424 836 CURVE SMOOTH"
);
},
{
closed = 1;
nodes = (
"355 594 LINE",
"267 594 LINE",
"199 -242 LINE SMOOTH",
"198 -250 OFFCURVE",
"198 -257 OFFCURVE",
"198 -264 CURVE SMOOTH",
"198 -343 OFFCURVE",
"236 -383 OFFCURVE",
"311 -383 CURVE SMOOTH",
"386 -383 OFFCURVE",
"423 -343 OFFCURVE",
"423 -264 CURVE SMOOTH",
"423 -257 OFFCURVE",
"423 -250 OFFCURVE",
"422 -242 CURVE"
);
}
);
vertWidth = 0;
width = 623;
},
{
layerId = "0032BCCA-E182-473F-BEC5-A72B788B9C41";
paths = (
{
closed = 1;
nodes = (
"461 1264 OFFCURVE",
"373 1306 OFFCURVE",
"311 1306 CURVE SMOOTH",
"232 1306 OFFCURVE",
"164 1240 OFFCURVE",
"164 1155 CURVE SMOOTH",
"164 1065 OFFCURVE",
"243 1009 OFFCURVE",
"311 1009 CURVE SMOOTH",
"382 1009 OFFCURVE",
"461 1060 OFFCURVE",
"461 1155 CURVE SMOOTH"
);
},
{
closed = 1;
nodes = (
"361 900 LINE",
"262 900 LINE",
"162 167 LINE",
"162 64 OFFCURVE",
"230 17 OFFCURVE",
"311 17 CURVE SMOOTH",
"394 17 OFFCURVE",
"463 66 OFFCURVE",
"463 167 CURVE"
);
}
);
vertWidth = 0;
width = 626;
}
);
unicode = 00A1;
},
{
glyphname = cent;
layers = (
{
layerId = "3590996D-50CB-43A2-BF30-26B998A874F2";
paths = (
{
closed = 1;
nodes = (
"897 360 LINE",
"807 360 LINE",
"783 184 LINE SMOOTH",
"781 168 OFFCURVE",
"770 158 OFFCURVE",
"761 154 CURVE SMOOTH",
"724 137 OFFCURVE",
"679 128 OFFCURVE",
"632 128 CURVE",
"632 882 LINE",
"688 882 OFFCURVE",
"731 871 OFFCURVE",
"761 854 CURVE SMOOTH",
"771 848 OFFCURVE",
"780 837 OFFCURVE",
"783 816 CURVE SMOOTH",
"809 656 LINE",
"897 656 LINE",
"897 926 LINE",
"804 957 OFFCURVE",
"715 972 OFFCURVE",
"632 972 CURVE",
"632 1153 LINE",
"544 1153 LINE",
"544 965 LINE",
"300 931 OFFCURVE",
"140 750 OFFCURVE",
"140 504 CURVE SMOOTH",
"140 251 OFFCURVE",
"292 70 OFFCURVE",
"544 44 CURVE",
"544 -143 LINE",
"632 -143 LINE",
"632 40 LINE",
"706 40 OFFCURVE",
"770 46 OFFCURVE",
"827 59 CURVE SMOOTH",
"868 68 OFFCURVE",
"891 76 OFFCURVE",
"897 82 CURVE"
);
},
{
closed = 1;
nodes = (
"385 170 OFFCURVE",
"317 340 OFFCURVE",
"317 510 CURVE SMOOTH",
"317 673 OFFCURVE",
"390 840 OFFCURVE",
"544 877 CURVE",
"544 134 LINE"
);
}
);
vertWidth = 0;
width = 1038;
},
{
layerId = "0032BCCA-E182-473F-BEC5-A72B788B9C41";
paths = (
{
closed = 1;
nodes = (
"960 364 LINE",
"846 364 LINE",
"823 217 LINE",
"823 180 LINE",
"806 168 OFFCURVE",
"760 151 OFFCURVE",
"698 151 CURVE",
"698 879 LINE",
"746 879 OFFCURVE",
"809 854 OFFCURVE",
"826 842 CURVE",
"826 800 LINE",
"846 666 LINE",
"960 666 LINE",
"960 932 LINE",
"897 962 OFFCURVE",
"779 988 OFFCURVE",
"698 988 CURVE",
"698 1174 LINE",
"593 1174 LINE",
"593 984 LINE",
"336 984 OFFCURVE",
"121 784 OFFCURVE",
"121 504 CURVE SMOOTH",
"121 244 OFFCURVE",
"337 42 OFFCURVE",
"593 42 CURVE",
"593 -150 LINE",
"698 -150 LINE",
"698 40 LINE",
"739 40 OFFCURVE",
"936 64 OFFCURVE",
"960 89 CURVE"
);
},
{
closed = 1;
nodes = (
"483 182 OFFCURVE",
"376 307 OFFCURVE",
"376 504 CURVE SMOOTH",
"376 754 OFFCURVE",
"494 854 OFFCURVE",
"593 875 CURVE",
"593 154 LINE"
);
}
);
vertWidth = 0;
width = 1082;
}
);
unicode = 00A2;
},
{
glyphname = sterling;
layers = (
{
layerId = "3590996D-50CB-43A2-BF30-26B998A874F2";
paths = (
{
closed = 1;
nodes = (
"958 1267 OFFCURVE",
"924 1317 OFFCURVE",
"856 1353 CURVE SMOOTH",
"800 1383 OFFCURVE",
"737 1398 OFFCURVE",
"667 1398 CURVE SMOOTH",
"538 1398 OFFCURVE",
"439 1353 OFFCURVE",
"370 1264 CURVE SMOOTH",
"306 1182 OFFCURVE",
"274 1073 OFFCURVE",
"274 939 CURVE SMOOTH",
"274 737 LINE",
"149 737 LINE",
"149 646 LINE",
"278 646 LINE",
"278 512 LINE SMOOTH",
"278 307 OFFCURVE",
"216 188 OFFCURVE",
"79 152 CURVE",
"79 40 LINE",
"955 40 LINE",
"955 191 LINE",
"409 191 LINE SMOOTH",
"386 191 OFFCURVE",
"335 188 OFFCURVE",
"256 180 CURVE",
"334 231 OFFCURVE",
"387 292 OFFCURVE",
"415 364 CURVE SMOOTH",
"440 428 OFFCURVE",
"452 522 OFFCURVE",
"452 646 CURVE",
"794 646 LINE",
"794 737 LINE",
"452 737 LINE",
"449 823 OFFCURVE",
"447 890 OFFCURVE",
"447 941 CURVE SMOOTH",
"447 1184 OFFCURVE",
"530 1305 OFFCURVE",
"695 1305 CURVE SMOOTH",
"717 1305 OFFCURVE",
"745 1301 OFFCURVE",
"778 1291 CURVE",
"778 1106 LINE",
"805 1100 OFFCURVE",
"828 1097 OFFCURVE",
"844 1097 CURVE SMOOTH",
"875 1097 OFFCURVE",
"902 1107 OFFCURVE",
"924 1128 CURVE SMOOTH",
"947 1149 OFFCURVE",
"958 1173 OFFCURVE",
"958 1203 CURVE SMOOTH"
);
}
);
vertWidth = 0;
width = 1038;
},
{
layerId = "0032BCCA-E182-473F-BEC5-A72B788B9C41";
paths = (
{
closed = 1;
nodes = (
"1003 235 LINE",
"433 235 LINE SMOOTH",
"425 235 OFFCURVE",
"359 227 OFFCURVE",
"311 221 CURVE",
"485 337 OFFCURVE",
"510 457 OFFCURVE",
"510 587 CURVE",
"841 587 LINE",
"841 705 LINE",
"507 705 LINE",
"505 723 OFFCURVE",
"503 762 OFFCURVE",
"503 805 CURVE SMOOTH",
"503 943 OFFCURVE",
"506 1205 OFFCURVE",
"719 1205 CURVE SMOOTH",
"750 1205 OFFCURVE",
"768 1200 OFFCURVE",
"774 1197 CURVE",
"774 972 LINE",
"795 965 OFFCURVE",
"830 956 OFFCURVE",
"853 956 CURVE SMOOTH",
"929 956 OFFCURVE",
"1003 1000 OFFCURVE",
"1003 1085 CURVE SMOOTH",
"1003 1241 OFFCURVE",
"816 1306 OFFCURVE",
"686 1306 CURVE SMOOTH",
"385 1306 OFFCURVE",
"258 1087 OFFCURVE",
"258 798 CURVE SMOOTH",
"258 771 OFFCURVE",
"262 729 OFFCURVE",
"265 705 CURVE",
"139 705 LINE",
"139 587 LINE",
"269 587 LINE",
"269 506 LINE SMOOTH",
"269 284 OFFCURVE",
"211 203 OFFCURVE",
"77 180 CURVE",
"77 40 LINE",
"1003 40 LINE"
);
}
);
vertWidth = 0;
width = 1082;
}
);
unicode = 00A3;
},
{
glyphname = currency;
layers = (
{
layerId = "3590996D-50CB-43A2-BF30-26B998A874F2";
paths = (
{
closed = 1;
nodes = (
"853 604 LINE",
"907 672 OFFCURVE",
"934 750 OFFCURVE",
"934 838 CURVE SMOOTH",
"934 926 OFFCURVE",
"908 1002 OFFCURVE",
"857 1067 CURVE",
"1039 1251 LINE",
"975 1315 LINE",
"791 1133 LINE",
"722 1186 OFFCURVE",
"645 1213 OFFCURVE",
"561 1213 CURVE SMOOTH",
"472 1213 OFFCURVE",
"394 1186 OFFCURVE",
"326 1131 CURVE",
"144 1315 LINE",
"77 1251 LINE",
"262 1067 LINE",
"211 999 OFFCURVE",
"184 924 OFFCURVE",
"184 838 CURVE SMOOTH",
"184 754 OFFCURVE",
"211 676 OFFCURVE",
"265 606 CURVE",
"77 420 LINE",
"144 353 LINE",
"330 539 LINE",
"395 488 OFFCURVE",
"472 462 OFFCURVE",
"561 462 CURVE SMOOTH",
"646 462 OFFCURVE",
"722 488 OFFCURVE",
"789 539 CURVE",
"975 353 LINE",
"1039 418 LINE"
);
},
{
closed = 1;
nodes = (
"842 681 OFFCURVE",
"719 554 OFFCURVE",
"561 554 CURVE SMOOTH",
"403 554 OFFCURVE",
"276 678 OFFCURVE",
"276 838 CURVE SMOOTH",
"276 997 OFFCURVE",
"404 1120 OFFCURVE",
"561 1120 CURVE SMOOTH",
"719 1120 OFFCURVE",
"842 996 OFFCURVE",
"842 838 CURVE SMOOTH"
);
}
);
vertWidth = 0;
width = 1117;
},
{
layerId = "0032BCCA-E182-473F-BEC5-A72B788B9C41";
paths = (
{
closed = 1;
nodes = (
"853 604 LINE",
"905 668 OFFCURVE",
"934 749 OFFCURVE",
"934 838 CURVE SMOOTH",
"934 925 OFFCURVE",
"907 1004 OFFCURVE",
"857 1067 CURVE",
"1039 1251 LINE",
"975 1315 LINE",
"791 1133 LINE",
"726 1183 OFFCURVE",
"647 1213 OFFCURVE",
"561 1213 CURVE SMOOTH",
"472 1213 OFFCURVE",
"391 1183 OFFCURVE",
"326 1131 CURVE",
"144 1315 LINE",
"77 1251 LINE",
"262 1067 LINE",
"214 1004 OFFCURVE",
"184 925 OFFCURVE",
"184 838 CURVE SMOOTH",
"184 752 OFFCURVE",
"216 670 OFFCURVE",
"265 606 CURVE",
"77 420 LINE",
"144 353 LINE",
"330 539 LINE",
"392 490 OFFCURVE",
"473 462 OFFCURVE",
"561 462 CURVE SMOOTH",
"647 462 OFFCURVE",
"726 492 OFFCURVE",
"789 539 CURVE",
"975 353 LINE",
"1039 418 LINE"
);
},
{
closed = 1;
nodes = (
"842 682 OFFCURVE",
"717 554 OFFCURVE",
"561 554 CURVE SMOOTH",
"404 554 OFFCURVE",
"276 682 OFFCURVE",
"276 838 CURVE SMOOTH",
"276 995 OFFCURVE",
"404 1120 OFFCURVE",
"561 1120 CURVE SMOOTH",
"717 1120 OFFCURVE",
"842 995 OFFCURVE",
"842 838 CURVE SMOOTH"
);
}
);
vertWidth = 0;
width = 1117;
}
);
unicode = 00A4;
},
{
glyphname = yen;
layers = (
{
layerId = "3590996D-50CB-43A2-BF30-26B998A874F2";
paths = (
{
closed = 1;
nodes = (
"1080 1277 LINE",
"728 1277 LINE",
"728 1199 LINE",
"816 1185 LINE SMOOTH",
"845 1180 OFFCURVE",
"853 1167 OFFCURVE",
"841 1144 CURVE",
"573 670 LINE",
"330 1146 LINE SMOOTH",
"319 1169 OFFCURVE",
"326 1182 OFFCURVE",
"352 1187 CURVE",
"431 1199 LINE",
"431 1277 LINE",
"18 1277 LINE",
"18 1199 LINE",
"127 1178 LINE",
"310 827 LINE",
"59 827 LINE",
"59 746 LINE",
"354 746 LINE",
"454 557 LINE",
"59 557 LINE",
"59 476 LINE",
"457 476 LINE",
"457 167 LINE SMOOTH",
"457 143 OFFCURVE",
"442 129 OFFCURVE",
"411 126 CURVE SMOOTH",
"302 117 LINE",
"302 40 LINE",
"783 40 LINE",
"783 117 LINE",
"677 126 LINE SMOOTH",
"644 129 OFFCURVE",
"628 143 OFFCURVE",
"628 167 CURVE SMOOTH",
"628 476 LINE",
"1039 476 LINE",
"1039 557 LINE",
"626 557 LINE",
"733 746 LINE",
"1039 746 LINE",
"1039 827 LINE",
"779 827 LINE",
"976 1176 LINE",
"1080 1199 LINE"
);
}
);
vertWidth = 0;
width = 1098;
},
{
layerId = "0032BCCA-E182-473F-BEC5-A72B788B9C41";
paths = (
{
closed = 1;
nodes = (
"1157 1277 LINE",
"763 1277 LINE",
"763 1185 LINE",
"853 1166 LINE SMOOTH",
"886 1159 OFFCURVE",
"885 1137 OFFCURVE",
"877 1125 CURVE",
"642 692 LINE",
"411 1135 LINE SMOOTH",
"401 1153 OFFCURVE",
"417 1174 OFFCURVE",
"435 1176 CURVE",
"520 1183 LINE",
"520 1277 LINE",
"13 1277 LINE",
"13 1183 LINE",
"125 1164 LINE",
"295 835 LINE",
"70 835 LINE",
"70 738 LINE",
"354 738 LINE",
"443 566 LINE",
"70 566 LINE",
"70 471 LINE",
"464 471 LINE",
"464 186 LINE SMOOTH",
"464 172 OFFCURVE",
"452 149 OFFCURVE",
"418 145 CURVE",
"308 135 LINE",
"308 40 LINE",
"879 40 LINE",
"879 135 LINE",
"770 145 LINE",
"737 149 OFFCURVE",
"723 172 OFFCURVE",
"723 186 CURVE SMOOTH",
"723 471 LINE",
"1110 471 LINE",
"1110 566 LINE",
"717 566 LINE",
"813 738 LINE",
"1110 738 LINE",
"1110 835 LINE",
"870 835 LINE",
"1052 1162 LINE",
"1157 1183 LINE"
);
}
);
vertWidth = 0;
width = 1170;
}
);
unicode = 00A5;
},
{
glyphname = brokenbar;
layers = (
{
layerId = "3590996D-50CB-43A2-BF30-26B998A874F2";
paths = (
{
closed = 1;
nodes = (
"524 1331 LINE",
"398 1331 LINE",
"398 647 LINE",
"524 647 LINE"
);
},
{
closed = 1;
nodes = (
"524 409 LINE",
"398 409 LINE",
"398 -275 LINE",
"524 -275 LINE"
);
}
);
vertWidth = 0;
width = 922;
},
{
layerId = "0032BCCA-E182-473F-BEC5-A72B788B9C41";
paths = (
{
closed = 1;
nodes = (
"524 1331 LINE",
"398 1331 LINE",
"398 647 LINE",
"524 647 LINE"
);
},
{
closed = 1;
nodes = (
"524 409 LINE",
"398 409 LINE",
"398 -275 LINE",
"524 -275 LINE"
);
}
);
vertWidth = 0;
width = 922;
}
);
unicode = 00A6;
},
{
glyphname = section;
layers = (
{
layerId = "3590996D-50CB-43A2-BF30-26B998A874F2";
paths = (
{
closed = 1;
nodes = (
"813 572 OFFCURVE",
"789 510 OFFCURVE",
"743 453 CURVE SMOOTH",
"702 402 OFFCURVE",
"651 365 OFFCURVE",
"589 341 CURVE",
"716 282 OFFCURVE",
"779 201 OFFCURVE",
"779 98 CURVE SMOOTH",
"779 15 OFFCURVE",
"747 -53 OFFCURVE",
"682 -106 CURVE SMOOTH",
"618 -159 OFFCURVE",
"536 -185 OFFCURVE",
"436 -185 CURVE SMOOTH",
"337 -185 OFFCURVE",
"243 -165 OFFCURVE",
"153 -126 CURVE",
"153 116 LINE",
"245 116 LINE",
"271 -50 LINE",
"319 -82 OFFCURVE",
"377 -99 OFFCURVE",
"445 -99 CURVE SMOOTH",
"499 -99 OFFCURVE",
"545 -85 OFFCURVE",
"580 -58 CURVE SMOOTH",
"616 -31 OFFCURVE",
"634 5 OFFCURVE",
"634 51 CURVE SMOOTH",
"634 96 OFFCURVE",
"589 147 OFFCURVE",
"504 207 CURVE SMOOTH",
"413 271 OFFCURVE",
"291 324 OFFCURVE",
"245 354 CURVE SMOOTH",
"150 416 OFFCURVE",
"109 504 OFFCURVE",
"109 602 CURVE SMOOTH",
"109 753 OFFCURVE",
"189 828 OFFCURVE",
"326 891 CURVE",
"203 953 OFFCURVE",
"142 1031 OFFCURVE",
"142 1127 CURVE SMOOTH",
"142 1308 OFFCURVE",
"261 1398 OFFCURVE",
"499 1398 CURVE SMOOTH",
"605 1398 OFFCURVE",
"690 1384 OFFCURVE",
"756 1354 CURVE",
"756 1115 LINE",
"669 1115 LINE",
"651 1264 LINE",
"586 1299 OFFCURVE",
"528 1317 OFFCURVE",
"477 1317 CURVE SMOOTH",
"377 1317 OFFCURVE",
"293 1260 OFFCURVE",
"293 1162 CURVE SMOOTH",
"293 1113 OFFCURVE",
"338 1063 OFFCURVE",
"428 1015 CURVE SMOOTH",
"584 931 OFFCURVE",
"668 883 OFFCURVE",
"678 876 CURVE SMOOTH",
"768 809 OFFCURVE",
"813 731 OFFCURVE",
"813 639 CURVE SMOOTH"
);
},
{
closed = 1;
nodes = (
"669 696 OFFCURVE",
"584 782 OFFCURVE",
"415 853 CURVE",
"321 819 OFFCURVE",
"248 742 OFFCURVE",
"248 645 CURVE SMOOTH",
"248 591 OFFCURVE",
"270 542 OFFCURVE",
"313 501 CURVE SMOOTH",
"353 463 OFFCURVE",
"419 422 OFFCURVE",
"514 377 CURVE",
"548 395 OFFCURVE",
"580 422 OFFCURVE",
"611 459 CURVE SMOOTH",
"649 505 OFFCURVE",
"669 549 OFFCURVE",
"669 593 CURVE SMOOTH"
);
}
);
vertWidth = 0;
width = 922;
},
{
layerId = "0032BCCA-E182-473F-BEC5-A72B788B9C41";
paths = (
{
closed = 1;
nodes = (
"844 934 OFFCURVE",
"328 932 OFFCURVE",
"328 1124 CURVE SMOOTH",
"328 1219 OFFCURVE",
"414 1268 OFFCURVE",
"496 1268 CURVE SMOOTH",
"572 1268 OFFCURVE",
"638 1240 OFFCURVE",
"666 1219 CURVE",
"686 1067 LINE",
"786 1067 LINE",
"786 1321 LINE",
"734 1340 OFFCURVE",
"618 1366 OFFCURVE",
"489 1366 CURVE SMOOTH",
"293 1366 OFFCURVE",
"115 1282 OFFCURVE",
"115 1100 CURVE SMOOTH",
"115 974 OFFCURVE",
"193 911 OFFCURVE",
"293 856 CURVE",
"238 832 OFFCURVE",
"78 758 OFFCURVE",
"78 567 CURVE SMOOTH",
"78 215 OFFCURVE",
"600 238 OFFCURVE",
"600 23 CURVE SMOOTH",
"600 -63 OFFCURVE",
"520 -121 OFFCURVE",
"426 -121 CURVE SMOOTH",
"387 -121 OFFCURVE",
"303 -109 OFFCURVE",
"256 -78 CURVE",
"231 92 LINE",
"121 92 LINE",
"121 -164 LINE",
"176 -189 OFFCURVE",
"296 -223 OFFCURVE",
"424 -223 CURVE SMOOTH",
"604 -223 OFFCURVE",
"807 -150 OFFCURVE",
"807 63 CURVE SMOOTH",
"807 185 OFFCURVE",
"719 251 OFFCURVE",
"621 303 CURVE",
"723 349 OFFCURVE",
"844 433 OFFCURVE",
"844 604 CURVE SMOOTH"
);
},
{
closed = 1;
nodes = (
"676 450 OFFCURVE",
"576 384 OFFCURVE",
"526 358 CURVE",
"335 441 OFFCURVE",
"242 513 OFFCURVE",
"242 627 CURVE SMOOTH",
"242 722 OFFCURVE",
"315 776 OFFCURVE",
"393 801 CURVE",
"567 729 OFFCURVE",
"676 649 OFFCURVE",
"676 541 CURVE"
);
}
);
vertWidth = 0;
width = 922;
}
);
unicode = 00A7;
},
{
glyphname = dieresis;
layers = (
{
layerId = "3590996D-50CB-43A2-BF30-26B998A874F2";
paths = (
{
closed = 1;
nodes = (
"582 1269 OFFCURVE",
"547 1322 OFFCURVE",
"483 1322 CURVE SMOOTH",
"432 1322 OFFCURVE",
"382 1275 OFFCURVE",
"382 1222 CURVE SMOOTH",
"382 1162 OFFCURVE",
"429 1118 OFFCURVE",
"483 1118 CURVE SMOOTH",
"544 1118 OFFCURVE",
"582 1171 OFFCURVE",
"582 1222 CURVE SMOOTH"
);
},
{
closed = 1;
nodes = (
"201 1275 OFFCURVE",
"159 1322 OFFCURVE",
"100 1322 CURVE SMOOTH",
"46 1322 OFFCURVE",
"0 1274 OFFCURVE",
"0 1220 CURVE SMOOTH",
"0 1166 OFFCURVE",
"46 1118 OFFCURVE",
"100 1118 CURVE SMOOTH",
"156 1118 OFFCURVE",
"201 1166 OFFCURVE",
"201 1222 CURVE SMOOTH"
);
}
);
vertWidth = 0;
width = 582;
},
{
layerId = "0032BCCA-E182-473F-BEC5-A72B788B9C41";
paths = (
{
closed = 1;
nodes = (
"642 1315 OFFCURVE",
"584 1373 OFFCURVE",
"514 1373 CURVE SMOOTH",
"445 1373 OFFCURVE",
"387 1315 OFFCURVE",
"387 1245 CURVE SMOOTH",
"387 1176 OFFCURVE",
"445 1118 OFFCURVE",
"514 1118 CURVE SMOOTH",
"584 1118 OFFCURVE",
"642 1176 OFFCURVE",
"642 1245 CURVE SMOOTH"
);
},
{
closed = 1;
nodes = (
"255 1315 OFFCURVE",
"197 1373 OFFCURVE",
"127 1373 CURVE SMOOTH",
"57 1373 OFFCURVE",
"0 1315 OFFCURVE",
"0 1245 CURVE SMOOTH",
"0 1176 OFFCURVE",
"57 1118 OFFCURVE",
"127 1118 CURVE SMOOTH",
"197 1118 OFFCURVE",
"255 1176 OFFCURVE",
"255 1245 CURVE SMOOTH"
);
}
);
vertWidth = 0;
width = 642;
}
);
unicode = 00A8;
},
{
glyphname = copyright;
layers = (
{
layerId = "3590996D-50CB-43A2-BF30-26B998A874F2";
paths = (
{
closed = 1;
nodes = (
"1480 1075 OFFCURVE",
"1170 1398 OFFCURVE",
"773 1398 CURVE SMOOTH",
"377 1398 OFFCURVE",
"63 1080 OFFCURVE",
"63 684 CURVE SMOOTH",
"63 291 OFFCURVE",
"378 -27 OFFCURVE",
"771 -27 CURVE SMOOTH",
"1167 -27 OFFCURVE",
"1480 290 OFFCURVE",
"1480 686 CURVE SMOOTH"
);
},
{
closed = 1;
nodes = (
"1062 526 LINE",
"981 526 LINE",
"955 369 LINE",
"905 346 OFFCURVE",
"854 334 OFFCURVE",
"802 334 CURVE SMOOTH",
"624 334 OFFCURVE",
"518 506 OFFCURVE",
"518 688 CURVE SMOOTH",
"518 878 OFFCURVE",
"639 1031 OFFCURVE",
"821 1031 CURVE SMOOTH",
"869 1031 OFFCURVE",
"913 1018 OFFCURVE",
"951 992 CURVE",
"979 853 LINE",
"1062 853 LINE",
"1062 1071 LINE",
"957 1103 OFFCURVE",
"869 1118 OFFCURVE",
"802 1118 CURVE SMOOTH",
"519 1118 OFFCURVE",
"349 935 OFFCURVE",
"349 684 CURVE SMOOTH",
"349 428 OFFCURVE",
"532 250 OFFCURVE",
"800 250 CURVE SMOOTH",
"886 250 OFFCURVE",
"974 264 OFFCURVE",
"1062 294 CURVE"
);
},
{
closed = 1;
nodes = (
"1401 334 OFFCURVE",
"1121 51 OFFCURVE",
"771 51 CURVE SMOOTH",
"421 51 OFFCURVE",
"142 334 OFFCURVE",
"142 684 CURVE SMOOTH",
"142 1034 OFFCURVE",
"423 1321 OFFCURVE",
"773 1321 CURVE SMOOTH",
"1122 1321 OFFCURVE",
"1401 1033 OFFCURVE",
"1401 684 CURVE SMOOTH"
);
}
);
vertWidth = 0;
width = 1543;
},
{
layerId = "0032BCCA-E182-473F-BEC5-A72B788B9C41";
paths = (
{
closed = 1;
nodes = (
"1486 1081 OFFCURVE",
"1163 1402 OFFCURVE",
"772 1402 CURVE SMOOTH",
"378 1402 OFFCURVE",
"59 1079 OFFCURVE",
"59 685 CURVE SMOOTH",
"59 288 OFFCURVE",
"380 -32 OFFCURVE",
"769 -32 CURVE SMOOTH",
"1165 -32 OFFCURVE",
"1486 288 OFFCURVE",
"1486 685 CURVE SMOOTH"
);
},
{
closed = 1;
nodes = (
"1084 527 LINE",
"981 527 LINE",
"955 368 LINE",
"936 357 OFFCURVE",
"893 342 OFFCURVE",
"844 342 CURVE SMOOTH",
"679 342 OFFCURVE",
"579 488 OFFCURVE",
"579 682 CURVE SMOOTH",
"579 842 OFFCURVE",
"654 1026 OFFCURVE",
"850 1026 CURVE SMOOTH",
"903 1026 OFFCURVE",
"941 1007 OFFCURVE",
"955 993 CURVE",
"981 845 LINE",
"1084 845 LINE",
"1084 1069 LINE",
"1044 1090 OFFCURVE",
"945 1118 OFFCURVE",
"823 1118 CURVE SMOOTH",
"540 1118 OFFCURVE",
"369 923 OFFCURVE",
"369 685 CURVE SMOOTH",
"369 411 OFFCURVE",
"556 250 OFFCURVE",
"816 250 CURVE SMOOTH",
"932 250 OFFCURVE",
"1037 276 OFFCURVE",
"1084 296 CURVE"
);
},
{
closed = 1;
nodes = (
"1397 341 OFFCURVE",
"1117 54 OFFCURVE",
"770 54 CURVE SMOOTH",
"426 54 OFFCURVE",
"148 339 OFFCURVE",
"148 682 CURVE SMOOTH",
"148 1037 OFFCURVE",
"431 1315 OFFCURVE",
"772 1315 CURVE SMOOTH",
"1117 1315 OFFCURVE",
"1397 1034 OFFCURVE",
"1397 685 CURVE SMOOTH"
);
}
);
vertWidth = 0;
width = 1543;
}
);
unicode = 00A9;
},
{
glyphname = ordfeminine;
layers = (
{
layerId = "3590996D-50CB-43A2-BF30-26B998A874F2";
paths = (
{
closed = 1;
nodes = (
"598 789 LINE",
"541 792 LINE SMOOTH",
"525 793 OFFCURVE",
"517 801 OFFCURVE",
"517 817 CURVE SMOOTH",
"517 1126 LINE SMOOTH",
"517 1237 OFFCURVE",
"454 1292 OFFCURVE",
"327 1292 CURVE SMOOTH",
"261 1292 OFFCURVE",
"204 1281 OFFCURVE",
"157 1260 CURVE SMOOTH",
"104 1236 OFFCURVE",
"77 1204 OFFCURVE",
"77 1161 CURVE SMOOTH",
"77 1141 OFFCURVE",
"92 1130 OFFCURVE",
"121 1130 CURVE SMOOTH",
"209 1130 LINE",
"209 1225 LINE",
"237 1235 OFFCURVE",
"265 1241 OFFCURVE",
"294 1241 CURVE SMOOTH",
"368 1241 OFFCURVE",
"405 1204 OFFCURVE",
"405 1131 CURVE SMOOTH",
"405 1083 LINE",
"268 1058 OFFCURVE",
"49 1014 OFFCURVE",
"49 881 CURVE SMOOTH",
"49 793 OFFCURVE",
"115 733 OFFCURVE",
"205 733 CURVE SMOOTH",
"263 733 OFFCURVE",
"329 759 OFFCURVE",
"405 811 CURVE",
"421 746 LINE",
"598 746 LINE"
);
},
{
closed = 1;
nodes = (
"594 656 LINE",
"57 656 LINE",
"57 601 LINE",
"594 601 LINE"
);
},
{
closed = 1;
nodes = (
"346 815 OFFCURVE",
"298 798 OFFCURVE",
"258 798 CURVE SMOOTH",
"206 798 OFFCURVE",
"168 840 OFFCURVE",
"168 890 CURVE SMOOTH",
"168 922 OFFCURVE",
"181 948 OFFCURVE",
"206 967 CURVE SMOOTH",
"240 993 OFFCURVE",
"307 1018 OFFCURVE",
"405 1041 CURVE",
"405 850 LINE"
);
}
);
vertWidth = 0;
width = 628;
},
{
layerId = "0032BCCA-E182-473F-BEC5-A72B788B9C41";
paths = (
{
closed = 1;
nodes = (
"643 798 LINE",
"589 801 LINE SMOOTH",
"575 802 OFFCURVE",
"564 812 OFFCURVE",
"564 827 CURVE SMOOTH",
"564 1111 LINE SMOOTH",
"564 1269 OFFCURVE",
"470 1299 OFFCURVE",
"332 1299 CURVE SMOOTH",
"204 1299 OFFCURVE",
"65 1249 OFFCURVE",
"65 1168 CURVE SMOOTH",
"65 1134 OFFCURVE",
"95 1127 OFFCURVE",
"118 1127 CURVE",
"241 1127 LINE",
"241 1232 LINE",
"250 1234 OFFCURVE",
"270 1236 OFFCURVE",
"293 1236 CURVE SMOOTH",
"391 1236 OFFCURVE",
"406 1176 OFFCURVE",
"406 1133 CURVE",
"406 1122 OFFCURVE",
"406 1102 OFFCURVE",
"406 1090 CURVE",
"76 1025 OFFCURVE",
"39 974 OFFCURVE",
"39 875 CURVE SMOOTH",
"39 786 OFFCURVE",
"109 733 OFFCURVE",
"193 733 CURVE SMOOTH",
"272 733 OFFCURVE",
"360 772 OFFCURVE",
"404 801 CURVE",
"418 746 LINE",
"643 746 LINE"
);
},
{
closed = 1;
nodes = (
"379 838 OFFCURVE",
"331 825 OFFCURVE",
"293 825 CURVE SMOOTH",
"243 825 OFFCURVE",
"208 860 OFFCURVE",
"208 907 CURVE SMOOTH",
"208 972 OFFCURVE",
"248 1002 OFFCURVE",
"404 1032 CURVE",
"404 847 LINE"
);
},
{
closed = 1;
nodes = (
"632 656 LINE",
"57 656 LINE",
"57 584 LINE",
"632 584 LINE"
);
}
);
vertWidth = 0;
width = 661;
}
);
unicode = 00AA;
},
{
glyphname = guillemotleft;
layers = (
{
layerId = "3590996D-50CB-43A2-BF30-26B998A874F2";
paths = (
{
closed = 1;
nodes = (
"741 285 LINE",
"529 483 LINE",
"741 678 LINE",
"741 809 LINE",
"433 556 LINE",
"433 409 LINE",
"741 158 LINE"
);
},
{
closed = 1;
nodes = (
"378 285 LINE",
"164 483 LINE",
"378 678 LINE",
"378 809 LINE",
"70 556 LINE",
"70 409 LINE",
"378 158 LINE"
);
}
);
vertWidth = 0;
width = 814;
},
{
layerId = "0032BCCA-E182-473F-BEC5-A72B788B9C41";
paths = (
{
closed = 1;
nodes = (
"754 298 LINE",
"559 483 LINE",
"754 666 LINE",
"754 831 LINE",
"429 562 LINE",
"429 405 LINE",
"754 134 LINE"
);
},
{
closed = 1;
nodes = (
"392 296 LINE",
"199 483 LINE",
"392 666 LINE",
"392 831 LINE",
"70 562 LINE",
"70 405 LINE",
"392 134 LINE"
);
}
);
vertWidth = 0;
width = 828;
}
);
unicode = 00AB;
},
{
glyphname = logicalnot;
layers = (
{
layerId = "3590996D-50CB-43A2-BF30-26B998A874F2";
paths = (
{
closed = 1;
nodes = (
"1297 814 LINE",
"238 814 LINE",
"238 703 LINE",
"1186 703 LINE",
"1186 388 LINE",
"1297 388 LINE"
);
}
);
vertWidth = 0;
width = 1535;
},
{
layerId = "0032BCCA-E182-473F-BEC5-A72B788B9C41";
paths = (
{
closed = 1;
nodes = (
"1298 814 LINE",
"238 814 LINE",
"238 703 LINE",
"1187 703 LINE",
"1187 388 LINE",
"1298 388 LINE"
);
}
);
vertWidth = 0;
width = 1535;
}
);
unicode = 00AC;
},
{
glyphname = softhyphen;
production = uni00AD;
layers = (
{
layerId = "3590996D-50CB-43A2-BF30-26B998A874F2";
paths = (
{
closed = 1;
nodes = (
"81 552 LINE",
"81 414 LINE",
"508 414 LINE",
"508 552 LINE"
);
}
);
vertWidth = 0;
width = 589;
},
{
layerId = "0032BCCA-E182-473F-BEC5-A72B788B9C41";
paths = (
{
closed = 1;
nodes = (
"544 582 LINE",
"61 582 LINE",
"61 386 LINE",
"544 386 LINE"
);
}
);
vertWidth = 0;
width = 605;
}
);
unicode = 00AD;
},
{
glyphname = RegisteredSgn;
production = registered;
layers = (
{
layerId = "3590996D-50CB-43A2-BF30-26B998A874F2";
paths = (
{
closed = 1;
nodes = (
"1480 1079 OFFCURVE",
"1159 1398 OFFCURVE",
"772 1398 CURVE SMOOTH",
"380 1398 OFFCURVE",
"63 1078 OFFCURVE",
"63 685 CURVE SMOOTH",
"63 293 OFFCURVE",
"382 -27 OFFCURVE",
"769 -27 CURVE SMOOTH",
"1163 -27 OFFCURVE",
"1480 293 OFFCURVE",
"1480 685 CURVE SMOOTH"
);
},
{
closed = 1;
nodes = (
"1400 339 OFFCURVE",
"1119 51 OFFCURVE",
"770 51 CURVE SMOOTH",
"422 51 OFFCURVE",
"142 337 OFFCURVE",
"142 682 CURVE SMOOTH",
"142 1041 OFFCURVE",
"427 1321 OFFCURVE",
"772 1321 CURVE SMOOTH",
"1119 1321 OFFCURVE",
"1400 1037 OFFCURVE",
"1400 685 CURVE SMOOTH"
);
},
{
closed = 1;
nodes = (
"1229 351 LINE",
"907 351 OFFCURVE",
"1141 629 OFFCURVE",
"848 694 CURVE",
"960 719 OFFCURVE",
"1064 770 OFFCURVE",
"1064 895 CURVE SMOOTH",
"1064 1053 OFFCURVE",
"942 1109 OFFCURVE",
"741 1109 CURVE SMOOTH",
"398 1109 LINE",
"398 1057 LINE",
"468 1052 LINE",
"487 1050 OFFCURVE",
"496 1037 OFFCURVE",
"496 1026 CURVE SMOOTH",
"496 385 LINE SMOOTH",
"496 374 OFFCURVE",
"487 360 OFFCURVE",
"468 359 CURVE",
"398 353 LINE",
"398 302 LINE",
"724 302 LINE",
"724 353 LINE",
"654 359 LINE",
"636 360 OFFCURVE",
"626 374 OFFCURVE",
"626 385 CURVE SMOOTH",
"626 659 LINE",
"630 659 OFFCURVE",
"660 661 OFFCURVE",
"688 661 CURVE SMOOTH",
"1013 661 OFFCURVE",
"796 293 OFFCURVE",
"1122 293 CURVE SMOOTH",
"1161 293 OFFCURVE",
"1219 300 OFFCURVE",
"1229 302 CURVE"
);
},
{
closed = 1;
nodes = (
"920 761 OFFCURVE",
"841 719 OFFCURVE",
"695 719 CURVE SMOOTH",
"675 719 OFFCURVE",
"630 720 OFFCURVE",
"626 720 CURVE",
"626 1052 LINE",
"689 1052 LINE SMOOTH",
"855 1052 OFFCURVE",
"920 991 OFFCURVE",
"920 890 CURVE SMOOTH"
);
}
);
vertWidth = 0;
width = 1543;
},
{
layerId = "0032BCCA-E182-473F-BEC5-A72B788B9C41";
paths = (
{
closed = 1;
nodes = (
"1486 1081 OFFCURVE",
"1163 1402 OFFCURVE",
"772 1402 CURVE SMOOTH",
"378 1402 OFFCURVE",
"59 1079 OFFCURVE",
"59 685 CURVE SMOOTH",
"59 288 OFFCURVE",
"380 -32 OFFCURVE",
"769 -32 CURVE SMOOTH",
"1165 -32 OFFCURVE",
"1486 288 OFFCURVE",
"1486 685 CURVE SMOOTH"
);
},
{
closed = 1;
nodes = (
"1397 341 OFFCURVE",
"1117 54 OFFCURVE",
"770 54 CURVE SMOOTH",
"426 54 OFFCURVE",
"148 339 OFFCURVE",
"148 682 CURVE SMOOTH",
"148 1037 OFFCURVE",
"431 1315 OFFCURVE",
"772 1315 CURVE SMOOTH",
"1117 1315 OFFCURVE",
"1397 1034 OFFCURVE",
"1397 685 CURVE SMOOTH"
);
},
{
closed = 1;
nodes = (
"1203 362 LINE",
"946 332 OFFCURVE",
"1113 643 OFFCURVE",
"842 698 CURVE",
"907 707 OFFCURVE",
"1057 746 OFFCURVE",
"1057 908 CURVE SMOOTH",
"1057 1079 OFFCURVE",
"879 1109 OFFCURVE",
"791 1109 CURVE SMOOTH",
"382 1109 LINE",
"382 1048 LINE",
"446 1041 LINE",
"459 1039 OFFCURVE",
"473 1030 OFFCURVE",
"473 1015 CURVE SMOOTH",
"473 395 LINE SMOOTH",
"473 379 OFFCURVE",
"459 368 OFFCURVE",
"446 368 CURVE",
"382 362 LINE",
"382 302 LINE",
"746 302 LINE",
"746 362 LINE",
"679 368 LINE",
"663 368 OFFCURVE",
"651 379 OFFCURVE",
"651 395 CURVE SMOOTH",
"651 656 LINE",
"663 656 OFFCURVE",
"665 654 OFFCURVE",
"675 654 CURVE SMOOTH",
"916 654 OFFCURVE",
"769 295 OFFCURVE",
"1089 295 CURVE SMOOTH",
"1119 295 OFFCURVE",
"1148 295 OFFCURVE",
"1203 302 CURVE"
);
},
{
closed = 1;
nodes = (
"872 729 OFFCURVE",
"765 705 OFFCURVE",
"691 705 CURVE SMOOTH",
"684 705 OFFCURVE",
"670 705 OFFCURVE",
"651 707 CURVE",
"651 1016 LINE",
"670 1016 OFFCURVE",
"689 1016 OFFCURVE",
"689 1016 CURVE",
"807 1016 OFFCURVE",
"872 967 OFFCURVE",
"872 866 CURVE SMOOTH"
);
}
);
vertWidth = 0;
width = 1543;
}
);
unicode = 00AE;
},
{
glyphname = macron;
layers = (
{
layerId = "3590996D-50CB-43A2-BF30-26B998A874F2";
paths = (
{
closed = 1;
nodes = (
"0 1236 LINE",
"0 1118 LINE",
"617 1118 LINE",
"617 1236 LINE"
);
}
);
vertWidth = 0;
width = 617;
},
{
layerId = "0032BCCA-E182-473F-BEC5-A72B788B9C41";
paths = (
{
closed = 1;
nodes = (
"626 1266 LINE",
"0 1266 LINE",
"0 1118 LINE",
"626 1118 LINE"
);
}
);
vertWidth = 0;
width = 626;
}
);
unicode = 00AF;
},
{
glyphname = degree;
layers = (
{
layerId = "3590996D-50CB-43A2-BF30-26B998A874F2";
paths = (
{
closed = 1;
nodes = (
"561 1236 OFFCURVE",
"444 1349 OFFCURVE",
"304 1349 CURVE SMOOTH",
"168 1349 OFFCURVE",
"48 1243 OFFCURVE",
"48 1094 CURVE SMOOTH",
"48 949 OFFCURVE",
"163 838 OFFCURVE",
"304 838 CURVE SMOOTH",
"449 838 OFFCURVE",
"561 955 OFFCURVE",
"561 1094 CURVE SMOOTH"
);
},
{
closed = 1;
nodes = (
"487 993 OFFCURVE",
"405 912 OFFCURVE",
"304 912 CURVE SMOOTH",
"203 912 OFFCURVE",
"121 993 OFFCURVE",
"121 1094 CURVE SMOOTH",
"121 1195 OFFCURVE",
"203 1275 OFFCURVE",
"304 1275 CURVE SMOOTH",
"405 1275 OFFCURVE",
"487 1195 OFFCURVE",
"487 1094 CURVE SMOOTH"
);
}
);
vertWidth = 0;
width = 608;
},
{
layerId = "0032BCCA-E182-473F-BEC5-A72B788B9C41";
paths = (
{
closed = 1;
nodes = (
"466 1417 OFFCURVE",
"361 1522 OFFCURVE",
"232 1522 CURVE SMOOTH",
"105 1522 OFFCURVE",
"0 1417 OFFCURVE",
"0 1287 CURVE SMOOTH",
"0 1159 OFFCURVE",
"105 1055 OFFCURVE",
"232 1055 CURVE SMOOTH",
"361 1055 OFFCURVE",
"466 1159 OFFCURVE",
"466 1287 CURVE SMOOTH"
);
},
{
closed = 1;
nodes = (
"348 1223 OFFCURVE",
"297 1171 OFFCURVE",
"232 1171 CURVE SMOOTH",
"169 1171 OFFCURVE",
"116 1223 OFFCURVE",
"116 1287 CURVE SMOOTH",
"116 1352 OFFCURVE",
"169 1404 OFFCURVE",
"232 1404 CURVE SMOOTH",
"297 1404 OFFCURVE",
"348 1352 OFFCURVE",
"348 1287 CURVE SMOOTH"
);
}
);
vertWidth = 0;
width = 466;
}
);
unicode = 00B0;
},
{
glyphname = plusminus;
layers = (
{
layerId = "3590996D-50CB-43A2-BF30-26B998A874F2";
paths = (
{
closed = 1;
nodes = (
"1307 792 LINE",
"822 792 LINE",
"822 1102 LINE",
"715 1102 LINE",
"715 792 LINE",
"229 792 LINE",
"229 687 LINE",
"715 687 LINE",
"715 377 LINE",
"822 377 LINE",
"822 687 LINE",
"1307 687 LINE"
);
},
{
closed = 1;
nodes = (
"1307 182 LINE",
"229 182 LINE",
"229 77 LINE",
"1307 77 LINE"
);
}
);
vertWidth = 0;
width = 1535;
},
{
layerId = "0032BCCA-E182-473F-BEC5-A72B788B9C41";
paths = (
{
closed = 1;
nodes = (
"1307 792 LINE",
"822 792 LINE",
"822 1102 LINE",
"715 1102 LINE",
"715 792 LINE",
"229 792 LINE",
"229 687 LINE",
"715 687 LINE",
"715 377 LINE",
"822 377 LINE",
"822 687 LINE",
"1307 687 LINE"
);
},
{
closed = 1;
nodes = (
"1307 182 LINE",
"229 182 LINE",
"229 77 LINE",
"1307 77 LINE"
);
}
);
vertWidth = 0;
width = 1535;
}
);
unicode = 00B1;
},
{
glyphname = twosuperior;
layers = (
{
layerId = "3590996D-50CB-43A2-BF30-26B998A874F2";
paths = (
{
closed = 1;
nodes = (
"617 772 LINE",
"559 772 LINE",
"536 678 LINE",
"183 678 LINE",
"326 782 OFFCURVE",
"420 857 OFFCURVE",
"468 903 CURVE SMOOTH",
"550 983 OFFCURVE",
"591 1058 OFFCURVE",
"591 1127 CURVE SMOOTH",
"591 1192 OFFCURVE",
"569 1243 OFFCURVE",
"523 1282 CURVE SMOOTH",
"478 1321 OFFCURVE",
"417 1340 OFFCURVE",
"339 1340 CURVE SMOOTH",
"268 1340 OFFCURVE",
"206 1324 OFFCURVE",
"155 1294 CURVE SMOOTH",
"103 1264 OFFCURVE",
"77 1225 OFFCURVE",
"77 1179 CURVE SMOOTH",
"77 1136 OFFCURVE",
"102 1115 OFFCURVE",
"151 1115 CURVE SMOOTH",
"174 1115 OFFCURVE",
"193 1121 OFFCURVE",
"208 1133 CURVE",
"208 1255 LINE",
"255 1270 OFFCURVE",
"287 1278 OFFCURVE",
"306 1278 CURVE SMOOTH",
"410 1278 OFFCURVE",
"463 1224 OFFCURVE",
"463 1116 CURVE SMOOTH",
"463 1047 OFFCURVE",
"425 975 OFFCURVE",
"351 899 CURVE SMOOTH",
"307 854 OFFCURVE",
"210 774 OFFCURVE",
"57 657 CURVE",
"57 584 LINE",
"617 584 LINE"
);
}
);
vertWidth = 0;
width = 673;
},
{
layerId = "0032BCCA-E182-473F-BEC5-A72B788B9C41";
paths = (
{
closed = 1;
nodes = (
"643 800 LINE",
"566 800 LINE",
"542 701 LINE",
"216 701 LINE",
"452 845 OFFCURVE",
"617 967 OFFCURVE",
"617 1125 CURVE SMOOTH",
"617 1259 OFFCURVE",
"503 1340 OFFCURVE",
"352 1340 CURVE SMOOTH",
"248 1340 OFFCURVE",
"65 1306 OFFCURVE",
"65 1166 CURVE SMOOTH",
"65 1116 OFFCURVE",
"95 1085 OFFCURVE",
"155 1085 CURVE SMOOTH",
"183 1085 OFFCURVE",
"216 1097 OFFCURVE",
"234 1106 CURVE",
"234 1255 LINE",
"248 1262 OFFCURVE",
"267 1266 OFFCURVE",
"301 1266 CURVE SMOOTH",
"389 1266 OFFCURVE",
"443 1201 OFFCURVE",
"443 1115 CURVE SMOOTH",
"443 969 OFFCURVE",
"279 825 OFFCURVE",
"57 676 CURVE",
"57 584 LINE",
"643 584 LINE"
);
}
);
vertWidth = 0;
width = 698;
}
);
unicode = 00B2;
},
{
glyphname = threesuperior;
layers = (
{
layerId = "3590996D-50CB-43A2-BF30-26B998A874F2";
paths = (
{
closed = 1;
nodes = (
"617 914 OFFCURVE",
"518 972 OFFCURVE",
"404 976 CURVE",
"526 1008 OFFCURVE",
"588 1068 OFFCURVE",
"588 1153 CURVE SMOOTH",
"588 1281 OFFCURVE",
"474 1341 OFFCURVE",
"346 1341 CURVE SMOOTH",
"274 1341 OFFCURVE",
"213 1327 OFFCURVE",
"163 1298 CURVE SMOOTH",
"113 1269 OFFCURVE",
"88 1234 OFFCURVE",
"88 1192 CURVE SMOOTH",
"88 1150 OFFCURVE",
"112 1129 OFFCURVE",
"158 1129 CURVE SMOOTH",
"174 1129 OFFCURVE",
"192 1134 OFFCURVE",
"212 1144 CURVE",
"212 1255 LINE",
"240 1272 OFFCURVE",
"274 1280 OFFCURVE",
"315 1280 CURVE SMOOTH",
"396 1280 OFFCURVE",
"466 1234 OFFCURVE",
"466 1141 CURVE SMOOTH",
"466 1047 OFFCURVE",
"406 1000 OFFCURVE",
"285 1000 CURVE SMOOTH",
"255 1000 LINE",
"255 932 LINE",
"274 935 OFFCURVE",
"296 935 OFFCURVE",
"322 935 CURVE SMOOTH",
"438 935 OFFCURVE",
"496 890 OFFCURVE",
"496 800 CURVE SMOOTH",
"496 701 OFFCURVE",
"414 629 OFFCURVE",
"315 629 CURVE SMOOTH",
"281 629 OFFCURVE",
"248 638 OFFCURVE",
"218 654 CURVE",
"181 752 LINE",
"171 758 OFFCURVE",
"157 761 OFFCURVE",
"140 761 CURVE SMOOTH",
"94 761 OFFCURVE",
"70 740 OFFCURVE",
"70 698 CURVE SMOOTH",
"70 611 OFFCURVE",
"216 575 OFFCURVE",
"311 575 CURVE SMOOTH",
"466 575 OFFCURVE",
"617 649 OFFCURVE",
"617 800 CURVE SMOOTH"
);
}
);
vertWidth = 0;
width = 688;
},
{
layerId = "0032BCCA-E182-473F-BEC5-A72B788B9C41";
paths = (
{
closed = 1;
nodes = (
"645 962 OFFCURVE",
"443 974 OFFCURVE",
"411 974 CURVE",
"445 978 OFFCURVE",
"616 1011 OFFCURVE",
"616 1151 CURVE SMOOTH",
"616 1284 OFFCURVE",
"479 1340 OFFCURVE",
"348 1340 CURVE SMOOTH",
"197 1340 OFFCURVE",
"79 1277 OFFCURVE",
"79 1185 CURVE SMOOTH",
"79 1131 OFFCURVE",
"123 1106 OFFCURVE",
"174 1106 CURVE SMOOTH",
"193 1106 OFFCURVE",
"216 1107 OFFCURVE",
"238 1120 CURVE",
"238 1257 LINE",
"252 1261 OFFCURVE",
"277 1266 OFFCURVE",
"293 1266 CURVE SMOOTH",
"382 1266 OFFCURVE",
"440 1208 OFFCURVE",
"440 1139 CURVE SMOOTH",
"440 1034 OFFCURVE",
"352 1002 OFFCURVE",
"264 1002 CURVE SMOOTH",
"253 1002 OFFCURVE",
"242 1002 OFFCURVE",
"230 1002 CURVE",
"230 919 LINE",
"248 922 OFFCURVE",
"281 925 OFFCURVE",
"308 925 CURVE SMOOTH",
"418 925 OFFCURVE",
"470 860 OFFCURVE",
"470 791 CURVE SMOOTH",
"470 703 OFFCURVE",
"401 641 OFFCURVE",
"319 641 CURVE SMOOTH",
"285 641 OFFCURVE",
"262 647 OFFCURVE",
"238 656 CURVE",
"199 781 LINE",
"186 786 OFFCURVE",
"169 792 OFFCURVE",
"148 792 CURVE SMOOTH",
"111 792 OFFCURVE",
"61 777 OFFCURVE",
"61 715 CURVE SMOOTH",
"61 643 OFFCURVE",
"151 573 OFFCURVE",
"308 573 CURVE SMOOTH",
"487 573 OFFCURVE",
"645 654 OFFCURVE",
"645 798 CURVE SMOOTH"
);
}
);
vertWidth = 0;
width = 706;
}
);
unicode = 00B3;
},
{
glyphname = acute;
layers = (
{
layerId = "3590996D-50CB-43A2-BF30-26B998A874F2";
paths = (
{
closed = 1;
nodes = (
"646 1363 OFFCURVE",
"618 1391 OFFCURVE",
"562 1391 CURVE SMOOTH",
"525 1391 OFFCURVE",
"491 1374 OFFCURVE",
"463 1341 CURVE SMOOTH",
"219 1055 LINE",
"323 1055 LINE",
"604 1234 LINE SMOOTH",
"632 1252 OFFCURVE",
"646 1277 OFFCURVE",
"646 1308 CURVE SMOOTH"
);
}
);
vertWidth = 0;
width = 646;
},
{
layerId = "0032BCCA-E182-473F-BEC5-A72B788B9C41";
paths = (
{
closed = 1;
nodes = (
"691 1340 OFFCURVE",
"663 1393 OFFCURVE",
"584 1393 CURVE SMOOTH",
"535 1393 OFFCURVE",
"510 1380 OFFCURVE",
"468 1334 CURVE SMOOTH",
"216 1055 LINE",
"345 1055 LINE",
"643 1218 LINE SMOOTH",
"669 1232 OFFCURVE",
"691 1271 OFFCURVE",
"691 1295 CURVE SMOOTH"
);
}
);
vertWidth = 0;
width = 691;
}
);
unicode = 00B4;
},
{
glyphname = mu;
layers = (
{
layerId = "3590996D-50CB-43A2-BF30-26B998A874F2";
paths = (
{
closed = 1;
nodes = (
"967 162 OFFCURVE",
"940 124 OFFCURVE",
"904 124 CURVE SMOOTH",
"883 124 OFFCURVE",
"867 131 OFFCURVE",
"860 146 CURVE SMOOTH",
"849 169 OFFCURVE",
"842 218 OFFCURVE",
"842 293 CURVE SMOOTH",
"842 928 LINE",
"671 928 LINE",
"671 260 LINE",
"597 177 OFFCURVE",
"530 134 OFFCURVE",
"470 134 CURVE SMOOTH",
"411 134 OFFCURVE",
"373 163 OFFCURVE",
"354 220 CURVE SMOOTH",
"343 253 OFFCURVE",
"337 314 OFFCURVE",
"337 404 CURVE SMOOTH",
"337 928 LINE",
"166 928 LINE",
"166 225 LINE SMOOTH",
"166 88 OFFCURVE",
"157 -25 OFFCURVE",
"137 -110 CURVE SMOOTH",
"117 -196 OFFCURVE",
"107 -248 OFFCURVE",
"107 -267 CURVE SMOOTH",
"107 -322 OFFCURVE",
"142 -369 OFFCURVE",
"188 -369 CURVE SMOOTH",
"239 -369 OFFCURVE",
"276 -318 OFFCURVE",
"276 -263 CURVE SMOOTH",
"276 -242 OFFCURVE",
"269 -194 OFFCURVE",
"254 -120 CURVE SMOOTH",
"239 -46 OFFCURVE",
"232 13 OFFCURVE",
"232 55 CURVE SMOOTH",
"232 99 LINE",
"265 45 OFFCURVE",
"319 18 OFFCURVE",
"396 18 CURVE SMOOTH",
"443 18 OFFCURVE",
"488 33 OFFCURVE",
"531 62 CURVE SMOOTH",
"570 89 OFFCURVE",
"616 134 OFFCURVE",
"671 197 CURVE",
"688 78 OFFCURVE",
"742 18 OFFCURVE",
"833 18 CURVE SMOOTH",
"947 18 OFFCURVE",
"1009 92 OFFCURVE",
"1019 240 CURVE",
"982 240 LINE"
);
}
);
vertWidth = 0;
width = 1009;
},
{
layerId = "0032BCCA-E182-473F-BEC5-A72B788B9C41";
paths = (
{
closed = 1;
nodes = (
"1004 165 OFFCURVE",
"983 142 OFFCURVE",
"948 142 CURVE SMOOTH",
"920 142 OFFCURVE",
"907 200 OFFCURVE",
"907 239 CURVE SMOOTH",
"907 939 LINE",
"670 939 LINE",
"670 270 LINE",
"605 195 OFFCURVE",
"566 152 OFFCURVE",
"499 152 CURVE SMOOTH",
"464 152 OFFCURVE",
"429 191 OFFCURVE",
"413 230 CURVE SMOOTH",
"406 248 OFFCURVE",
"398 285 OFFCURVE",
"398 341 CURVE SMOOTH",
"398 939 LINE",
"166 939 LINE",
"166 161 LINE SMOOTH",
"166 -192 OFFCURVE",
"107 -143 OFFCURVE",
"107 -259 CURVE SMOOTH",
"107 -323 OFFCURVE",
"171 -370 OFFCURVE",
"227 -370 CURVE SMOOTH",
"288 -370 OFFCURVE",
"354 -321 OFFCURVE",
"354 -255 CURVE SMOOTH",
"354 -198 OFFCURVE",
"293 -85 OFFCURVE",
"293 49 CURVE SMOOTH",
"293 89 LINE",
"325 59 OFFCURVE",
"390 17 OFFCURVE",
"435 17 CURVE SMOOTH",
"545 17 OFFCURVE",
"614 54 OFFCURVE",
"688 165 CURVE",
"721 73 OFFCURVE",
"793 17 OFFCURVE",
"857 17 CURVE SMOOTH",
"1003 17 OFFCURVE",
"1071 97 OFFCURVE",
"1082 258 CURVE",
"1023 258 LINE"
);
}
);
vertWidth = 0;
width = 1073;
}
);
unicode = 00B5;
},
{
glyphname = paragraph;
layers = (
{
layerId = "3590996D-50CB-43A2-BF30-26B998A874F2";
paths = (
{
closed = 1;
nodes = (
"846 1277 LINE",
"481 1277 LINE SMOOTH",
"215 1277 OFFCURVE",
"49 1189 OFFCURVE",
"49 916 CURVE SMOOTH",
"49 641 OFFCURVE",
"221 557 OFFCURVE",
"501 557 CURVE",
"501 1201 LINE",
"642 1201 LINE",
"642 -106 LINE",
"732 -106 LINE",
"732 1192 LINE",
"846 1210 LINE"
);
}
);
vertWidth = 0;
width = 895;
},
{
layerId = "0032BCCA-E182-473F-BEC5-A72B788B9C41";
paths = (
{
closed = 1;
nodes = (
"909 1277 LINE",
"503 1277 LINE SMOOTH",
"223 1277 OFFCURVE",
"49 1185 OFFCURVE",
"49 905 CURVE SMOOTH",
"49 610 OFFCURVE",
"255 536 OFFCURVE",
"545 536 CURVE",
"545 1160 LINE",
"660 1160 LINE",
"660 -106 LINE",
"795 -106 LINE",
"795 1155 LINE",
"909 1171 LINE"
);
}
);
vertWidth = 0;
width = 958;
}
);
unicode = 00B6;
},
{
glyphname = periodcentered;
layers = (
{
layerId = "3590996D-50CB-43A2-BF30-26B998A874F2";
paths = (
{
closed = 1;
nodes = (
"325 534 OFFCURVE",
"383 585 OFFCURVE",
"383 657 CURVE SMOOTH",
"383 727 OFFCURVE",
"328 782 OFFCURVE",
"258 782 CURVE SMOOTH",
"188 782 OFFCURVE",
"135 727 OFFCURVE",
"135 657 CURVE SMOOTH",
"135 589 OFFCURVE",
"190 534 OFFCURVE",
"258 534 CURVE SMOOTH"
);
}
);
vertWidth = 0;
width = 518;
},
{
layerId = "0032BCCA-E182-473F-BEC5-A72B788B9C41";
paths = (
{
closed = 1;
nodes = (
"367 495 OFFCURVE",
"445 566 OFFCURVE",
"445 657 CURVE SMOOTH",
"445 747 OFFCURVE",
"369 821 OFFCURVE",
"278 821 CURVE SMOOTH",
"188 821 OFFCURVE",
"116 746 OFFCURVE",
"116 657 CURVE SMOOTH",
"116 567 OFFCURVE",
"190 495 OFFCURVE",
"278 495 CURVE SMOOTH"
);
}
);
vertWidth = 0;
width = 561;
}
);
unicode = 00B7;
},
{
glyphname = cedilla;
layers = (
{
layerId = "3590996D-50CB-43A2-BF30-26B998A874F2";
paths = (
{
closed = 1;
nodes = (
"426 -112 OFFCURVE",
"381 -69 OFFCURVE",
"292 -69 CURVE SMOOTH",
"286 -69 OFFCURVE",
"259 -73 OFFCURVE",
"248 -76 CURVE",
"248 40 LINE",
"177 40 LINE",
"177 -166 LINE",
"194 -159 OFFCURVE",
"208 -155 OFFCURVE",
"220 -155 CURVE SMOOTH",
"277 -155 OFFCURVE",
"306 -178 OFFCURVE",
"306 -224 CURVE SMOOTH",
"306 -274 OFFCURVE",
"266 -299 OFFCURVE",
"186 -299 CURVE SMOOTH",
"157 -299 OFFCURVE",
"121 -294 OFFCURVE",
"76 -284 CURVE",
"76 -356 LINE",
"127 -369 OFFCURVE",
"172 -375 OFFCURVE",
"212 -375 CURVE SMOOTH",
"330 -375 OFFCURVE",
"426 -317 OFFCURVE",
"426 -199 CURVE SMOOTH"
);
}
);
vertWidth = 0;
width = 426;
},
{
layerId = "0032BCCA-E182-473F-BEC5-A72B788B9C41";
paths = (
{
closed = 1;
nodes = (
"454 -104 OFFCURVE",
"383 -62 OFFCURVE",
"299 -62 CURVE SMOOTH",
"280 -62 OFFCURVE",
"273 -60 OFFCURVE",
"273 -60 CURVE",
"273 40 LINE",
"181 40 LINE",
"181 -166 LINE",
"181 -166 OFFCURVE",
"208 -163 OFFCURVE",
"221 -163 CURVE SMOOTH",
"264 -163 OFFCURVE",
"302 -181 OFFCURVE",
"302 -226 CURVE SMOOTH",
"302 -277 OFFCURVE",
"241 -289 OFFCURVE",
"193 -289 CURVE SMOOTH",
"149 -289 OFFCURVE",
"77 -273 OFFCURVE",
"77 -273 CURVE",
"77 -366 LINE",
"77 -366 OFFCURVE",
"151 -386 OFFCURVE",
"227 -386 CURVE SMOOTH",
"357 -386 OFFCURVE",
"454 -321 OFFCURVE",
"454 -201 CURVE SMOOTH"
);
}
);
vertWidth = 0;
width = 454;
}
);
unicode = 00B8;
},
{
glyphname = onesuperior;
layers = (
{
layerId = "3590996D-50CB-43A2-BF30-26B998A874F2";
paths = (
{
closed = 1;
nodes = (
"533 633 LINE",
"420 638 LINE",
"401 638 OFFCURVE",
"392 646 OFFCURVE",
"392 661 CURVE SMOOTH",
"392 1340 LINE",
"348 1340 LINE",
"88 1266 LINE",
"88 1216 LINE",
"274 1245 LINE",
"274 661 LINE SMOOTH",
"274 646 OFFCURVE",
"265 638 OFFCURVE",
"248 638 CURVE",
"127 633 LINE",
"127 584 LINE",
"533 584 LINE"
);
}
);
vertWidth = 0;
width = 619;
},
{
layerId = "0032BCCA-E182-473F-BEC5-A72B788B9C41";
paths = (
{
closed = 1;
nodes = (
"547 641 LINE",
"454 645 LINE",
"438 645 OFFCURVE",
"426 654 OFFCURVE",
"426 668 CURVE SMOOTH",
"426 1336 LINE",
"339 1336 LINE",
"79 1253 LINE",
"79 1196 LINE",
"258 1218 LINE",
"258 668 LINE SMOOTH",
"258 654 OFFCURVE",
"247 645 OFFCURVE",
"232 645 CURVE",
"127 641 LINE",
"127 584 LINE",
"547 584 LINE"
);
}
);
vertWidth = 0;
width = 626;
}
);
unicode = 00B9;
},
{
glyphname = ordmasculine;
layers = (
{
layerId = "3590996D-50CB-43A2-BF30-26B998A874F2";
paths = (
{
closed = 1;
nodes = (
"491 898 OFFCURVE",
"444 782 OFFCURVE",
"330 782 CURVE SMOOTH",
"219 782 OFFCURVE",
"171 901 OFFCURVE",
"171 1012 CURVE SMOOTH",
"171 1127 OFFCURVE",
"217 1241 OFFCURVE",
"332 1241 CURVE SMOOTH",
"445 1241 OFFCURVE",
"491 1125 OFFCURVE",
"491 1012 CURVE SMOOTH"
);
},
{
closed = 1;
nodes = (
"616 1177 OFFCURVE",
"503 1292 OFFCURVE",
"333 1292 CURVE SMOOTH",
"155 1292 OFFCURVE",
"45 1172 OFFCURVE",
"45 1011 CURVE SMOOTH",
"45 847 OFFCURVE",
"156 733 OFFCURVE",
"329 733 CURVE SMOOTH",
"510 733 OFFCURVE",
"616 858 OFFCURVE",
"616 1011 CURVE SMOOTH"
);
},
{
closed = 1;
nodes = (
"611 656 LINE",
"49 656 LINE",
"49 601 LINE",
"611 601 LINE"
);
}
);
vertWidth = 0;
width = 661;
},
{
layerId = "0032BCCA-E182-473F-BEC5-A72B788B9C41";
paths = (
{
closed = 1;
nodes = (
"661 1181 OFFCURVE",
"553 1299 OFFCURVE",
"355 1299 CURVE SMOOTH",
"169 1299 OFFCURVE",
"39 1194 OFFCURVE",
"39 1013 CURVE SMOOTH",
"39 838 OFFCURVE",
"164 733 OFFCURVE",
"346 733 CURVE SMOOTH",
"545 733 OFFCURVE",
"661 847 OFFCURVE",
"661 1011 CURVE SMOOTH"
);
},
{
closed = 1;
nodes = (
"485 916 OFFCURVE",
"461 794 OFFCURVE",
"352 794 CURVE SMOOTH",
"239 794 OFFCURVE",
"218 923 OFFCURVE",
"218 1016 CURVE SMOOTH",
"218 1113 OFFCURVE",
"241 1236 OFFCURVE",
"350 1236 CURVE SMOOTH",
"459 1236 OFFCURVE",
"485 1107 OFFCURVE",
"485 1013 CURVE SMOOTH"
);
},
{
closed = 1;
nodes = (
"638 656 LINE",
"68 656 LINE",
"68 584 LINE",
"638 584 LINE"
);
}
);
vertWidth = 0;
width = 700;
}
);
unicode = 00BA;
},
{
glyphname = guillemotright;
layers = (
{
layerId = "3590996D-50CB-43A2-BF30-26B998A874F2";
paths = (
{
closed = 1;
nodes = (
"744 557 LINE",
"436 809 LINE",
"436 682 LINE",
"651 484 LINE",
"436 288 LINE",
"436 158 LINE",
"744 411 LINE"
);
},
{
closed = 1;
nodes = (
"382 557 LINE",
"74 809 LINE",
"74 682 LINE",
"285 484 LINE",
"74 288 LINE",
"74 158 LINE",
"382 411 LINE"
);
}
);
vertWidth = 0;
width = 814;
},
{
layerId = "0032BCCA-E182-473F-BEC5-A72B788B9C41";
paths = (
{
closed = 1;
nodes = (
"758 560 LINE",
"435 831 LINE",
"435 668 LINE",
"628 483 LINE",
"435 298 LINE",
"435 134 LINE",
"758 403 LINE"
);
},
{
closed = 1;
nodes = (
"398 560 LINE",
"74 831 LINE",
"74 666 LINE",
"269 483 LINE",
"74 298 LINE",
"74 134 LINE",
"398 403 LINE"
);
}
);
vertWidth = 0;
width = 828;
}
);
unicode = 00BB;
},
{
glyphname = onequarter;
layers = (
{
layerId = "3590996D-50CB-43A2-BF30-26B998A874F2";
paths = (
{
closed = 1;
nodes = (
"1525 325 LINE",
"1388 325 LINE",
"1388 788 LINE",
"1307 788 LINE",
"901 327 LINE",
"901 250 LINE",
"1284 250 LINE",
"1284 1 LINE",
"1388 1 LINE",
"1388 250 LINE",
"1525 250 LINE"
);
},
{
closed = 1;
nodes = (
"1156 1327 LINE",
"337 40 LINE",
"455 40 LINE",
"1272 1327 LINE"
);
},
{
closed = 1;
nodes = (
"533 633 LINE",
"420 638 LINE",
"401 638 OFFCURVE",
"392 646 OFFCURVE",
"392 661 CURVE SMOOTH",
"392 1340 LINE",
"348 1340 LINE",
"88 1266 LINE",
"88 1216 LINE",
"274 1245 LINE",
"274 661 LINE SMOOTH",
"274 646 OFFCURVE",
"265 638 OFFCURVE",
"248 638 CURVE",
"127 633 LINE",
"127 584 LINE",
"533 584 LINE"
);
},
{
closed = 1;
nodes = (
"997 325 LINE",
"1284 659 LINE",
"1284 325 LINE"
);
}
);
vertWidth = 0;
width = 1613;
},
{
layerId = "0032BCCA-E182-473F-BEC5-A72B788B9C41";
paths = (
{
closed = 1;
nodes = (
"1592 327 LINE",
"1458 327 LINE",
"1458 788 LINE",
"1329 788 LINE",
"934 332 LINE",
"934 237 LINE",
"1305 237 LINE",
"1305 7 LINE",
"1458 7 LINE",
"1458 237 LINE",
"1592 237 LINE"
);
},
{
closed = 1;
nodes = (
"1191 1321 LINE",
"376 40 LINE",
"510 40 LINE",
"1326 1321 LINE"
);
},
{
closed = 1;
nodes = (
"547 641 LINE",
"454 645 LINE",
"438 645 OFFCURVE",
"427 654 OFFCURVE",
"427 668 CURVE SMOOTH",
"427 1336 LINE",
"339 1336 LINE",
"79 1253 LINE",
"79 1196 LINE",
"258 1218 LINE",
"258 668 LINE SMOOTH",
"258 654 OFFCURVE",
"247 645 OFFCURVE",
"232 645 CURVE",
"129 641 LINE",
"129 584 LINE",
"547 584 LINE"
);
},
{
closed = 1;
nodes = (
"1050 327 LINE",
"1305 628 LINE",
"1305 327 LINE"
);
}
);
vertWidth = 0;
width = 1672;
}
);
unicode = 00BC;
},
{
glyphname = onehalf;
layers = (
{
layerId = "3590996D-50CB-43A2-BF30-26B998A874F2";
paths = (
{
closed = 1;
nodes = (
"1530 230 LINE",
"1469 230 LINE",
"1449 134 LINE",
"1095 134 LINE",
"1237 236 OFFCURVE",
"1331 311 OFFCURVE",
"1380 359 CURVE SMOOTH",
"1462 439 OFFCURVE",
"1502 514 OFFCURVE",
"1502 584 CURVE SMOOTH",
"1502 725 OFFCURVE",
"1391 796 OFFCURVE",
"1250 796 CURVE SMOOTH",
"1179 796 OFFCURVE",
"1118 781 OFFCURVE",
"1066 750 CURVE SMOOTH",
"1015 720 OFFCURVE",
"990 682 OFFCURVE",
"990 636 CURVE SMOOTH",
"990 593 OFFCURVE",
"1014 571 OFFCURVE",
"1062 571 CURVE SMOOTH",
"1084 571 OFFCURVE",
"1104 577 OFFCURVE",
"1120 589 CURVE",
"1120 710 LINE",
"1169 727 OFFCURVE",
"1201 735 OFFCURVE",
"1219 735 CURVE SMOOTH",
"1323 735 OFFCURVE",
"1375 682 OFFCURVE",
"1375 575 CURVE SMOOTH",
"1375 505 OFFCURVE",
"1337 431 OFFCURVE",
"1263 356 CURVE SMOOTH",
"1219 312 OFFCURVE",
"1120 231 OFFCURVE",
"967 114 CURVE",
"967 40 LINE",
"1530 40 LINE"
);
},
{
closed = 1;
nodes = (
"1143 1327 LINE",
"324 40 LINE",
"440 40 LINE",
"1259 1327 LINE"
);
},
{
closed = 1;
nodes = (
"529 633 LINE",
"417 638 LINE",
"398 638 OFFCURVE",
"389 646 OFFCURVE",
"389 661 CURVE SMOOTH",
"389 1340 LINE",
"345 1340 LINE",
"85 1266 LINE",
"85 1216 LINE",
"271 1245 LINE",
"271 661 LINE SMOOTH",
"271 646 OFFCURVE",
"262 638 OFFCURVE",
"245 638 CURVE",
"123 633 LINE",
"123 584 LINE",
"529 584 LINE"
);
}
);
vertWidth = 0;
width = 1613;
},
{
layerId = "0032BCCA-E182-473F-BEC5-A72B788B9C41";
paths = (
{
closed = 1;
nodes = (
"1588 258 LINE",
"1509 258 LINE",
"1489 158 LINE",
"1159 158 LINE",
"1397 302 OFFCURVE",
"1565 423 OFFCURVE",
"1565 582 CURVE SMOOTH",
"1565 715 OFFCURVE",
"1449 796 OFFCURVE",
"1298 796 CURVE SMOOTH",
"1192 796 OFFCURVE",
"1010 763 OFFCURVE",
"1010 622 CURVE SMOOTH",
"1010 575 OFFCURVE",
"1041 541 OFFCURVE",
"1101 541 CURVE SMOOTH",
"1129 541 OFFCURVE",
"1164 553 OFFCURVE",
"1182 562 CURVE",
"1182 710 LINE",
"1196 715 OFFCURVE",
"1221 722 OFFCURVE",
"1244 722 CURVE SMOOTH",
"1335 722 OFFCURVE",
"1386 657 OFFCURVE",
"1386 571 CURVE SMOOTH",
"1386 426 OFFCURVE",
"1139 235 OFFCURVE",
"1003 132 CURVE",
"1003 40 LINE",
"1588 40 LINE"
);
},
{
closed = 1;
nodes = (
"1150 1321 LINE",
"336 40 LINE",
"470 40 LINE",
"1284 1321 LINE"
);
},
{
closed = 1;
nodes = (
"553 641 LINE",
"459 645 LINE",
"445 645 OFFCURVE",
"431 654 OFFCURVE",
"431 668 CURVE SMOOTH",
"431 1336 LINE",
"345 1336 LINE",
"85 1253 LINE",
"85 1196 LINE",
"264 1218 LINE",
"264 668 LINE SMOOTH",
"264 654 OFFCURVE",
"253 645 OFFCURVE",
"238 645 CURVE",
"135 641 LINE",
"135 584 LINE",
"553 584 LINE"
);
}
);
vertWidth = 0;
width = 1672;
}
);
unicode = 00BD;
},
